<svg width="14" height="14" viewBox="0 0 16 16" fill="none" xmlns="http://www.w3.org/2000/svg">
<path d="M0 0.5H16V13.3V16.5H12.8867H0V0.5Z" fill="#1D1D1D"/>
<path d="M10.9768 4.75207C11.5792 5.23871 11.8571 5.99078 11.8571 7.0083C11.8571 8.02581 11.5328 8.73364 10.9305 9.22028C10.3282 9.70691 9.35521 9.92811 8.10425 9.92811H6.94595V12.671C6.94595 13.1576 6.52896 13.6 5.97297 13.6C5.46332 13.6 5 13.2018 5 12.671V4.84055C5 4.35392 5.41699 4 5.88031 4H8.01158C9.44788 4 10.4208 4.26544 10.9768 4.75207ZM9.58687 7.93733C9.81853 7.67189 9.9112 7.31797 9.9112 6.87558C9.9112 6.43318 9.7722 6.07926 9.44788 5.85806C9.16988 5.68111 8.70656 5.54839 8.05791 5.54839H6.94595V8.33548H8.24324C8.93822 8.33548 9.35521 8.20277 9.58687 7.93733Z" fill="#FFFFFB"/>
</svg>
