<svg width="60" height="60" viewBox="0 0 60 60" fill="none" xmlns="http://www.w3.org/2000/svg">
<path d="M60 30L45 55.9808L15 55.9808L-1.31134e-06 30L15 4.01924L45 4.01924L60 30Z" fill="#73D4D4" fill-opacity="0.8"/>
<path d="M21.332 39V30.166H18.406V29.2H25.434V30.166H22.508V39H21.332ZM28.7062 39.168C28.0528 39.168 27.4648 39.0187 26.9422 38.72C26.4195 38.4213 26.0042 38.0013 25.6962 37.46C25.3975 36.9093 25.2482 36.2653 25.2482 35.528C25.2482 34.7907 25.4022 34.1513 25.7102 33.61C26.0182 33.0593 26.4335 32.6347 26.9562 32.336C27.4882 32.0373 28.0808 31.888 28.7342 31.888C29.3875 31.888 29.9755 32.0373 30.4982 32.336C31.0208 32.6347 31.4315 33.0593 31.7302 33.61C32.0382 34.1513 32.1922 34.7907 32.1922 35.528C32.1922 36.2653 32.0382 36.9093 31.7302 37.46C31.4222 38.0013 31.0022 38.4213 30.4702 38.72C29.9475 39.0187 29.3595 39.168 28.7062 39.168ZM28.7062 38.16C29.1075 38.16 29.4808 38.062 29.8262 37.866C30.1715 37.67 30.4515 37.376 30.6662 36.984C30.8808 36.592 30.9882 36.1067 30.9882 35.528C30.9882 34.9493 30.8808 34.464 30.6662 34.072C30.4608 33.68 30.1855 33.386 29.8402 33.19C29.4948 32.994 29.1262 32.896 28.7342 32.896C28.3328 32.896 27.9595 32.994 27.6142 33.19C27.2688 33.386 26.9888 33.68 26.7742 34.072C26.5595 34.464 26.4522 34.9493 26.4522 35.528C26.4522 36.1067 26.5595 36.592 26.7742 36.984C26.9888 37.376 27.2642 37.67 27.6002 37.866C27.9455 38.062 28.3142 38.16 28.7062 38.16ZM33.8273 42.08V32.056H34.8913L35.0033 33.204C35.2273 32.868 35.5447 32.5647 35.9553 32.294C36.3753 32.0233 36.9073 31.888 37.5513 31.888C38.242 31.888 38.844 32.0467 39.3573 32.364C39.8707 32.6813 40.2673 33.1153 40.5473 33.666C40.8367 34.2167 40.9813 34.842 40.9813 35.542C40.9813 36.242 40.8367 36.8673 40.5473 37.418C40.2673 37.9593 39.866 38.3887 39.3433 38.706C38.83 39.014 38.228 39.168 37.5373 39.168C36.968 39.168 36.4593 39.0513 36.0113 38.818C35.5727 38.5847 35.2367 38.258 35.0033 37.838V42.08H33.8273ZM37.4113 38.146C37.878 38.146 38.2887 38.0387 38.6433 37.824C38.998 37.6 39.278 37.292 39.4833 36.9C39.6887 36.508 39.7913 36.0507 39.7913 35.528C39.7913 35.0053 39.6887 34.548 39.4833 34.156C39.278 33.764 38.998 33.4607 38.6433 33.246C38.2887 33.022 37.878 32.91 37.4113 32.91C36.9447 32.91 36.534 33.022 36.1793 33.246C35.8247 33.4607 35.5447 33.764 35.3393 34.156C35.134 34.548 35.0313 35.0053 35.0313 35.528C35.0313 36.0507 35.134 36.508 35.3393 36.9C35.5447 37.292 35.8247 37.6 36.1793 37.824C36.534 38.0387 36.9447 38.146 37.4113 38.146Z" fill="#1D1D1D"/>
<path d="M29.125 24.7867L25 24.7867L30 17.9999L35 24.7871L30.875 24.7871" stroke="black"/>
</svg>
