<svg width="22" height="22" viewBox="0 0 22 22" fill="none" xmlns="http://www.w3.org/2000/svg">
<g clip-path="url(#clip0_2901_136702)">
<path d="M21.7592 20.5917L16.1287 14.9612C17.2193 13.614 17.876 11.9021 17.876 10.0376C17.876 5.71632 14.3599 2.2002 10.0386 2.2002C5.71726 2.2002 2.20117 5.71629 2.20117 10.0376C2.20117 14.3589 5.7173 17.875 10.0386 17.875C11.9031 17.875 13.6149 17.2184 14.9621 16.1277L20.5927 21.7583C20.7536 21.9191 20.9648 22 21.176 22C21.3872 22 21.5984 21.9191 21.7593 21.7583C22.0818 21.4357 22.0818 20.9143 21.7592 20.5917ZM10.0386 16.225C6.62643 16.225 3.85117 13.4498 3.85117 10.0376C3.85117 6.62541 6.62643 3.85015 10.0386 3.85015C13.4508 3.85015 16.226 6.62541 16.226 10.0376C16.226 13.4498 13.4507 16.225 10.0386 16.225Z" fill="#1D1D1D"/>
</g>
<defs>
<clipPath id="clip0_2901_136702">
<rect width="22" height="22" fill="white"/>
</clipPath>
</defs>
</svg>
