<svg width="16" height="16" viewBox="0 0 16 16" fill="none" xmlns="http://www.w3.org/2000/svg">
<g clip-path="url(#clip0_3869_21747)">
<path d="M15.8178 15.438L11.571 11.1912C12.3936 10.1751 12.8889 8.88392 12.8889 7.47767C12.8889 4.21839 10.2369 1.56641 6.97764 1.56641C3.71836 1.56641 1.06641 4.21836 1.06641 7.47764C1.06641 10.7369 3.71839 13.3889 6.97767 13.3889C8.38392 13.3889 9.67507 12.8936 10.6912 12.071L14.938 16.3178C15.0593 16.4391 15.2186 16.5001 15.3779 16.5001C15.5372 16.5001 15.6965 16.4391 15.8178 16.3178C16.0611 16.0745 16.0611 15.6812 15.8178 15.438ZM6.97767 12.1444C4.40409 12.1444 2.31089 10.0512 2.31089 7.47764C2.31089 4.90406 4.40409 2.81086 6.97767 2.81086C9.55126 2.81086 11.6445 4.90406 11.6445 7.47764C11.6445 10.0512 9.55123 12.1444 6.97767 12.1444Z" fill="#1D1D1D"/>
</g>
<defs>
<clipPath id="clip0_3869_21747">
<rect width="16" height="16" fill="white" transform="translate(0 0.5)"/>
</clipPath>
</defs>
</svg>
