<svg width="22" height="22" viewBox="0 0 22 22" fill="none" xmlns="http://www.w3.org/2000/svg">
<path d="M20.4038 19.2377L14.7732 13.6072C15.8639 12.26 16.5205 10.5481 16.5205 8.68363C16.5205 4.36232 13.0044 0.846191 8.6831 0.846191C4.36179 0.846191 0.845703 4.36228 0.845703 8.68359C0.845703 13.0049 4.36183 16.521 8.68314 16.521C10.5476 16.521 12.2595 15.8643 13.6067 14.7737L19.2373 20.4043C19.3981 20.5651 19.6093 20.646 19.8205 20.646C20.0318 20.646 20.2429 20.5651 20.4038 20.4043C20.7264 20.0817 20.7264 19.5603 20.4038 19.2377ZM8.68314 14.871C5.27096 14.871 2.4957 12.0958 2.4957 8.68359C2.4957 5.27141 5.27096 2.49615 8.68314 2.49615C12.0953 2.49615 14.8706 5.27141 14.8706 8.68359C14.8706 12.0958 12.0953 14.871 8.68314 14.871Z" fill="#1D1D1D"/>
</svg>
