<svg xmlns="http://www.w3.org/2000/svg" width="34" height="31" viewBox="0 0 24 21" fill="none">
<path d="M24 13.1598C24 9.92981 20.6415 7.31104 16.5 7.31104C12.3585 7.31104 9 9.92981 9 13.1598C9 16.3897 12.3585 19.0085 16.5 19.0085C17.181 19.0085 17.829 18.9149 18.4575 18.7819L22.5 20.4707L21.102 17.7466C22.854 16.6763 24 15.0299 24 13.1598Z" fill="#73D4D4"/>
<path d="M9 0C4.029 0 0 3.27383 0 7.31092C0 9.63872 1.347 11.7033 3.4365 13.0398L2.25 15.3529L5.4825 14.0033C6.1755 14.2431 6.8955 14.4405 7.665 14.5327C7.56 14.0867 7.5 13.629 7.5 13.1597C7.5 9.12842 11.5365 5.84874 16.5 5.84874C16.9545 5.84874 17.3985 5.88529 17.8365 5.93793C17.0445 2.55736 13.392 0 9 0Z" fill="#73D4D4"/>
<ellipse cx="5.34614" cy="4.58812" rx="1.11176" ry="1.05882" fill="#FAFAFA"/>
<ellipse cx="11.2758" cy="4.58812" rx="1.11176" ry="1.05882" fill="#FAFAFA"/>
<ellipse cx="13.4985" cy="11.647" rx="1.11176" ry="1.05882" fill="#FAFAFA"/>
<ellipse cx="17.9457" cy="11.647" rx="1.11176" ry="1.05882" fill="#FAFAFA"/>
</svg>