<svg xmlns="http://www.w3.org/2000/svg" width="30" height="30" viewBox="0 0 30 30" fill="none">
<g clip-path="url(#clip0_964_224314)">
<path d="M22.5359 14.5498C22.1137 14.4236 21.8233 14.3367 22.0451 13.7824C22.5238 12.5762 22.5728 11.537 22.0535 10.795C21.0798 9.40429 18.415 9.47905 15.3609 10.7578C15.3609 10.7559 14.4021 11.1778 14.6471 10.4162C15.1171 8.90608 15.0461 7.64133 14.3152 6.91077C12.6583 5.25236 8.25204 6.97344 4.47238 10.7509C1.64321 13.5813 0 16.5808 0 19.1742C0 24.1352 6.36221 27.1514 12.5861 27.1514C20.7447 27.1514 26.1716 22.411 26.1716 18.6478C26.1719 16.3739 24.2567 15.0834 22.5359 14.5498ZM12.6025 25.3736C7.63657 25.8634 3.3494 23.6196 3.02677 20.3583C2.70446 17.0982 6.47016 14.0575 11.4352 13.5668C16.402 13.0751 20.6895 15.3198 21.0112 18.5795C21.3335 21.8411 17.569 24.8825 12.6025 25.3736Z" fill="#73D4D4"/>
<path d="M27.9526 5.47052C25.9828 3.2863 23.0764 2.45368 20.3942 3.02386H20.3933C19.7732 3.15632 19.377 3.76713 19.5101 4.38725C19.6423 5.00706 20.2528 5.40321 20.8735 5.27106C22.7813 4.8656 24.8471 5.45874 26.2477 7.01012C27.6471 8.56151 28.0271 10.6775 27.4277 12.5329L27.4281 12.5338C27.2326 13.1384 27.5633 13.7849 28.1685 13.98C28.7713 14.1752 29.4187 13.8445 29.6141 13.2424C29.6141 13.2414 29.6141 13.2392 29.6145 13.2377C30.4558 10.6269 29.924 7.65258 27.9526 5.47052Z" fill="#73D4D4"/>
<path d="M21.2451 7.01083C20.7106 7.12406 20.37 7.65049 20.4854 8.18499C20.5992 8.71732 21.125 9.05918 21.657 8.94316V8.94409C22.2964 8.80853 22.9888 9.00582 23.4581 9.52481C23.9275 10.0457 24.0538 10.7542 23.8524 11.3759H23.8531C23.6858 11.8952 23.9694 12.4529 24.4893 12.6217C25.0095 12.788 25.567 12.5044 25.7345 11.9839C26.1449 10.712 25.8887 9.26361 24.9273 8.2005C23.9675 7.13677 22.552 6.73318 21.2451 7.01083Z" fill="#73D4D4"/>
<path d="M13.0981 16.0752C10.7352 15.4601 8.0636 16.6376 7.03741 18.7204C5.99229 20.8442 7.00267 23.2012 9.39008 23.9727C11.8637 24.7699 14.7785 23.5477 15.7923 21.2555C16.7921 19.0142 15.5438 16.7071 13.0981 16.0752ZM11.2936 21.499C10.813 22.2653 9.78499 22.6009 9.00976 22.247C8.24632 21.8998 8.02079 21.0092 8.50163 20.2622C8.97595 19.5183 9.96957 19.1864 10.7392 19.5087C11.5163 19.8406 11.7654 20.7244 11.2936 21.499ZM12.876 19.4671C12.7023 19.7646 12.3182 19.9073 12.0173 19.7838C11.7214 19.6619 11.6286 19.33 11.7967 19.0381C11.9698 18.7477 12.339 18.606 12.634 18.7229C12.9343 18.8327 13.0416 19.169 12.876 19.4671Z" fill="#73D4D4"/>
</g>
<defs>
<clipPath id="clip0_964_224314">
<rect width="29.9997" height="30" fill="white"/>
</clipPath>
</defs>
</svg>