<svg xmlns="http://www.w3.org/2000/svg" width="1010" height="673.6" viewBox="0 0 1010 673.6"><defs><style>.a{fill:#844098;}.b{fill:#fff;}</style></defs><title>アートボード 2</title><circle class="a" cx="167.69" cy="445.5" r="12.71"/><path class="b" d="M171.18,441.27a1.94,1.94,0,1,1,1.81-1.94A1.88,1.88,0,0,1,171.18,441.27Zm0-3.12a1.19,1.19,0,1,0,1.06,1.18A1.12,1.12,0,0,0,171.18,438.15Z"/><path class="b" d="M162.43,447.4a1.94,1.94,0,1,1,1.81-1.93A1.88,1.88,0,0,1,162.43,447.4Zm0-3.12a1.2,1.2,0,1,0,1.06,1.19A1.13,1.13,0,0,0,162.43,444.28Z"/><polygon class="b" points="172.9 453.6 172.15 453.6 172.15 446.53 174.87 446.53 174.87 447.28 172.9 447.28 172.9 453.6"/><rect class="b" x="160.14" y="448.24" width="12.39" height="0.75"/><polygon class="b" points="175.25 453.6 174.5 453.6 174.5 447 172.4 442.94 169.97 444.85 169.51 444.27 172.65 441.79 175.25 446.82 175.25 453.6"/><polygon class="b" points="167.27 446.51 165.58 446.51 165.58 443.25 164.85 443.25 164.85 443.66 164.85 447.31 167.75 447.31 169.38 443.25 168.58 443.25 167.27 446.51"/></svg>