<svg xmlns="http://www.w3.org/2000/svg" width="1010" height="673.6" viewBox="0 0 1010 673.6"><defs><style>.a{fill:#5459a6;}.b{fill:#fff;}</style></defs><title>アートボード 2</title><circle class="a" cx="660.58" cy="364.06" r="12.71"/><polygon class="b" points="665.18 371.95 662.88 366.13 658.42 366.13 658.42 360.01 661.24 360.01 661.24 362.38 663.1 362.38 663.1 363.02 660.6 363.02 660.6 360.65 659.06 360.65 659.06 365.49 663.32 365.49 665.77 371.72 665.18 371.95"/><path class="b" d="M659.9,372.16a4.71,4.71,0,0,1-4.51-4.88,4.85,4.85,0,0,1,3.25-4.68l.19.61a4.21,4.21,0,0,0-2.8,4.07,4.07,4.07,0,0,0,3.87,4.24,4,4,0,0,0,3.8-3.45l.63.11A4.63,4.63,0,0,1,659.9,372.16Z"/><path class="b" d="M659.86,359.11a1.58,1.58,0,1,1,1.48-1.58A1.53,1.53,0,0,1,659.86,359.11Zm0-2.51a.94.94,0,0,0,0,1.87.94.94,0,0,0,0-1.87Z"/><circle class="a" cx="199.29" cy="452.55" r="12.71"/><polygon class="b" points="203.88 460.44 201.58 454.62 197.12 454.62 197.12 448.5 199.94 448.5 199.94 450.87 201.8 450.87 201.8 451.51 199.3 451.51 199.3 449.14 197.76 449.14 197.76 453.98 202.02 453.98 204.48 460.21 203.88 460.44"/><path class="b" d="M198.6,460.65a4.72,4.72,0,0,1-4.51-4.88,4.86,4.86,0,0,1,3.25-4.68l.19.61a4.23,4.23,0,0,0-2.8,4.07A4.07,4.07,0,0,0,198.6,460a4,4,0,0,0,3.8-3.45l.63.11A4.62,4.62,0,0,1,198.6,460.65Z"/><path class="b" d="M198.56,447.6A1.58,1.58,0,1,1,200,446,1.52,1.52,0,0,1,198.56,447.6Zm0-2.51a.94.94,0,1,0,.84.94A.9.9,0,0,0,198.56,445.09Z"/></svg>