<svg xmlns="http://www.w3.org/2000/svg" width="1010" height="673.6" viewBox="0 0 1010 673.6"><defs><style>.a{fill:#00a490;}.b{fill:#fff;}</style></defs><title>アートボード 2</title><circle class="a" cx="692.06" cy="344.63" r="12.71"/><rect class="b" x="684.25" y="338.79" width="7.29" height="1.21"/><rect class="b" x="692.57" y="338.79" width="7.29" height="1.21"/><rect class="b" x="695.91" y="349.73" width="0.61" height="2.47"/><polygon class="b" points="696.22 352.63 694.59 351.01 695.02 350.58 696.22 351.77 697.41 350.58 697.84 351.01 696.22 352.63"/><rect class="b" x="687.59" y="350.17" width="0.61" height="2.47"/><polygon class="b" points="689.09 351.8 687.9 350.6 686.7 351.8 686.27 351.37 687.9 349.75 689.52 351.37 689.09 351.8"/><path class="b" d="M699,349.31h-5.54V338.94H699Zm-4.94-.61h4.33v-9.15h-4.33Z"/><polygon class="b" points="697.76 345.8 694.67 345.8 694.67 345.19 697.16 345.19 697.16 344.75 694.67 344.75 694.67 343.1 697.76 343.1 697.76 343.71 695.28 343.71 695.28 344.15 697.76 344.15 697.76 345.8"/><rect class="b" x="695.91" y="342.62" width="0.61" height="3.77"/><path class="b" d="M685.65,340.41h.68V349h-.68a.22.22,0,0,1-.22-.21v-8.17A.21.21,0,0,1,685.65,340.41Z"/><path class="b" d="M690.36,340.62v8.17a.21.21,0,0,1-.21.21h-2.61v-8.59h2.61A.21.21,0,0,1,690.36,340.62Z"/><rect class="a" x="689.11" y="345.27" width="0.15" height="3.3"/><rect class="a" x="689.62" y="347.04" width="0.15" height="1.54"/></svg>