<svg xmlns="http://www.w3.org/2000/svg" width="1010" height="673.6" viewBox="0 0 1010 673.6"><defs><style>.a{fill:#ffcb57;}.b{fill:#221e1f;}</style></defs><title>アートボード 2</title><circle class="a" cx="334.99" cy="152.03" r="12.71"/><path class="b" d="M341.05,160.62H328.94V147.5h12.11Zm-11.5-.6h10.89V148.11H329.55Z"/><path d="M331.46,152.06a.77.77,0,0,0,.55-.25.88.88,0,0,0,.22-.58.91.91,0,0,0-.22-.59.72.72,0,0,0-.55-.24.7.7,0,0,0-.54.24.91.91,0,0,0-.22.59.88.88,0,0,0,.22.58A.74.74,0,0,0,331.46,152.06Zm-.22-1.08a.32.32,0,0,1,.22-.1.33.33,0,0,1,.23.1.42.42,0,0,1,.09.25.39.39,0,0,1-.09.24.33.33,0,0,1-.23.1.32.32,0,0,1-.22-.1.34.34,0,0,1-.09-.24A.37.37,0,0,1,331.24,151Z"/><polygon points="331.69 152.71 332.35 152.71 332.35 155.12 332.8 155.12 332.8 152.22 330.13 152.22 330.13 155.12 330.58 155.12 330.58 152.71 331.24 152.71 331.24 155.05 329.79 157.79 330.18 158.04 331.46 155.61 332.75 158.04 333.14 157.79 331.69 155.05 331.69 152.71"/><path d="M335,152.06a.73.73,0,0,0,.54-.25.84.84,0,0,0,.23-.58.87.87,0,0,0-.23-.59.68.68,0,0,0-.54-.24.7.7,0,0,0-.54.24.86.86,0,0,0-.22.59.83.83,0,0,0,.22.58A.74.74,0,0,0,335,152.06Zm-.22-1.08a.3.3,0,0,1,.22-.1.33.33,0,0,1,.23.1.42.42,0,0,1,.09.25.39.39,0,0,1-.09.24.33.33,0,0,1-.23.1.3.3,0,0,1-.22-.1.34.34,0,0,1-.09-.24A.37.37,0,0,1,334.77,151Z"/><polygon points="335.22 152.71 335.88 152.71 335.88 155.12 336.33 155.12 336.33 152.22 333.66 152.22 333.66 155.12 334.11 155.12 334.11 152.71 334.77 152.71 334.77 155.05 333.31 157.79 333.7 158.04 334.99 155.61 336.28 158.04 336.67 157.79 335.22 155.05 335.22 152.71"/><path d="M338.52,152.06a.74.74,0,0,0,.54-.25.83.83,0,0,0,.22-.58.86.86,0,0,0-.22-.59.73.73,0,0,0-1.08,0,.86.86,0,0,0-.22.59.83.83,0,0,0,.22.58A.74.74,0,0,0,338.52,152.06ZM338.3,151a.3.3,0,0,1,.22-.1.29.29,0,0,1,.22.1.37.37,0,0,1,.1.25.35.35,0,0,1-.1.24.29.29,0,0,1-.22.1.3.3,0,0,1-.22-.1.34.34,0,0,1-.09-.24A.37.37,0,0,1,338.3,151Z"/><polygon points="338.75 155.05 338.75 152.71 339.4 152.71 339.4 155.12 339.85 155.12 339.85 152.22 337.19 152.22 337.19 155.12 337.64 155.12 337.64 152.71 338.3 152.71 338.3 155.05 336.84 157.79 337.23 158.04 338.52 155.61 339.81 158.04 340.2 157.79 338.75 155.05"/><rect class="b" x="337.26" y="143.43" width="0.61" height="2.66"/><polygon class="b" points="337.56 146.54 335.94 144.78 336.39 144.37 337.56 145.64 338.73 144.37 339.18 144.78 337.56 146.54"/><rect class="b" x="332.12" y="143.91" width="0.61" height="2.66"/><polygon class="b" points="331.26 145.63 330.81 145.22 332.43 143.46 334.04 145.22 333.6 145.63 332.43 144.36 331.26 145.63"/></svg>