<svg xmlns="http://www.w3.org/2000/svg" width="1010" height="673.6" viewBox="0 0 1010 673.6"><defs><style>.a{fill:#e3218d;}.b{fill:#fff;}</style></defs><title>アートボード 2</title><circle class="a" cx="178.84" cy="474.24" r="12.71"/><path class="b" d="M175.08,469.29a1.58,1.58,0,1,1,1.48-1.57A1.52,1.52,0,0,1,175.08,469.29Zm0-2.54a1,1,0,1,0,.87,1A.93.93,0,0,0,175.08,466.75Z"/><polygon class="b" points="177.79 476.14 177.18 476.14 177.18 470.7 172.99 470.7 172.99 476.14 172.38 476.14 172.38 470.09 177.79 470.09 177.79 476.14"/><rect class="b" x="174.78" y="470.4" width="0.61" height="5.74"/><polygon class="b" points="178.03 482.34 175.08 476.79 172.14 482.34 171.6 482.06 175.08 475.49 178.56 482.06 178.03 482.34"/><path class="b" d="M182.59,469.3a1.58,1.58,0,1,1,1.47-1.58A1.53,1.53,0,0,1,182.59,469.3Zm0-2.54a1,1,0,1,0,.87,1A.92.92,0,0,0,182.59,466.76Z"/><polygon class="b" points="183.85 482.34 183.24 482.34 183.24 476.69 181.94 476.69 181.94 482.34 181.33 482.34 181.33 476.08 183.85 476.08 183.85 482.34"/><polygon class="b" points="185.54 476.85 182.59 471.3 179.65 476.85 179.11 476.57 182.59 470 186.07 476.57 185.54 476.85"/><circle class="a" cx="629.16" cy="364.06" r="12.71"/><path class="b" d="M629.16,359.11a1.58,1.58,0,1,1,1.48-1.57A1.52,1.52,0,0,1,629.16,359.11Zm0-2.54a1,1,0,1,0,.87,1A.92.92,0,0,0,629.16,356.57Z"/><polygon class="b" points="630.42 372.16 629.82 372.16 629.82 366.51 628.51 366.51 628.51 372.16 627.9 372.16 627.9 365.9 630.42 365.9 630.42 372.16"/><polygon class="b" points="632.11 366.67 629.16 361.12 626.22 366.67 625.68 366.38 629.16 359.82 632.64 366.38 632.11 366.67"/></svg>