<svg width="30" height="31" viewBox="0 0 30 31" fill="none" xmlns="http://www.w3.org/2000/svg">
<path d="M2.66952 20.2876L10.2119 27.8308C11.105 28.7239 12.5614 28.7231 13.4545 27.83L22.0639 19.205C22.9567 18.3122 22.9544 16.87 22.0631 15.9803L14.52 8.43718C13.6569 7.5741 12.1554 7.57481 11.2953 8.43642L2.66952 17.0466C1.77617 17.9399 1.77749 19.3972 2.66952 20.2876ZM12.3712 11.6642C12.6688 11.3666 13.1509 11.3666 13.4485 11.6642L14.5259 12.7415C14.8235 13.0391 14.8235 13.5213 14.5259 13.8189C14.2283 14.1165 13.7461 14.1165 13.4485 13.8189L12.3712 12.7415C12.0736 12.4439 12.0736 11.9618 12.3712 11.6642ZM10.2164 13.8189C10.514 13.5213 10.9962 13.5213 11.2938 13.8189L12.3712 14.8963C12.6688 15.1939 12.6688 15.6761 12.3712 15.9737C12.0736 16.2713 11.5914 16.2713 11.2938 15.9737L10.2164 14.8963C9.91879 14.5987 9.91879 14.1165 10.2164 13.8189ZM8.06163 15.9744C8.35922 15.6768 8.84141 15.6768 9.13901 15.9744L10.2164 17.0518C10.514 17.3494 10.514 17.8316 10.2164 18.1292C9.91879 18.4268 9.43661 18.4268 9.13901 18.1292L8.06163 17.0518C7.76403 16.7542 7.76403 16.272 8.06163 15.9744ZM5.90615 18.1292C6.20375 17.8316 6.68593 17.8316 6.98353 18.1292L8.06091 19.2066C8.35851 19.5042 8.35851 19.9863 8.06091 20.2839C7.76331 20.5815 7.28113 20.5815 6.98353 20.2839L5.90615 19.2066C5.6085 18.9089 5.6085 18.4268 5.90615 18.1292Z" fill="#73D4D4"/>
<path d="M24.2264 11.6676L18.8321 6.27329C17.969 5.41021 16.4683 5.41021 15.6067 6.27329L15.0586 6.8212L23.6788 15.4414L24.2264 14.8938C25.119 14.0013 25.119 12.5601 24.2264 11.6676Z" fill="#73D4D4"/>
<path d="M24.087 3.17168L22.7146 4.55524C21.6495 4.27212 20.5458 4.41089 19.582 4.86839L25.6299 10.9162C26.089 9.95029 26.2281 8.84832 25.9445 7.78521C25.9445 7.78521 27.3296 6.4113 27.3303 6.41058C28.2231 5.51773 28.2239 4.06387 27.3303 3.16878C26.4353 2.27659 24.9821 2.27659 24.087 3.17168Z" fill="#73D4D4"/>
</svg>
