<svg width="30" height="31" viewBox="0 0 30 31" fill="none" xmlns="http://www.w3.org/2000/svg">
<path d="M22.2556 15.6204C22.2556 14.7627 21.5579 14.0654 20.7002 14.0654C19.8425 14.0654 19.1448 14.7627 19.1448 15.6204V17.0483H14.9746V19.6971C16.628 19.7478 17.9575 21.1088 17.9575 22.7744C17.9575 24.44 16.628 25.801 14.9746 25.8512V28.5H26.4258V17.0483H22.2556V15.6204Z" fill="#73D4D4"/>
<path d="M6.17066 16.9326C6.17066 17.7902 6.8684 18.4875 7.72558 18.4875C8.58328 18.4875 9.28101 17.7902 9.28101 16.9326V15.5249H13.4517V11.2664H12.0237C11.166 11.2664 10.4688 10.5687 10.4688 9.71096C10.4688 8.85326 11.166 8.15553 12.0237 8.15553H13.4517V4.07373H2V15.5249H6.17066V16.9326Z" fill="#73D4D4"/>
<path d="M16.4346 22.7744C16.4346 21.9167 15.7373 21.219 14.8796 21.219H13.4517V17.0483H10.8024C10.741 18.6926 9.38461 20.0109 7.72558 20.0109C6.06707 20.0109 4.7107 18.6926 4.64926 17.0483H2V28.5H13.4517V24.3294H14.8796C15.7373 24.3294 16.4346 23.6316 16.4346 22.7744Z" fill="#73D4D4"/>
<path d="M18.7031 2.5V4.02344C22.9891 4.02344 26.4761 7.51038 26.4761 11.7964H27.9995C27.9995 6.67036 23.8291 2.5 18.7031 2.5Z" fill="#73D4D4"/>
<path d="M22.8302 11.7965H24.3536C24.3536 8.68079 21.8188 6.146 18.7031 6.146V7.66943C20.9788 7.66938 22.8302 9.52082 22.8302 11.7965Z" fill="#73D4D4"/>
</svg>
