<svg width="30" height="31" viewBox="0 0 30 31" fill="none" xmlns="http://www.w3.org/2000/svg">
<path d="M22.8788 2.50696C22.156 1.82667 21.231 1.5 20.2987 1.5C19.2492 1.5 18.1893 1.91378 17.3991 2.70504L17.06 3.04415L16.7209 2.704C15.9307 1.91378 14.8708 1.5 13.8213 1.5C12.889 1.5 11.964 1.82667 11.2412 2.50696C9.65141 4.00341 9.62341 6.50682 11.1562 8.03956L17.06 13.9434L22.9639 8.03956C24.4966 6.50682 24.4686 4.00341 22.8788 2.50696Z" fill="#73D4D4"/>
<path d="M28.6741 16.9498C27.7667 16.3349 26.6975 16.5091 25.7507 17.0556C24.8039 17.6021 19.3677 22.2501 19.3677 22.2501L14.0166 22.2512C13.7677 22.2512 13.4981 21.9712 13.4981 21.7233C13.4981 21.4319 13.7522 21.2048 14.0166 21.2048H17.2905C18.4365 21.2048 19.7193 20.4581 19.7193 19.1307C19.7193 17.7203 18.4365 17.0566 17.2905 17.0566C15.3025 17.0566 14.9157 17.0649 14.9157 17.0649C14.1193 17.0649 13.3114 17.0172 12.6892 16.6843C11.8596 16.2591 10.9034 16.0186 9.88297 16.0186C8.16978 16.0186 6.63601 16.702 5.58445 17.7794L0 23.2778L6.22223 29.5L8.2963 27.426H18.7984C19.8437 27.426 20.8528 27.0423 21.6336 26.3485L28.7446 18.3716C29.1791 17.9858 29.1542 17.2765 28.6741 16.9498Z" fill="#73D4D4"/>
</svg>
