<svg width="30" height="30" viewBox="0 0 30 30" fill="none" xmlns="http://www.w3.org/2000/svg">
<path d="M24.5551 7.00019C24.4642 6.99082 24.3726 6.99082 24.2817 7.00019H5.61505C5.49541 7.00203 5.37657 7.01997 5.26172 7.05352L14.8951 16.6469L24.5551 7.00019Z" fill="#73D4D4"/>
<path d="M25.5385 7.92676L15.8318 17.5934C15.582 17.8418 15.2441 17.9811 14.8918 17.9811C14.5396 17.9811 14.2016 17.8418 13.9518 17.5934L4.33182 8.00009C4.30225 8.10878 4.28657 8.22079 4.28516 8.33342V21.6668C4.28516 22.0204 4.42563 22.3595 4.67568 22.6096C4.92573 22.8596 5.26487 23.0001 5.61849 23.0001H24.2852C24.6388 23.0001 24.9779 22.8596 25.228 22.6096C25.478 22.3595 25.6185 22.0204 25.6185 21.6668V8.33342C25.6132 8.19453 25.5862 8.05731 25.5385 7.92676ZM6.53182 21.6668H5.60516V20.7134L10.4518 15.9068L11.3918 16.8468L6.53182 21.6668ZM24.2718 21.6668H23.3385L18.4785 16.8468L19.4185 15.9068L24.2652 20.7134L24.2718 21.6668Z" fill="#73D4D4"/>
</svg>
