<svg width="30" height="30" viewBox="0 0 30 30" fill="none" xmlns="http://www.w3.org/2000/svg">
<path d="M20.3693 24.9602C16.2947 24.9549 12.3885 23.334 9.50738 20.4528C6.62623 17.5717 5.00528 13.6655 5 9.59093C5 8.37337 5.48367 7.20568 6.34462 6.34473C7.20556 5.48379 8.37326 5.00011 9.59082 5.00011C9.84864 4.99815 10.106 5.02155 10.3593 5.06997C10.6041 5.1062 10.8448 5.16637 11.0778 5.24961C11.2418 5.30713 11.3878 5.40643 11.5016 5.53771C11.6154 5.66899 11.6929 5.82769 11.7265 5.99812L13.0938 11.9861C13.1307 12.1487 13.1262 12.3179 13.0809 12.4782C13.0356 12.6386 12.9508 12.7851 12.8343 12.9043C12.7046 13.044 12.6946 13.054 11.4671 13.6927C12.4501 15.8493 14.1748 17.5811 16.3273 18.573C16.976 17.3354 16.986 17.3255 17.1257 17.1957C17.245 17.0792 17.3914 16.9945 17.5518 16.9491C17.7122 16.9038 17.8814 16.8994 18.0439 16.9362L24.0319 18.3035C24.1969 18.3418 24.3494 18.4214 24.4751 18.5349C24.6008 18.6484 24.6956 18.792 24.7505 18.9522C24.8347 19.1891 24.8982 19.4329 24.9401 19.6807C24.9803 19.9316 25.0003 20.1852 25 20.4392C24.9816 21.6516 24.4843 22.8074 23.6167 23.6545C22.7491 24.5015 21.5817 24.9709 20.3693 24.9602Z" fill="#73D4D4"/>
</svg>
