<svg width="30" height="31" viewBox="0 0 30 31" fill="none" xmlns="http://www.w3.org/2000/svg">
<path d="M24.8234 9.22743H22.189L20.6531 5.33021C20.2223 4.23543 19.1414 3.5 17.9621 3.5H12.0379C10.8586 3.5 9.77679 4.23543 9.34779 5.32929L7.81007 9.22743H5.17664C3.42257 9.22743 2 10.6491 2 12.4041V25.0456C2 26.7997 3.42257 28.2223 5.17664 28.2223H24.8234C26.5774 28.2223 28 26.7997 28 25.0456V12.4041C28 10.6491 26.5774 9.22743 24.8234 9.22743ZM20.3885 20.3044C20.3885 20.5996 20.1489 20.8383 19.8546 20.8383H17.1144V23.5785C17.1144 23.8738 16.8757 24.1124 16.5804 24.1124H13.4196C13.1243 24.1124 12.8856 23.8729 12.8856 23.5785V20.8383H10.1454C9.85014 20.8383 9.6115 20.5996 9.6115 20.3044V17.1435C9.6115 16.8482 9.85107 16.6096 10.1454 16.6096H12.8856V13.8694C12.8856 13.5741 13.1243 13.3354 13.4196 13.3354H16.5804C16.8757 13.3354 17.1144 13.575 17.1144 13.8694V16.6096H19.8546C20.1499 16.6096 20.3885 16.8482 20.3885 17.1435V20.3044ZM9.60686 9.22743L10.9022 5.94121C11.0833 5.48064 11.5401 5.17143 12.0379 5.17143H17.9621C18.4599 5.17143 18.9158 5.48064 19.0978 5.94214L20.3931 9.22743H9.60686Z" fill="#73D4D4"/>
</svg>
