<svg width="23" height="15" viewBox="0 0 23 15" fill="none" xmlns="http://www.w3.org/2000/svg">
<path d="M21.1283 15H1.6421C1.20659 15 0.788912 14.827 0.480959 14.519C0.173006 14.2111 0 13.7934 0 13.3579V1.6421C0 1.20659 0.173006 0.788912 0.480959 0.480959C0.788912 0.173006 1.20659 0 1.6421 0H21.1283C21.5638 0 21.9815 0.173006 22.2894 0.480959C22.5974 0.788912 22.7704 1.20659 22.7704 1.6421V13.3601C22.7698 13.7952 22.5966 14.2123 22.2887 14.5198C21.9808 14.8273 21.5634 15 21.1283 15ZM1.6421 0.877974C1.43886 0.877974 1.24394 0.95871 1.10023 1.10242C0.956521 1.24613 0.875785 1.44105 0.875785 1.64429V13.3601C0.875785 13.5633 0.956521 13.7582 1.10023 13.902C1.24394 14.0457 1.43886 14.1264 1.6421 14.1264H21.1283C21.3315 14.1264 21.5265 14.0457 21.6702 13.902C21.8139 13.7582 21.8946 13.5633 21.8946 13.3601V1.6421C21.8946 1.43886 21.8139 1.24394 21.6702 1.10023C21.5265 0.95652 21.3315 0.875785 21.1283 0.875785L1.6421 0.877974Z" fill="#000"/>
<path d="M22.3325 6.10381H0.437892C0.321756 6.10381 0.210376 6.05768 0.128256 5.97556C0.046135 5.89344 0 5.78206 0 5.66592C0 5.54978 0.046135 5.4384 0.128256 5.35628C0.210376 5.27416 0.321756 5.22803 0.437892 5.22803H22.3325C22.4486 5.22803 22.56 5.27416 22.6421 5.35628C22.7243 5.4384 22.7704 5.54978 22.7704 5.66592C22.7704 5.78206 22.7243 5.89344 22.6421 5.97556C22.56 6.05768 22.4486 6.10381 22.3325 6.10381Z" fill="#000"/>
<path d="M7.40664 15.0003C7.29051 15.0003 7.17913 14.9541 7.09701 14.872C7.01489 14.7899 6.96875 14.6785 6.96875 14.5624V0.440334C6.96875 0.324197 7.01489 0.212818 7.09701 0.130697C7.17913 0.0485764 7.29051 0.00244141 7.40664 0.00244141C7.52278 0.00244141 7.63416 0.0485764 7.71628 0.130697C7.7984 0.212818 7.84453 0.324197 7.84453 0.440334V14.5624C7.84453 14.6785 7.7984 14.7899 7.71628 14.872C7.63416 14.9541 7.52278 15.0003 7.40664 15.0003Z" fill="#000"/>
<path d="M6.95441 6.10945C6.69797 6.10945 6.35998 6.10507 6.00391 6.0881C4.59335 6.02132 4.17845 5.82263 3.97428 5.65677C3.06374 4.91783 2.902 3.54805 3.61357 2.60467C3.78239 2.37749 3.99557 2.18695 4.24019 2.0446C4.48482 1.90224 4.7558 1.81104 5.03672 1.7765C5.31394 1.74257 5.59517 1.76532 5.86333 1.84337C6.13149 1.92142 6.381 2.05314 6.59671 2.23054C6.79869 2.39475 7.0814 2.76176 7.47961 4.15727C7.68734 4.88499 7.82746 5.5484 7.83321 5.57631C7.84657 5.63894 7.84604 5.70375 7.83164 5.76615C7.81724 5.82855 7.78932 5.88703 7.74987 5.93748C7.71041 5.98792 7.66037 6.02909 7.60327 6.0581C7.54617 6.0871 7.48341 6.10323 7.4194 6.10534C7.40517 6.10534 7.22563 6.10945 6.95441 6.10945ZM4.52603 4.97667C4.53862 4.98598 4.78411 5.15484 6.06084 5.21396C6.35094 5.22764 6.63092 5.23229 6.85863 5.23339C6.80197 4.99857 6.72781 4.7071 6.64269 4.40769C6.2765 3.12138 6.05537 2.91776 6.04634 2.90955C5.9215 2.80673 5.77707 2.73035 5.62182 2.68505C5.46656 2.63974 5.30373 2.62646 5.14318 2.64599C4.97894 2.66648 4.82057 2.72013 4.67769 2.80369C4.53481 2.88724 4.4104 2.99896 4.31201 3.13205C3.88205 3.70323 3.97757 4.53057 4.52603 4.97667Z" fill="#000"/>
<path d="M7.85804 6.10938C7.5871 6.10938 7.40729 6.10446 7.39278 6.10418C7.32882 6.10216 7.26608 6.08614 7.20897 6.05725C7.15187 6.02836 7.10179 5.98731 7.06226 5.93698C7.02274 5.88665 6.99472 5.82827 6.98019 5.76595C6.96566 5.70362 6.96496 5.63887 6.97815 5.57625C6.9839 5.54888 7.12403 4.88493 7.33148 4.15721C7.72969 2.76142 8.01267 2.39442 8.21438 2.23048C8.43013 2.05315 8.67964 1.92147 8.9478 1.84343C9.21595 1.76538 9.49715 1.74259 9.77437 1.77644C10.0553 1.81091 10.3263 1.9021 10.5709 2.04446C10.8156 2.18681 11.0287 2.37738 11.1975 2.6046C11.9091 3.54799 11.7476 4.91722 10.8371 5.65671C10.6329 5.82256 10.218 6.02126 8.80745 6.08804C8.45248 6.10528 8.11448 6.10938 7.85804 6.10938ZM9.5234 2.63717C9.24667 2.63805 8.97878 2.73476 8.7653 2.91086C8.75682 2.91852 8.53513 3.12241 8.1684 4.41283C8.08356 4.71114 8.00994 5.0007 7.95356 5.23387C8.18291 5.23387 8.46452 5.22785 8.756 5.21444C10.0286 5.15478 10.2736 4.98646 10.2862 4.97716C10.8335 4.53106 10.9301 3.70371 10.4994 3.13254C10.387 2.97915 10.2401 2.85438 10.0705 2.76832C9.90098 2.68226 9.71354 2.63733 9.5234 2.63717Z" fill="#000"/>
<path d="M4.47354 9.14734C4.38776 9.14706 4.30395 9.12158 4.23251 9.07407C4.16108 9.02657 4.10518 8.95913 4.07174 8.88013C4.03831 8.80113 4.02881 8.71405 4.04443 8.6297C4.06006 8.54535 4.10011 8.46744 4.15963 8.40566L7.09077 5.36231C7.17265 5.28493 7.28119 5.24209 7.39385 5.24268C7.5065 5.24328 7.61459 5.28726 7.69565 5.3655C7.7767 5.44374 7.82449 5.5502 7.82907 5.66276C7.83365 5.77533 7.79467 5.88532 7.72024 5.96989L4.7891 9.01324C4.74823 9.05567 4.69921 9.08942 4.64499 9.11246C4.59077 9.1355 4.53246 9.14737 4.47354 9.14734Z" fill="#000"/>
<path d="M10.3394 9.14734C10.2805 9.14733 10.2223 9.13545 10.1681 9.11241C10.1139 9.08936 10.065 9.05564 10.0241 9.01324L7.09161 5.96989C7.01718 5.88532 6.9782 5.77533 6.98278 5.66276C6.98736 5.5502 7.03515 5.44374 7.11621 5.3655C7.19726 5.28726 7.30535 5.24328 7.418 5.24268C7.53066 5.24209 7.63921 5.28493 7.72108 5.36231L10.6533 8.40566C10.7129 8.46753 10.753 8.54556 10.7686 8.63003C10.7842 8.71451 10.7745 8.8017 10.7409 8.88076C10.7073 8.95981 10.6512 9.02724 10.5796 9.07464C10.5079 9.12204 10.4239 9.14732 10.338 9.14734H10.3394Z" fill="#000"/>
</svg>
