<svg width="30" height="31" viewBox="0 0 30 31" fill="none" xmlns="http://www.w3.org/2000/svg">
<path d="M11.5384 2.02287C9.32617 2.49347 7.27499 3.53314 5.58756 5.03916C3.90013 6.54517 2.63485 8.46541 1.91674 10.6101C1.19863 12.7549 1.05254 15.0498 1.49292 17.2683C1.9333 19.4868 2.9449 21.5519 4.42776 23.2598C4.60439 23.4721 4.70882 23.7352 4.72593 24.0109C4.74305 24.2866 4.67195 24.5606 4.52294 24.7932L3.9256 25.7557C3.80348 25.9525 3.73617 26.1783 3.73064 26.4099C3.72512 26.6414 3.78157 26.8702 3.89417 27.0726C4.00676 27.275 4.1714 27.4437 4.37105 27.5611C4.5707 27.6785 4.7981 27.7404 5.02971 27.7404H13.8721C17.2314 27.7767 20.479 26.5348 22.957 24.2664C25.4349 21.9979 26.9582 18.8724 27.2181 15.523C27.3368 13.5243 26.9927 11.5252 26.2124 9.68131C25.4322 7.83741 24.2369 6.19847 22.7196 4.89209C21.2023 3.58572 19.404 2.64717 17.4647 2.14951C15.5253 1.65185 13.4973 1.60851 11.5384 2.02287ZM14.2453 6.47507C14.6048 6.4751 14.9562 6.58172 15.2551 6.78145C15.5539 6.98118 15.7869 7.26505 15.9244 7.59716C16.062 7.92928 16.0979 8.29472 16.0278 8.64728C15.9577 8.99984 15.7845 9.32368 15.5303 9.57785C15.2761 9.83203 14.9523 10.0051 14.5997 10.0752C14.2472 10.1454 13.8817 10.1094 13.5496 9.97178C13.2175 9.83421 12.9337 9.60125 12.734 9.30236C12.5343 9.00347 12.4277 8.65208 12.4277 8.29261C12.4277 7.81055 12.6192 7.34826 12.9601 7.00741C13.301 6.66656 13.7633 6.47507 14.2453 6.47507ZM15.699 21.8334H14.2453C14.0902 21.8334 13.9365 21.8029 13.7932 21.7435C13.6498 21.6842 13.5196 21.5972 13.4099 21.4875C13.3002 21.3777 13.2131 21.2475 13.1538 21.1041C13.0944 20.9608 13.0639 20.8071 13.0639 20.652V14.5632H12.7917C12.4783 14.5632 12.1778 14.4388 11.9563 14.2172C11.7347 13.9956 11.6102 13.6951 11.6102 13.3818C11.6102 13.0685 11.7347 12.768 11.9563 12.5464C12.1778 12.3249 12.4783 12.2004 12.7917 12.2004H14.2453C14.4005 12.2004 14.5541 12.2309 14.6975 12.2903C14.8408 12.3496 14.9711 12.4366 15.0808 12.5463C15.1905 12.6561 15.2775 12.7863 15.3369 12.9297C15.3963 13.073 15.4268 13.2267 15.4268 13.3818V19.4706H15.699C16.0124 19.4706 16.3129 19.595 16.5344 19.8166C16.756 20.0382 16.8804 20.3387 16.8804 20.652C16.8804 20.9653 16.756 21.2658 16.5344 21.4874C16.3129 21.7089 16.0124 21.8334 15.699 21.8334Z" fill="#73D4D4"/>
</svg>
