<svg width="30" height="30" viewBox="0 0 30 30" fill="none" xmlns="http://www.w3.org/2000/svg">
<path d="M15 14.8571C14.2422 14.8571 13.5155 14.5561 12.9797 14.0203C12.4439 13.4845 12.1429 12.7578 12.1429 12C12.1429 11.2422 12.4439 10.5155 12.9797 9.9797C13.5155 9.44388 14.2422 9.14286 15 9.14286C15.7578 9.14286 16.4845 9.44388 17.0203 9.9797C17.5561 10.5155 17.8571 11.2422 17.8571 12C17.8571 12.3752 17.7832 12.7467 17.6397 13.0934C17.4961 13.44 17.2856 13.755 17.0203 14.0203C16.755 14.2856 16.44 14.4961 16.0934 14.6397C15.7467 14.7832 15.3752 14.8571 15 14.8571ZM15 4C12.8783 4 10.8434 4.84285 9.34315 6.34315C7.84285 7.84344 7 9.87827 7 12C7 18 15 26.8571 15 26.8571C15 26.8571 23 18 23 12C23 9.87827 22.1571 7.84344 20.6569 6.34315C19.1566 4.84285 17.1217 4 15 4Z" fill="#73D4D4"/>
</svg>
