<svg width="30" height="31" viewBox="0 0 30 31" fill="none" xmlns="http://www.w3.org/2000/svg">
<path d="M20.5213 10.9014H20.3047V15.8297H20.5213C21.117 15.8297 21.5503 15.3422 21.5503 14.8007V11.9304C21.5503 11.3888 21.117 10.9014 20.5213 10.9014Z" fill="#73D4D4"/>
<path d="M6.44141 18.8086V23.7369C6.44141 24.9283 7.36208 25.849 8.55353 25.849C9.74499 25.849 10.6657 24.9283 10.6657 23.7369V18.8628H7.03713C6.82051 18.8086 6.60388 18.8086 6.44141 18.8086Z" fill="#73D4D4"/>
<path d="M2 13.2305C2 16.0466 4.2746 18.2671 7.03661 18.2671H12.8314V8.19385H7.03661C4.2746 8.19385 2 10.4684 2 13.2305Z" fill="#73D4D4"/>
<path d="M18.5721 4.61933L13.373 8.1937V18.2669L18.5721 21.8413C19.0595 22.1662 19.7094 21.8413 19.7094 21.2456V5.26921C19.7636 4.67349 19.0595 4.29439 18.5721 4.61933Z" fill="#73D4D4"/>
<path d="M23.6084 9.33086L26.2621 7.48951C26.6953 7.21873 26.8036 6.623 26.4787 6.18974C26.2079 5.75649 25.6122 5.64817 25.1789 5.97312L22.5794 7.81446C22.1461 8.08524 22.0378 8.68097 22.3628 9.11423C22.6335 9.49333 23.2293 9.60164 23.6084 9.33086Z" fill="#73D4D4"/>
<path d="M23.8792 17.4002C23.6084 16.9669 23.0127 16.8586 22.5794 17.1836C22.1461 17.4544 22.0378 18.0501 22.3628 18.4833L24.2041 21.137C24.4749 21.5703 25.0706 21.6786 25.5039 21.3537C25.9371 21.0829 26.0454 20.4871 25.7205 20.0539L23.8792 17.4002Z" fill="#73D4D4"/>
<path d="M27.0209 12.6887L23.7715 12.8512C23.2841 12.8512 22.8508 13.2845 22.905 13.826C22.905 14.3135 23.3382 14.7467 23.8798 14.6926L27.1292 14.5301C27.6167 14.5301 28.0499 14.0968 27.9957 13.5553C27.9957 13.0137 27.5625 12.6346 27.0209 12.6887Z" fill="#73D4D4"/>
</svg>
