<svg width="24" height="24" viewBox="0 0 24 24" fill="none" xmlns="http://www.w3.org/2000/svg">
<g clip-path="url(#clip0_883_38087)">
<path d="M12 24.0029C5.37534 23.9943 -0.00143735 18.639 2.8823e-07 12.0518C0.00143793 5.40554 5.37391 0.0071954 11.9928 7.19131e-06C18.6951 -0.00718102 24.0129 5.37535 24 12.1538C23.9885 18.6951 18.6031 24.0115 12 24.0029ZM11.9871 13.9681C12.1596 14.283 12.2717 14.4886 12.3853 14.6956C12.9848 15.7868 13.58 16.8851 14.4656 17.7793C15.3425 18.6649 16.4438 18.5542 17.1568 17.5464C17.4918 17.072 17.7348 16.553 17.903 16.0024C18.5542 13.8689 18.9467 11.6808 19.2055 9.47119C19.3075 8.59711 19.342 7.70577 18.9611 6.85756C18.4349 5.68444 17.2704 5.30203 16.172 5.9691C15.5237 6.36301 15.0492 6.93807 14.6179 7.54044C13.8948 8.55254 13.2019 9.5862 12.4974 10.6112C12.1553 11.1096 11.8074 11.101 11.4537 10.5854C10.9692 9.87373 10.5034 9.14772 10.0046 8.44615C9.36911 7.55194 8.78831 6.6031 7.83084 5.9921C6.70085 5.27184 5.44004 5.69882 4.97999 6.95532C4.85492 7.2946 4.74997 7.64251 4.7586 8.00336C4.83623 11.0627 5.34659 14.053 6.46508 16.9024C7.17959 18.721 8.7308 18.8633 9.93842 17.3207C10.7219 16.3201 11.3531 15.2232 11.9856 13.9667L11.9871 13.9681Z" fill="#73D4D4"/>
<path d="M11.9873 13.9682C11.3533 15.2247 10.7222 16.3216 9.94009 17.3222C8.73247 18.8648 7.17981 18.7225 6.46674 16.9039C5.34826 14.0545 4.83789 11.0656 4.76026 8.00489C4.75164 7.64404 4.85658 7.29613 4.98166 6.95684C5.4417 5.70035 6.70252 5.27193 7.8325 5.99362C8.78997 6.60462 9.36934 7.55347 10.0062 8.44768C10.5051 9.14925 10.9709 9.87526 11.4554 10.5869C11.8071 11.1035 12.155 11.1121 12.4991 10.6128C13.2035 9.58773 13.8965 8.55407 14.6196 7.54197C15.0509 6.93816 15.5253 6.36454 16.1737 5.97062C17.2721 5.30356 18.4366 5.68453 18.9627 6.85909C19.3423 7.70729 19.3092 8.59863 19.2071 9.47272C18.9484 11.6824 18.5573 13.8705 17.9046 16.0039C17.7364 16.5545 17.4935 17.0735 17.1585 17.548C16.4454 18.5557 15.3442 18.6664 14.4672 17.7809C13.5816 16.8866 12.9865 15.7883 12.387 14.6971C12.2734 14.4915 12.1612 14.2845 11.9887 13.9697L11.9873 13.9682ZM17.6545 8.36717C17.6329 8.00632 17.6947 7.55778 17.3224 7.40395C16.917 7.23575 16.7531 7.73605 16.4699 7.92294C16.4124 7.96032 16.3793 8.03364 16.3347 8.08971C15.3054 9.37927 14.4342 10.781 13.4911 12.1324C13.284 12.4299 13.3171 12.7045 13.4609 13.0064C13.9655 14.0645 14.5046 15.104 15.2249 16.0341C15.3729 16.2268 15.4578 16.5862 15.7798 16.5028C16.0472 16.4338 16.1119 16.1074 16.1938 15.8674C17.0262 13.4349 17.3885 10.9118 17.653 8.36861L17.6545 8.36717ZM6.44374 9.01555C6.46818 10.3008 6.84772 11.714 7.11081 13.1459C7.29626 14.1594 7.52916 15.1586 7.92595 16.1132C8.12003 16.5819 8.31843 16.7745 8.7224 16.2268C9.48148 15.1988 10.0853 14.0919 10.623 12.9403C10.7279 12.716 10.794 12.5119 10.623 12.2718C9.58355 10.8112 8.6649 9.26282 7.5076 7.887C7.32214 7.6656 7.11656 7.32919 6.7514 7.45283C6.37186 7.58078 6.47106 7.96176 6.44805 8.25935C6.43368 8.44912 6.44518 8.64176 6.44518 9.01555H6.44374Z" fill="#FDFAF6"/>
<path d="M17.6524 8.36707C17.3864 10.9088 17.0241 13.4333 16.1932 15.8658C16.1112 16.1073 16.0465 16.4322 15.7791 16.5012C15.4585 16.5846 15.3723 16.2252 15.2242 16.0326C14.5039 15.1024 13.9634 14.063 13.4602 13.0049C13.3164 12.703 13.2834 12.4284 13.4904 12.1308C14.4335 10.7794 15.3047 9.37773 16.334 8.08817C16.3786 8.0321 16.4117 7.95878 16.4692 7.9214C16.7524 7.73594 16.9163 7.23564 17.3217 7.40241C17.6941 7.55624 17.6322 8.00478 17.6538 8.36563L17.6524 8.36707Z" fill="#73D4D4"/>
<path d="M6.44186 9.01551C6.44186 8.64173 6.43035 8.44908 6.44473 8.25932C6.46773 7.96029 6.3671 7.58075 6.74807 7.4528C7.11323 7.32916 7.31882 7.66557 7.50427 7.88697C8.66157 9.26279 9.58023 10.8111 10.6196 12.2718C10.7907 12.5119 10.7246 12.716 10.6196 12.9403C10.082 14.0904 9.47816 15.1988 8.71908 16.2267C8.3151 16.7745 8.11671 16.5818 7.92263 16.1132C7.52728 15.1586 7.29438 14.1594 7.10748 13.1459C6.84583 11.714 6.4663 10.3008 6.44042 9.01551H6.44186Z" fill="#73D4D4"/>
</g>
<defs>
<clipPath id="clip0_883_38087">
<rect width="24" height="24.0029" fill="white"/>
</clipPath>
</defs>
</svg>
