<svg width="20" height="22" viewBox="0 0 20 22" fill="none" xmlns="http://www.w3.org/2000/svg">
<path d="M19.9861 21.4521L18.3422 6.13699C18.3148 5.89041 18.0957 5.69863 17.8491 5.69863H14.808V4.76712C14.808 2.13699 12.671 0 10.0409 0C7.41073 0 5.27375 2.13699 5.27375 4.76712V5.69863H2.15046C1.90389 5.69863 1.68471 5.89041 1.65731 6.13699L0.0134745 21.4521C-0.0139228 21.589 0.0408717 21.726 0.123064 21.8356C0.205255 21.9452 0.342242 22 0.479228 22H19.5203C19.6573 22 19.7943 21.9452 19.8765 21.8356C19.9587 21.726 20.0135 21.589 19.9861 21.4521ZM14.3148 8.46575C14.5614 8.46575 14.7532 8.65753 14.7532 8.90411C14.7532 9.15069 14.5614 9.34247 14.3148 9.34247C14.0683 9.34247 13.8765 9.15069 13.8765 8.90411C13.8765 8.65753 14.0683 8.46575 14.3148 8.46575ZM6.26005 4.76712C6.26005 2.68493 7.95868 0.986301 10.0409 0.986301C12.1231 0.986301 13.8217 2.68493 13.8217 4.76712V5.69863H6.26005V4.76712ZM5.7669 8.46575C6.01347 8.46575 6.20526 8.65753 6.20526 8.90411C6.20526 9.15069 6.01347 9.34247 5.7669 9.34247C5.52032 9.34247 5.32854 9.15069 5.32854 8.90411C5.32854 8.65753 5.52032 8.46575 5.7669 8.46575ZM1.05457 20.9863L2.58882 6.65753H5.27375V7.56164C4.7258 7.75342 4.34224 8.27397 4.34224 8.87671C4.34224 9.64384 4.97238 10.274 5.7395 10.274C6.50663 10.274 7.13676 9.64384 7.13676 8.87671C7.13676 8.27397 6.7532 7.75342 6.20526 7.56164V6.65753H13.7669V7.56164C13.219 7.75342 12.8354 8.27397 12.8354 8.87671C12.8354 9.64384 13.4655 10.274 14.2327 10.274C14.9998 10.274 15.6299 9.64384 15.6299 8.87671C15.6299 8.27397 15.2464 7.75342 14.6984 7.56164V6.65753H17.4929L19.0272 20.9863H1.05457Z" fill="#73D4D4"/>
</svg>
