<svg width="31" height="30" viewBox="0 0 31 30" fill="none" xmlns="http://www.w3.org/2000/svg">
<g clip-path="url(#clip0_2901_115633)">
<path d="M24.1767 19.9266C23.6329 19.9286 23.0952 20.0405 22.5958 20.2556C22.0963 20.4706 21.6455 20.7843 21.2703 21.1779L11.4287 16.2531C11.6708 15.5191 11.6708 14.7266 11.4287 13.9926L21.2864 8.97896C21.9925 9.72303 22.95 10.178 23.9728 10.2554C24.9957 10.3328 26.0108 10.0272 26.8208 9.39789C27.6309 8.76858 28.178 7.86057 28.3558 6.85034C28.5337 5.84011 28.3296 4.79984 27.7832 3.93172C27.2368 3.06359 26.3871 2.42964 25.3993 2.15308C24.4115 1.87652 23.3562 1.9771 22.4385 2.43529C21.5207 2.89347 20.8061 3.67651 20.4335 4.63223C20.061 5.58794 20.0571 6.64804 20.4225 7.60648L10.6618 12.5716C10.1346 11.9269 9.42094 11.4611 8.61862 11.2379C7.8163 11.0147 6.96458 11.0451 6.18021 11.3249C5.39585 11.6048 4.71724 12.1204 4.23741 12.801C3.75757 13.4817 3.5 14.2941 3.5 15.1269C3.5 15.9597 3.75757 16.7721 4.23741 17.4528C4.71724 18.1334 5.39585 18.649 6.18021 18.9289C6.96458 19.2087 7.8163 19.2391 8.61862 19.0159C9.42094 18.7927 10.1346 18.3268 10.6618 17.6821L20.3983 22.5827C20.2338 23.0245 20.1491 23.4919 20.1481 23.9633C20.1481 24.7617 20.3848 25.5421 20.8284 26.206C21.2719 26.8698 21.9024 27.3872 22.64 27.6927C23.3776 27.9982 24.1893 28.0782 24.9723 27.9224C25.7553 27.7667 26.4746 27.3822 27.0392 26.8177C27.6037 26.2531 27.9882 25.5338 28.1439 24.7508C28.2997 23.9678 28.2197 23.1561 27.9142 22.4185C27.6087 21.6809 27.0913 21.0504 26.4275 20.6069C25.7636 20.1633 24.9832 19.9266 24.1848 19.9266H24.1767Z" fill="#73D4D4"/>
</g>
<defs>
<clipPath id="clip0_2901_115633">
<rect width="30" height="30" fill="white" transform="translate(0.5)"/>
</clipPath>
</defs>
</svg>
