<svg width="31" height="30" viewBox="0 0 31 30" fill="none" xmlns="http://www.w3.org/2000/svg">
<path d="M22.25 27.5001C17.1466 27.4935 12.2541 25.4633 8.6455 21.8546C5.03686 18.246 3.00661 13.3535 3 8.25014C3 6.72515 3.6058 5.26261 4.68414 4.18428C5.76247 3.10594 7.22501 2.50014 8.75 2.50014C9.07293 2.49768 9.39531 2.52699 9.7125 2.58764C10.0191 2.63302 10.3206 2.70838 10.6125 2.81264C10.8178 2.88468 11.0008 3.00906 11.1433 3.17348C11.2858 3.33791 11.3829 3.53668 11.425 3.75014L13.1375 11.2501C13.1837 11.4537 13.1781 11.6656 13.1213 11.8665C13.0646 12.0674 12.9584 12.2508 12.8125 12.4001C12.65 12.5751 12.6375 12.5876 11.1 13.3876C12.3312 16.0887 14.4915 18.2578 17.1875 19.5001C18 17.9501 18.0125 17.9376 18.1875 17.7751C18.3368 17.6293 18.5203 17.5231 18.7211 17.4663C18.922 17.4095 19.1339 17.404 19.3375 17.4501L26.8375 19.1626C27.0441 19.2106 27.2352 19.3103 27.3926 19.4525C27.5501 19.5946 27.6687 19.7745 27.7375 19.9751C27.843 20.2718 27.9225 20.5772 27.975 20.8876C28.0253 21.2018 28.0504 21.5195 28.05 21.8376C28.027 23.3561 27.4041 24.8038 26.3175 25.8647C25.2308 26.9256 23.7686 27.5135 22.25 27.5001Z" fill="#73D4D4"/>
</svg>
