<svg width="17" height="30" viewBox="0 0 17 30" fill="none" xmlns="http://www.w3.org/2000/svg">
<g clip-path="url(#clip0_964_224312)">
<path d="M16.1676 0C16.478 0.209538 16.5837 0.494769 16.58 0.864923C16.5649 2.23385 16.5771 3.60277 16.5724 4.97169C16.5696 5.61969 16.3639 5.80892 15.6883 5.81354C14.7447 5.82 13.8001 5.79692 12.8584 5.83661C11.695 5.88554 11.193 6.31754 11.1269 7.42431C11.0609 8.52369 11.1128 9.62954 11.1128 10.788C11.3591 10.788 11.5742 10.788 11.7893 10.788C13.0471 10.788 14.305 10.7852 15.5628 10.7898C16.1704 10.7917 16.3875 10.9994 16.3894 11.5957C16.395 13.1188 16.395 14.6409 16.3865 16.164C16.3837 16.7197 16.1516 16.944 15.575 16.9477C14.27 16.956 12.965 16.9505 11.6601 16.9505C11.4912 16.9505 11.3213 16.9505 11.0901 16.9505C11.0901 17.1822 11.0901 17.3612 11.0901 17.5412C11.0901 21.3868 11.0864 25.2314 11.0967 29.0769C11.0977 29.4582 11.0118 29.7674 10.6957 29.9991H5.0332C4.66331 29.7757 4.62085 29.4305 4.62179 29.0418C4.62934 25.2129 4.62651 21.3849 4.62651 17.556C4.62651 17.3751 4.62651 17.1942 4.62651 16.9505C4.40665 16.9505 4.23963 16.9505 4.07262 16.9505C2.98843 16.9505 1.9033 16.9569 0.819106 16.9468C0.231246 16.9412 0.0104455 16.7308 0.00761469 16.1695C6.59369e-05 14.6317 6.59369e-05 13.0938 0.00761469 11.5569C0.0104455 10.9865 0.221811 10.7917 0.819106 10.7898C2.05993 10.7843 3.30076 10.788 4.62745 10.788C4.62745 10.5849 4.62368 10.4086 4.62745 10.2323C4.66425 8.78861 4.60669 7.33569 4.76144 5.904C5.09642 2.79969 7.51296 0.480923 10.6655 0.0923077C10.8033 0.0756923 10.9363 0.0313846 11.0722 0H16.1676Z" fill="#73D4D4"/>
</g>
<defs>
<clipPath id="clip0_964_224312">
<rect width="16.5789" height="30" fill="white"/>
</clipPath>
</defs>
</svg>
