<svg width="593" height="593" viewBox="0 0 593 593" fill="none" xmlns="http://www.w3.org/2000/svg">
<mask id="mask0_2901_7389" style="mask-type:alpha" maskUnits="userSpaceOnUse" x="0" y="39" width="593" height="515">
<path d="M593 296.5L444.75 553.276L148.25 553.276L-1.29604e-05 296.5L148.25 39.7235L444.75 39.7235L593 296.5Z" fill="#D9D9D9"/>
</mask>
<g mask="url(#mask0_2901_7389)">
<path d="M167.977 -19.0522V98.0231" stroke="white" stroke-width="3"/>
<path d="M217.676 9.0459L116.466 67.8958" stroke="white" stroke-width="3"/>
<path d="M116.992 9.0459L218.202 67.8958" stroke="white" stroke-width="3"/>
<path d="M196.078 38.3147L181.444 63.7523L152.176 63.9324L137.542 38.6749L152.176 13.2373L181.444 13.0572L196.078 38.3147Z" fill="#F6F6F6"/>
<path d="M240.566 -61.1992V55.8761" stroke="white" stroke-width="3"/>
<path d="M240.566 23.0952V140.171" stroke="white" stroke-width="3"/>
<path d="M290.262 51.1934L189.052 110.043" stroke="white" stroke-width="3"/>
<path d="M223.004 73.438L290.779 110.039" stroke="white" stroke-width="3"/>
<path d="M268.664 80.4622L254.03 105.9L224.762 106.08L210.127 80.8223L224.762 55.3848L254.03 55.2047L268.664 80.4622Z" fill="#F6F6F6"/>
<path d="M313.156 -19.0522V98.0231" stroke="white" stroke-width="3"/>
<path d="M362.852 9.0459L261.642 67.8958" stroke="white" stroke-width="3"/>
<path d="M262.168 9.0459L363.377 67.8958" stroke="white" stroke-width="3"/>
<path d="M341.254 38.3147L326.62 63.7523L297.351 63.9324L282.717 38.6749L297.351 13.2373L326.62 13.0572L341.254 38.3147Z" fill="#F6F6F6"/>
<path d="M385.738 23.0952V140.171" stroke="white" stroke-width="3"/>
<path d="M435.434 51.1934L334.224 110.043" stroke="white" stroke-width="3"/>
<path d="M334.75 51.1934L435.959 110.043" stroke="white" stroke-width="3"/>
<path d="M413.836 80.4622L399.202 105.9L369.934 106.08L355.299 80.8223L369.934 55.3848L399.202 55.2047L413.836 80.4622Z" fill="#F6F6F6"/>
<path d="M458.328 65.2417V182.317" stroke="white" stroke-width="3"/>
<path d="M508.023 93.3398L406.814 152.19" stroke="white" stroke-width="3"/>
<path d="M407.336 93.3398L508.545 152.19" stroke="white" stroke-width="3"/>
<path d="M486.426 122.609L471.792 148.046L442.523 148.226L427.889 122.969L442.523 97.5312L471.792 97.3512L486.426 122.609Z" fill="#F6F6F6"/>
<path d="M530.914 107.389V224.465" stroke="white" stroke-width="3"/>
<path d="M580.609 135.487L479.4 194.337" stroke="white" stroke-width="3"/>
<path d="M479.926 135.487L581.135 194.337" stroke="white" stroke-width="3"/>
<path d="M559.012 164.756L544.378 190.194L515.109 190.374L500.475 165.116L515.109 139.679L544.378 139.499L559.012 164.756Z" fill="#F6F6F6"/>
<path d="M653.195 177.635L551.986 236.485" stroke="white" stroke-width="3"/>
<path d="M552.512 177.635L653.721 236.485" stroke="white" stroke-width="3"/>
<path d="M631.594 206.904L616.96 232.341L587.691 232.521L573.057 207.264L587.691 181.826L616.96 181.646L631.594 206.904Z" fill="#F6F6F6"/>
<path d="M313.156 65.2422V182.318" stroke="white" stroke-width="3"/>
<path d="M362.852 93.3403L261.642 152.19" stroke="white" stroke-width="3"/>
<path d="M295.593 115.584L363.369 152.186" stroke="white" stroke-width="3"/>
<path d="M341.254 122.609L326.62 148.047L297.351 148.227L282.717 122.969L297.351 97.5317L326.62 97.3517L341.254 122.609Z" fill="#F6F6F6"/>
<path d="M385.738 107.389V224.465" stroke="white" stroke-width="3"/>
<path d="M435.434 135.487L334.224 194.337" stroke="white" stroke-width="3"/>
<path d="M368.175 157.731L435.951 194.333" stroke="white" stroke-width="3"/>
<path d="M413.836 164.756L399.202 190.194L369.934 190.374L355.299 165.116L369.934 139.679L399.202 139.499L413.836 164.756Z" fill="#F6F6F6"/>
<path d="M458.328 149.537V266.612" stroke="white" stroke-width="3"/>
<path d="M508.023 177.635L406.814 236.485" stroke="white" stroke-width="3"/>
<path d="M440.765 199.879L508.541 236.48" stroke="white" stroke-width="3"/>
<path d="M486.426 206.904L471.792 232.341L442.523 232.521L427.889 207.264L442.523 181.826L471.792 181.646L486.426 206.904Z" fill="#F6F6F6"/>
<path d="M530.914 191.684V308.759" stroke="white" stroke-width="3"/>
<path d="M580.609 219.781L479.4 278.631" stroke="white" stroke-width="3"/>
<path d="M513.351 242.026L581.127 278.627" stroke="white" stroke-width="3"/>
<path d="M559.012 249.05L544.378 274.488L515.109 274.668L500.475 249.41L515.109 223.973L544.378 223.793L559.012 249.05Z" fill="#F6F6F6"/>
<path d="M653.195 261.929L551.986 320.779" stroke="white" stroke-width="3"/>
<path d="M585.937 284.173L653.713 320.775" stroke="white" stroke-width="3"/>
<path d="M631.594 291.198L616.96 316.635L587.691 316.815L573.057 291.558L587.691 266.12L616.96 265.94L631.594 291.198Z" fill="#F6F6F6"/>
<path d="M95.3945 107.389V224.464" stroke="white" stroke-width="3"/>
<path d="M145.09 135.487L43.8805 194.337" stroke="white" stroke-width="3"/>
<path d="M44.4062 135.487L145.616 194.337" stroke="white" stroke-width="3"/>
<path d="M123.492 164.756L108.858 190.193L79.5898 190.373L64.9556 165.116L79.5898 139.678L108.858 139.498L123.492 164.756Z" fill="#F6F6F6"/>
<path d="M167.977 65.2417V182.317" stroke="white" stroke-width="3"/>
<path d="M217.676 93.3398L116.466 152.19" stroke="white" stroke-width="3"/>
<path d="M116.992 93.3398L218.202 152.19" stroke="white" stroke-width="3"/>
<path d="M196.078 122.609L181.444 148.046L152.176 148.226L137.542 122.969L152.176 97.5312L181.444 97.3512L196.078 122.609Z" fill="#F6F6F6"/>
<path d="M167.977 149.536V266.611" stroke="white" stroke-width="3"/>
<path d="M217.676 177.634L116.466 236.484" stroke="white" stroke-width="3"/>
<path d="M150.418 199.878L218.193 236.48" stroke="white" stroke-width="3"/>
<path d="M196.078 206.903L181.444 232.341L152.176 232.521L137.542 207.263L152.176 181.826L181.444 181.646L196.078 206.903Z" fill="#F6F6F6"/>
<path d="M240.562 107.389V224.464" stroke="white" stroke-width="3"/>
<path d="M290.258 135.487L189.048 194.337" stroke="white" stroke-width="3"/>
<path d="M189.574 135.487L290.784 194.337" stroke="white" stroke-width="3"/>
<path d="M268.66 164.756L254.026 190.193L224.758 190.373L210.124 165.116L224.758 139.678L254.026 139.498L268.66 164.756Z" fill="#F6F6F6"/>
<path d="M313.152 149.536V266.611" stroke="white" stroke-width="3"/>
<path d="M362.848 177.634L261.638 236.484" stroke="white" stroke-width="3"/>
<path d="M262.164 177.634L363.373 236.484" stroke="white" stroke-width="3"/>
<path d="M341.25 206.903L326.616 232.341L297.348 232.521L282.713 207.263L297.348 181.826L326.616 181.646L341.25 206.903Z" fill="#F6F6F6"/>
<path d="M385.738 191.683V308.758" stroke="white" stroke-width="3"/>
<path d="M435.434 219.781L334.224 278.631" stroke="white" stroke-width="3"/>
<path d="M334.75 219.781L435.959 278.631" stroke="white" stroke-width="3"/>
<path d="M413.836 249.05L399.202 274.488L369.934 274.668L355.299 249.41L369.934 223.973L399.202 223.793L413.836 249.05Z" fill="#F6F6F6"/>
<path d="M458.328 233.83V350.905" stroke="white" stroke-width="3"/>
<path d="M508.023 261.928L406.814 320.778" stroke="white" stroke-width="3"/>
<path d="M407.336 261.928L508.545 320.778" stroke="white" stroke-width="3"/>
<path d="M486.426 291.197L471.792 316.634L442.523 316.814L427.889 291.557L442.523 266.119L471.792 265.939L486.426 291.197Z" fill="#F6F6F6"/>
<path d="M530.91 275.978V393.053" stroke="white" stroke-width="3"/>
<path d="M580.605 304.076L479.396 362.926" stroke="white" stroke-width="3"/>
<path d="M479.922 304.076L581.131 362.926" stroke="white" stroke-width="3"/>
<path d="M559.008 333.344L544.374 358.782L515.105 358.962L500.471 333.704L515.105 308.267L544.374 308.087L559.008 333.344Z" fill="#F6F6F6"/>
<path d="M653.199 346.223L551.99 405.073" stroke="white" stroke-width="3"/>
<path d="M552.516 346.223L653.725 405.073" stroke="white" stroke-width="3"/>
<path d="M631.598 375.491L616.964 400.929L587.695 401.109L573.061 375.852L587.695 350.414L616.964 350.234L631.598 375.491Z" fill="#F6F6F6"/>
<path d="M240.562 191.683V308.758" stroke="white" stroke-width="3"/>
<path d="M290.258 219.781L189.048 278.631" stroke="white" stroke-width="3"/>
<path d="M223 242.026L290.775 278.627" stroke="white" stroke-width="3"/>
<path d="M268.66 249.05L254.026 274.488L224.758 274.668L210.124 249.41L224.758 223.973L254.026 223.793L268.66 249.05Z" fill="#F6F6F6"/>
<path d="M313.152 233.83V350.905" stroke="white" stroke-width="3"/>
<path d="M362.848 261.929L261.638 320.779" stroke="white" stroke-width="3"/>
<path d="M295.59 284.173L363.365 320.775" stroke="white" stroke-width="3"/>
<path d="M341.25 291.197L326.616 316.634L297.348 316.814L282.713 291.557L297.348 266.119L326.616 265.939L341.25 291.197Z" fill="#F6F6F6"/>
<path d="M385.738 275.978V393.053" stroke="white" stroke-width="3"/>
<path d="M435.434 304.076L334.224 362.926" stroke="white" stroke-width="3"/>
<path d="M368.175 326.321L435.951 362.922" stroke="white" stroke-width="3"/>
<path d="M413.836 333.344L399.202 358.782L369.934 358.962L355.299 333.704L369.934 308.267L399.202 308.087L413.836 333.344Z" fill="#F6F6F6"/>
<path d="M458.328 318.125V435.2" stroke="white" stroke-width="3"/>
<path d="M508.023 346.223L406.814 405.073" stroke="white" stroke-width="3"/>
<path d="M440.765 368.467L508.541 405.069" stroke="white" stroke-width="3"/>
<path d="M486.426 375.491L471.792 400.929L442.523 401.109L427.889 375.852L442.523 350.414L471.792 350.234L486.426 375.491Z" fill="#F6F6F6"/>
<path d="M530.91 360.271V477.347" stroke="white" stroke-width="3"/>
<path d="M580.605 388.369L479.396 447.219" stroke="white" stroke-width="3"/>
<path d="M513.347 410.614L581.123 447.215" stroke="white" stroke-width="3"/>
<path d="M559.008 417.638L544.374 443.076L515.105 443.256L500.471 417.998L515.105 392.561L544.374 392.38L559.008 417.638Z" fill="#F6F6F6"/>
<path d="M653.199 430.517L551.99 489.366" stroke="white" stroke-width="3"/>
<path d="M585.941 452.761L653.717 489.362" stroke="white" stroke-width="3"/>
<path d="M631.598 459.785L616.964 485.223L587.695 485.403L573.061 460.146L587.695 434.708L616.964 434.528L631.598 459.785Z" fill="#F6F6F6"/>
<path d="M22.8047 233.831V350.906" stroke="white" stroke-width="3"/>
<path d="M72.5 261.93L-28.7094 320.78" stroke="white" stroke-width="3"/>
<path d="M-28.1836 261.93L73.0258 320.78" stroke="white" stroke-width="3"/>
<path d="M50.9023 291.198L36.2682 316.635L6.99991 316.815L-7.63423 291.558L6.99992 266.12L36.2682 265.94L50.9023 291.198Z" fill="#F6F6F6"/>
<path d="M95.3945 191.684V308.759" stroke="white" stroke-width="3"/>
<path d="M145.09 219.781L43.8805 278.631" stroke="white" stroke-width="3"/>
<path d="M44.4062 219.781L145.616 278.631" stroke="white" stroke-width="3"/>
<path d="M123.492 249.05L108.858 274.488L79.5898 274.668L64.9556 249.41L79.5898 223.973L108.858 223.793L123.492 249.05Z" fill="#F6F6F6"/>
<path d="M95.3945 275.978L95.3945 393.053" stroke="white" stroke-width="3"/>
<path d="M145.09 304.075L43.8805 362.925" stroke="white" stroke-width="3"/>
<path d="M77.8317 326.32L145.607 362.921" stroke="white" stroke-width="3"/>
<path d="M123.492 333.344L108.858 358.782L79.5898 358.962L64.9556 333.704L79.5898 308.267L108.858 308.087L123.492 333.344Z" fill="#F6F6F6"/>
<path d="M167.977 233.831V350.906" stroke="white" stroke-width="3"/>
<path d="M217.676 261.93L116.466 320.78" stroke="white" stroke-width="3"/>
<path d="M116.992 261.93L218.202 320.78" stroke="white" stroke-width="3"/>
<path d="M196.078 291.198L181.444 316.635L152.176 316.815L137.542 291.558L152.176 266.12L181.444 265.94L196.078 291.198Z" fill="#F6F6F6"/>
<path d="M240.562 275.978V393.053" stroke="white" stroke-width="3"/>
<path d="M290.258 304.076L189.048 362.926" stroke="white" stroke-width="3"/>
<path d="M189.574 304.076L290.784 362.926" stroke="white" stroke-width="3"/>
<path d="M268.66 333.344L254.026 358.782L224.758 358.962L210.124 333.704L224.758 308.267L254.026 308.087L268.66 333.344Z" fill="#F6F6F6"/>
<path d="M313.152 318.125V435.2" stroke="white" stroke-width="3"/>
<path d="M362.848 346.223L261.638 405.073" stroke="white" stroke-width="3"/>
<path d="M262.164 346.223L363.373 405.073" stroke="white" stroke-width="3"/>
<path d="M341.25 375.491L326.616 400.929L297.348 401.109L282.713 375.852L297.348 350.414L326.616 350.234L341.25 375.491Z" fill="#F6F6F6"/>
<path d="M385.738 360.271V477.347" stroke="white" stroke-width="3"/>
<path d="M435.434 388.369L334.224 447.219" stroke="white" stroke-width="3"/>
<path d="M334.75 388.369L435.959 447.219" stroke="white" stroke-width="3"/>
<path d="M413.836 417.638L399.202 443.076L369.934 443.256L355.299 417.998L369.934 392.561L399.202 392.38L413.836 417.638Z" fill="#F6F6F6"/>
<path d="M458.324 402.419V519.494" stroke="white" stroke-width="3"/>
<path d="M508.02 430.517L406.81 489.366" stroke="white" stroke-width="3"/>
<path d="M407.332 430.517L508.541 489.366" stroke="white" stroke-width="3"/>
<path d="M486.422 459.785L471.788 485.223L442.519 485.403L427.885 460.146L442.519 434.708L471.788 434.528L486.422 459.785Z" fill="#F6F6F6"/>
<path d="M530.91 444.566V561.642" stroke="white" stroke-width="3"/>
<path d="M580.605 472.664L479.396 531.514" stroke="white" stroke-width="3"/>
<path d="M479.922 472.664L581.131 531.514" stroke="white" stroke-width="3"/>
<path d="M559.008 501.933L544.374 527.37L515.105 527.551L500.471 502.293L515.105 476.855L544.374 476.675L559.008 501.933Z" fill="#F6F6F6"/>
<path d="M167.977 318.125V435.2" stroke="white" stroke-width="3"/>
<path d="M217.676 346.224L116.466 405.073" stroke="white" stroke-width="3"/>
<path d="M150.418 368.468L218.193 405.07" stroke="white" stroke-width="3"/>
<path d="M196.078 375.491L181.444 400.929L152.176 401.109L137.542 375.852L152.176 350.414L181.444 350.234L196.078 375.491Z" fill="#F6F6F6"/>
<path d="M240.562 360.271V477.347" stroke="white" stroke-width="3"/>
<path d="M290.258 388.369L189.048 447.219" stroke="white" stroke-width="3"/>
<path d="M223 410.614L290.775 447.215" stroke="white" stroke-width="3"/>
<path d="M268.66 417.638L254.026 443.076L224.758 443.256L210.124 417.998L224.758 392.561L254.026 392.38L268.66 417.638Z" fill="#F6F6F6"/>
<path d="M313.152 402.419V519.494" stroke="white" stroke-width="3"/>
<path d="M362.848 430.517L261.638 489.366" stroke="white" stroke-width="3"/>
<path d="M295.59 452.761L363.365 489.362" stroke="white" stroke-width="3"/>
<path d="M341.25 459.785L326.616 485.223L297.348 485.403L282.713 460.146L297.348 434.708L326.616 434.528L341.25 459.785Z" fill="#F6F6F6"/>
<path d="M385.738 444.566V561.642" stroke="white" stroke-width="3"/>
<path d="M435.434 472.664L334.224 531.514" stroke="white" stroke-width="3"/>
<path d="M368.175 494.909L435.951 531.51" stroke="white" stroke-width="3"/>
<path d="M413.836 501.933L399.202 527.37L369.934 527.551L355.299 502.293L369.934 476.855L399.202 476.675L413.836 501.933Z" fill="#F6F6F6"/>
<path d="M458.324 486.713V603.788" stroke="white" stroke-width="3"/>
<path d="M508.02 514.811L406.81 573.66" stroke="white" stroke-width="3"/>
<path d="M440.761 537.055L508.537 573.656" stroke="white" stroke-width="3"/>
<path d="M486.422 544.079L471.788 569.517L442.519 569.697L427.885 544.44L442.519 519.002L471.788 518.822L486.422 544.079Z" fill="#F6F6F6"/>
<path d="M530.91 528.86V645.936" stroke="white" stroke-width="3"/>
<path d="M-0.0859375 388.37L-101.295 447.22" stroke="white" stroke-width="3"/>
<path d="M-100.773 388.37L0.435912 447.22" stroke="white" stroke-width="3"/>
<path d="M22.8047 318.125V435.2" stroke="white" stroke-width="3"/>
<path d="M72.5 346.224L-28.7094 405.073" stroke="white" stroke-width="3"/>
<path d="M-28.1836 346.224L73.0258 405.073" stroke="white" stroke-width="3"/>
<path d="M50.9023 375.491L36.2682 400.929L6.99991 401.109L-7.63423 375.852L6.99992 350.414L36.2682 350.234L50.9023 375.491Z" fill="#F6F6F6"/>
<path d="M22.8047 402.419L22.8047 519.494" stroke="white" stroke-width="3"/>
<path d="M72.5 430.517L-28.7094 489.366" stroke="white" stroke-width="3"/>
<path d="M5.24188 452.761L73.0174 489.362" stroke="white" stroke-width="3"/>
<path d="M50.9023 459.785L36.2682 485.223L6.99991 485.403L-7.63423 460.146L6.99992 434.708L36.2682 434.528L50.9023 459.785Z" fill="#F6F6F6"/>
<path d="M95.3945 360.272V477.348" stroke="white" stroke-width="3"/>
<path d="M145.09 388.37L43.8805 447.22" stroke="white" stroke-width="3"/>
<path d="M44.4062 388.37L145.616 447.22" stroke="white" stroke-width="3"/>
<path d="M123.492 417.639L108.858 443.077L79.5898 443.257L64.9556 417.999L79.5898 392.562L108.858 392.381L123.492 417.639Z" fill="#F6F6F6"/>
<path d="M167.977 402.419V519.494" stroke="white" stroke-width="3"/>
<path d="M217.676 430.517L116.466 489.366" stroke="white" stroke-width="3"/>
<path d="M116.992 430.517L218.202 489.366" stroke="white" stroke-width="3"/>
<path d="M196.078 459.785L181.444 485.223L152.176 485.403L137.542 460.146L152.176 434.708L181.444 434.528L196.078 459.785Z" fill="#F6F6F6"/>
<path d="M240.562 444.566V561.642" stroke="white" stroke-width="3"/>
<path d="M290.258 472.664L189.048 531.514" stroke="white" stroke-width="3"/>
<path d="M189.574 472.664L290.784 531.514" stroke="white" stroke-width="3"/>
<path d="M268.66 501.933L254.026 527.37L224.758 527.551L210.124 502.293L224.758 476.855L254.026 476.675L268.66 501.933Z" fill="#F6F6F6"/>
<path d="M313.152 486.714V603.789" stroke="white" stroke-width="3"/>
<path d="M362.848 514.812L261.638 573.661" stroke="white" stroke-width="3"/>
<path d="M262.164 514.812L363.373 573.661" stroke="white" stroke-width="3"/>
<path d="M341.25 544.08L326.616 569.518L297.348 569.698L282.713 544.441L297.348 519.003L326.616 518.823L341.25 544.08Z" fill="#F6F6F6"/>
<path d="M385.738 528.861V645.937" stroke="white" stroke-width="3"/>
<path d="M95.3945 444.566L95.3945 561.642" stroke="white" stroke-width="3"/>
<path d="M145.09 472.664L43.8805 531.514" stroke="white" stroke-width="3"/>
<path d="M77.8317 494.909L145.607 531.51" stroke="white" stroke-width="3"/>
<path d="M123.492 501.933L108.858 527.37L79.5898 527.551L64.9556 502.293L79.5898 476.855L108.858 476.675L123.492 501.933Z" fill="#F6F6F6"/>
<path d="M167.977 486.713V603.788" stroke="white" stroke-width="3"/>
<path d="M217.676 514.811L116.466 573.66" stroke="white" stroke-width="3"/>
<path d="M150.418 537.054L218.193 573.655" stroke="white" stroke-width="3"/>
<path d="M196.078 544.079L181.444 569.517L152.176 569.697L137.542 544.44L152.176 519.002L181.444 518.822L196.078 544.079Z" fill="#F6F6F6"/>
<path d="M240.562 528.861V645.937" stroke="white" stroke-width="3"/>
</g>
</svg>
