<svg width="24" height="24" viewBox="0 0 24 24" fill="none" xmlns="http://www.w3.org/2000/svg">
<mask id="mask0_883_38093" style="mask-type:luminance" maskUnits="userSpaceOnUse" x="0" y="0" width="24" height="24">
<path fill-rule="evenodd" clip-rule="evenodd" d="M0 0H24V24H0V0Z" fill="white"/>
</mask>
<g mask="url(#mask0_883_38093)">
<path fill-rule="evenodd" clip-rule="evenodd" d="M9.92701 8.66923C10.1077 8.65171 10.2904 8.6458 10.4687 8.61464C11.2236 8.48276 11.868 8.14064 12.3681 7.55635C13.0317 6.78103 13.2641 5.8847 13.0412 4.88779C12.7541 3.60335 11.6353 2.60536 10.2012 2.48274C9.56759 2.42853 8.95568 2.53654 8.39388 2.84627C7.35696 3.41786 6.78488 4.29353 6.72086 5.48161C6.69765 5.91212 6.78552 6.32941 6.95288 6.72805C7.43619 7.87967 8.60366 8.66803 9.92701 8.66923ZM18.9257 18.2019C18.9726 18.1916 19.0073 18.185 19.0414 18.1763C19.9128 17.9542 20.784 17.7312 21.6559 17.5113C21.7258 17.4936 21.7416 17.4699 21.7199 17.4011C21.6382 17.1429 21.5715 16.8796 21.4811 16.6247C21.3557 16.2712 21.2351 15.9135 21.0753 15.5751C20.408 14.1613 19.3996 13.0441 18.0796 12.2098C17.1564 11.6263 16.1538 11.2434 15.0761 11.06C14.9825 11.0441 14.8893 11.0261 14.7848 11.0071C17.3301 8.84647 17.6425 5.87559 17.1785 4.0459C17.1476 4.0524 17.1159 4.05789 17.0849 4.06577C16.9349 4.10403 16.7851 4.14289 16.6352 4.18163C15.9376 4.36201 15.2402 4.54351 14.5419 4.72135C14.4669 4.74044 14.4394 4.76555 14.4561 4.84759C14.4819 4.97563 14.5014 5.10613 14.5089 5.23645C14.5426 5.82212 14.4829 6.3967 14.291 6.95435C13.6947 8.6875 12.0992 9.86609 10.2607 10.0013C9.79553 10.0355 9.32986 10.0083 8.87431 9.89583C7.33356 9.51572 6.23683 8.60874 5.61931 7.13929C5.58841 7.06576 5.56079 7.04802 5.4832 7.06842C4.72299 7.26804 3.96165 7.4634 3.20081 7.66063C3.08147 7.69152 2.96296 7.72571 2.81934 7.76513C3.83754 10.4359 5.75061 12.0262 8.51045 12.6411C8.48855 12.659 8.46859 12.676 8.44803 12.6922C7.2168 13.6637 6.3269 14.8804 5.81347 16.3656C5.56281 17.0906 5.42064 17.8369 5.40509 18.6052C5.40079 18.8164 5.39489 19.0284 5.40733 19.239C5.42329 19.5092 5.43525 19.7826 5.48772 20.047C5.58605 20.5427 5.71379 21.0325 5.82535 21.5257C5.84441 21.6097 5.87745 21.6274 5.96012 21.6057C6.4468 21.4781 6.93482 21.3557 7.42228 21.2311C7.8088 21.1323 8.1946 21.0307 8.58198 20.9353C8.6574 20.9167 8.67186 20.8889 8.64828 20.8181C8.61547 20.7194 8.59472 20.6167 8.5655 20.5167C8.44347 20.0988 8.33408 19.6771 8.30904 19.2414C8.28523 18.8274 8.29536 18.4135 8.37287 18.0028C8.61711 16.7092 9.2609 15.6568 10.3005 14.8561C11.3277 14.0649 12.5003 13.7029 13.7972 13.7406C14.1592 13.751 14.5174 13.7908 14.8665 13.8836C16.88 14.4193 18.2045 15.6665 18.7786 17.6842C18.8266 17.8528 18.8745 18.0215 18.9257 18.2019ZM23.9985 11.9999C23.9985 13.7083 23.9988 15.4166 23.9983 17.125C23.9982 17.4176 24.0049 17.7108 23.9917 18.0029C23.9567 18.7856 23.922 19.5719 23.6704 20.3221C23.0473 22.1805 21.7679 23.3295 19.8644 23.7838C19.4467 23.8835 19.0193 23.9275 18.5903 23.9474C18.2447 23.9634 17.8989 23.9772 17.5531 23.9857C17.201 23.9943 16.8488 23.9988 16.4966 23.9989C13.2251 23.9998 9.95368 24.0015 6.68224 23.9971C6.22632 23.9965 5.7697 23.9754 5.31482 23.9434C4.60249 23.8933 3.89886 23.7902 3.23555 23.5036C1.6294 22.8095 0.629657 21.6025 0.225314 19.9081C0.134646 19.5282 0.0881912 19.1337 0.0628147 18.7432C0.0235352 18.1395 0.00462428 17.5336 0.0036152 16.9286C-0.00165445 13.5985 0.000961687 10.2684 0.00133542 6.93826C0.00133542 6.65458 -0.00434534 6.37048 0.00772627 6.08721C0.0413997 5.29863 0.0744004 4.50799 0.308919 3.74635C0.714981 2.42754 1.50363 1.41072 2.71909 0.737355C3.31049 0.409698 3.94187 0.201671 4.61288 0.127285C5.06842 0.0767725 5.52636 0.0433717 5.98407 0.0177419C6.3205 -0.00105073 6.65832 0.000929413 6.99554 0.000817329C10.4134 -0.000228783 13.8313 -0.000378228 17.2491 0.00100413C17.5893 0.00115358 17.93 0.00369414 18.2696 0.0214407C18.9991 0.0595491 19.7297 0.112901 20.4243 0.360232C22.2104 0.996118 23.3327 2.24148 23.7771 4.08331C23.8652 4.44863 23.9113 4.82795 23.9369 5.20351C23.9758 5.77132 23.9935 6.34142 23.996 6.91061C24.0032 8.607 23.9985 10.3035 23.9985 11.9999Z" fill="#73D4D4"/>
</g>
</svg>
