<svg width="24" height="24" viewBox="0 0 24 24" fill="none" xmlns="http://www.w3.org/2000/svg">
<mask id="mask0_883_38060" style="mask-type:luminance" maskUnits="userSpaceOnUse" x="0" y="0" width="24" height="24">
<path fill-rule="evenodd" clip-rule="evenodd" d="M0 0H24V24H0V0Z" fill="white"/>
</mask>
<g mask="url(#mask0_883_38060)">
<path fill-rule="evenodd" clip-rule="evenodd" d="M20.8187 10.3186C20.9571 10.3032 21.0994 10.3031 21.2332 10.2691C21.5431 10.1905 21.7419 9.88317 21.711 9.55701C21.6812 9.24248 21.4067 8.97562 21.0941 8.9572C20.7829 8.93878 20.4991 9.14479 20.4264 9.46162C20.3956 9.59606 20.3933 9.73898 20.3928 9.8781C20.3916 10.3522 20.3458 10.2992 20.8187 10.3186ZM8.48975 15.4148C8.70392 15.4508 8.87529 15.4988 9.04807 15.5046C9.42978 15.5173 9.81336 15.4897 10.1937 15.515C10.4696 15.5334 10.6166 15.4429 10.7123 15.1819C10.8339 14.8505 10.9973 14.5344 11.1443 14.208C11.0904 14.1844 11.0702 14.1684 11.0494 14.1675C10.4286 14.1402 9.80787 14.1124 9.18687 14.0928C9.14234 14.0914 9.07432 14.1418 9.05365 14.1854C8.87079 14.5715 8.69618 14.9615 8.48975 15.4148ZM2.96088 14.9194C3.32792 14.4669 3.54218 14.0004 3.6072 13.4985C3.73943 12.4786 3.81556 11.4514 3.91831 10.4275C3.93171 10.2939 3.86604 10.2648 3.75499 10.2653C3.48945 10.2666 3.22395 10.2652 2.9584 10.2652C2.59488 10.2652 2.6044 10.2662 2.56976 10.6352C2.48459 11.5419 2.38976 12.4477 2.29943 13.354C2.29643 13.3839 2.29132 13.4187 2.30271 13.4443C2.51346 13.9204 2.72656 14.3955 2.96088 14.9194ZM6.91787 10.2724C6.91117 10.3355 6.9032 10.366 6.9054 10.3958C6.96236 11.1662 7.01523 11.9371 7.07992 12.7069C7.13195 13.3257 7.27192 13.9237 7.56747 14.4759C7.64265 14.6163 7.73861 14.7457 7.85453 14.9259C8.09359 14.3985 8.30917 13.925 8.52128 13.4499C8.53543 13.4182 8.52751 13.374 8.52278 13.3365C8.46587 12.8817 8.3972 12.4282 8.35248 11.9722C8.30373 11.4753 8.28072 10.9759 8.23628 10.4784C8.2299 10.4071 8.16822 10.2828 8.12851 10.2814C7.72628 10.2667 7.32334 10.2724 6.91787 10.2724ZM11.6826 12.5928H11.0713C10.8288 12.5928 10.8022 12.5561 10.8988 12.3394C11.1148 11.8549 11.3342 11.3719 11.5504 10.8875C11.6344 10.6995 11.7137 10.5094 11.8138 10.2766C11.4773 10.2766 11.1906 10.2775 10.904 10.2765C10.5665 10.2752 10.5514 10.2531 10.6838 9.95335C10.8163 9.65373 10.9509 9.35513 11.0834 9.05551C11.1604 8.88132 11.2348 8.70605 11.3283 8.49001C10.8775 8.49001 10.4742 8.4864 10.0711 8.49502C10.0257 8.49601 9.96219 8.55737 9.9403 8.60574C9.60866 9.33727 9.27116 10.0665 8.95968 10.8066C8.77818 11.2378 8.98574 11.5195 9.46025 11.5353C9.60388 11.5402 9.74783 11.5361 9.92146 11.5361C9.85339 11.6964 9.80286 11.8175 9.75079 11.9379C9.599 12.2886 9.4348 12.6344 9.2976 12.9907C9.13822 13.4045 9.33257 13.6835 9.77896 13.6932C10.2006 13.7024 10.6227 13.6986 11.0444 13.6925C11.1039 13.6916 11.1955 13.6611 11.2167 13.6174C11.3724 13.2964 11.5141 12.9686 11.6826 12.5928ZM3.86279 14.3476C4.03914 14.7408 4.1844 15.0741 4.3412 15.402C4.36042 15.4422 4.44053 15.4723 4.4934 15.4739C4.71179 15.4807 4.93239 15.492 5.14876 15.4693C5.52428 15.4299 5.82409 15.2471 5.95342 14.882C6.03236 14.6591 6.0812 14.4132 6.08242 14.1773C6.09193 12.4044 6.0864 10.6314 6.08467 8.85842C6.08457 8.76711 6.07576 8.6758 6.0707 8.57773H4.76753C4.76753 8.68334 4.76762 8.77475 4.76753 8.86616C4.76612 10.5845 4.765 12.3027 4.76303 14.021C4.7627 14.317 4.7334 14.3457 4.44339 14.3474C4.27347 14.3484 4.10354 14.3476 3.86279 14.3476ZM12.9629 14.148C12.6324 14.148 12.3216 14.1425 12.0112 14.1519C11.9363 14.1541 11.8216 14.1849 11.7954 14.2375C11.5984 14.6325 11.419 15.0361 11.2239 15.4592H15.5511V14.144H14.3532V10.2823C14.567 10.2823 14.7681 10.2775 14.9688 10.284C15.1104 10.2885 15.1604 10.2321 15.1467 10.0685C15.1215 9.76823 15.1184 9.46673 15.146 9.16673C15.1599 9.01532 15.1161 8.95237 14.9846 8.95471C14.8362 8.95734 14.6878 8.95434 14.5394 8.95434C13.8208 8.95429 13.1023 8.95354 12.3838 8.95546C12.2874 8.95575 12.1663 8.92992 12.1663 9.09112C12.1665 9.4792 12.1664 9.86728 12.1664 10.2858H12.9629V14.148ZM16.7384 12.7522V13.0737C16.7384 13.808 16.7419 14.5424 16.7356 15.2767C16.7339 15.4739 16.8023 15.5409 17.0664 15.5013C17.2789 15.4693 17.4949 15.4711 17.7077 15.5004C17.9866 15.5388 18.0704 15.4933 18.0673 15.2714C18.0568 14.5219 18.0612 13.7721 18.0613 13.0225C18.0613 12.9394 18.0687 12.8562 18.0735 12.7551C18.7434 12.7551 19.3904 12.747 20.037 12.7598C20.2488 12.764 20.3806 12.8996 20.3839 13.1252C20.3879 13.4063 20.3866 13.6876 20.3867 13.9688C20.3867 14.3169 20.3351 14.3675 19.9763 14.3687C19.6982 14.3696 19.4201 14.3689 19.1 14.3689C19.2622 14.7425 19.4026 15.0781 19.5565 15.4074C19.5792 15.456 19.666 15.5031 19.7228 15.5027C20.0659 15.5003 20.4126 15.5115 20.7509 15.4656C21.326 15.3876 21.708 14.924 21.712 14.3451C21.7157 13.7905 21.7165 13.2358 21.7117 12.6811C21.7063 12.0455 21.3503 11.6051 20.7257 11.4628C20.561 11.4253 20.3904 11.414 20.2082 11.3887C20.2082 11.0642 20.2179 10.7519 20.2061 10.4405C20.1845 9.87148 19.9704 9.41609 19.431 9.14984C19.081 8.97706 18.711 8.96094 18.3378 8.98512C18.1703 8.996 18.043 8.87019 18.0663 8.70397C18.089 8.5423 18.0198 8.47381 17.8456 8.48281C17.6197 8.49453 17.3927 8.48548 17.1662 8.48548C16.7674 8.48544 16.7678 8.48548 16.7326 8.88781C16.7301 8.91641 16.7142 8.94387 16.7013 8.98105C16.4847 8.98105 16.2747 8.98541 16.0651 8.97945C15.913 8.97509 15.8547 9.0298 15.8919 9.25508C15.9322 9.49925 15.939 9.74848 15.897 9.99238C15.8569 10.2249 15.8879 10.3206 16.0597 10.3149C16.2314 10.3093 16.4036 10.3192 16.5751 10.3127C16.7271 10.3069 16.7561 10.3898 16.7317 10.5693C16.7074 10.748 16.7086 10.9291 16.7323 11.1079C16.763 11.3394 16.7249 11.4311 16.5273 11.422C16.2545 11.4095 15.9803 11.4253 15.7076 11.4112C15.5197 11.4015 15.4396 11.4533 15.4514 11.6566C15.4677 11.9365 15.4675 12.2167 15.4521 12.4965C15.4413 12.6924 15.5029 12.7639 15.7015 12.7559C16.0348 12.7425 16.3692 12.7522 16.7384 12.7522ZM17.9217 24H6.07828C2.72133 24 0 21.2787 0 17.9217V6.07824C0 2.72133 2.72133 0 6.07828 0H17.9217C21.2787 0 24 2.72133 24 6.07824V17.9217C24 21.2787 21.2787 24 17.9217 24Z" fill="#73D4D4"/>
</g>
<path fill-rule="evenodd" clip-rule="evenodd" d="M19.0318 10.7587H18.207V9.93417C18.4218 9.93417 18.647 9.92405 18.8687 9.94087C18.9284 9.94538 19.0204 10.0297 19.0244 10.0808C19.0417 10.3019 19.0318 10.5243 19.0318 10.7587Z" fill="#73D4D4"/>
</svg>
