<svg width="31" height="30" viewBox="0 0 31 30" fill="none" xmlns="http://www.w3.org/2000/svg">
<path d="M15.5 2.8125C8.76934 2.8125 3.3125 8.26934 3.3125 15C3.3125 21.7307 8.76934 27.1875 15.5 27.1875C22.2307 27.1875 27.6875 21.7307 27.6875 15C27.6875 8.26934 22.2307 2.8125 15.5 2.8125ZM21.125 16.875H15.5C15.2514 16.875 15.0129 16.7762 14.8371 16.6004C14.6613 16.4246 14.5625 16.1861 14.5625 15.9375V7.5C14.5625 7.25136 14.6613 7.0129 14.8371 6.83709C15.0129 6.66127 15.2514 6.5625 15.5 6.5625C15.7486 6.5625 15.9871 6.66127 16.1629 6.83709C16.3387 7.0129 16.4375 7.25136 16.4375 7.5V15H21.125C21.3736 15 21.6121 15.0988 21.7879 15.2746C21.9637 15.4504 22.0625 15.6889 22.0625 15.9375C22.0625 16.1861 21.9637 16.4246 21.7879 16.6004C21.6121 16.7762 21.3736 16.875 21.125 16.875Z" fill="#73D4D4"/>
</svg>
