<svg width="31" height="30" viewBox="0 0 31 30" fill="none" xmlns="http://www.w3.org/2000/svg">
<path d="M15.5 14.375C14.6712 14.375 13.8763 14.0458 13.2903 13.4597C12.7042 12.8737 12.375 12.0788 12.375 11.25C12.375 10.4212 12.7042 9.62634 13.2903 9.04029C13.8763 8.45424 14.6712 8.125 15.5 8.125C16.3288 8.125 17.1237 8.45424 17.7097 9.04029C18.2958 9.62634 18.625 10.4212 18.625 11.25C18.625 11.6604 18.5442 12.0667 18.3871 12.4459C18.2301 12.825 17.9999 13.1695 17.7097 13.4597C17.4195 13.7499 17.075 13.9801 16.6959 14.1371C16.3167 14.2942 15.9104 14.375 15.5 14.375ZM15.5 2.5C13.1794 2.5 10.9538 3.42187 9.31282 5.06282C7.67187 6.70376 6.75 8.92936 6.75 11.25C6.75 17.8125 15.5 27.5 15.5 27.5C15.5 27.5 24.25 17.8125 24.25 11.25C24.25 8.92936 23.3281 6.70376 21.6872 5.06282C20.0462 3.42187 17.8206 2.5 15.5 2.5Z" fill="#73D4D4"/>
</svg>
