<svg width="23" height="22" viewBox="0 0 23 22" fill="none" xmlns="http://www.w3.org/2000/svg">
<g clip-path="url(#clip0_862_178908)">
<path d="M21.2239 0.000244141H0.859659C0.661126 0.000244141 0.5 0.161137 0.5 0.359903V20.7239C0.5 20.9227 0.661126 21.0836 0.859659 21.0836H21.2239C21.4225 21.0836 21.5836 20.9227 21.5836 20.7239V0.359903C21.5836 0.16137 21.4225 0.000244141 21.2239 0.000244141ZM20.8643 20.3645H1.21936V0.719601H20.8643V20.3645Z" fill="#73D4D4"/>
<path d="M9.492 12.4797H10.9846C12.648 12.5271 14.0404 11.6694 14.4792 10.1185C15.0005 8.4254 14.502 6.4558 12.8218 5.69834C12.2193 5.40627 11.4822 5.26025 10.612 5.26025H7.41064V15.8236H9.49196V12.4797H9.492ZM9.492 7.2699H10.9846C11.9917 7.20612 12.6037 7.98902 12.5917 8.87716C12.5854 9.7327 11.9076 10.5137 10.9705 10.4561H9.49176V7.2699H9.492Z" fill="#73D4D4"/>
</g>
<defs>
<clipPath id="clip0_862_178908">
<rect width="22" height="22" fill="white" transform="translate(0.5)"/>
</clipPath>
</defs>
</svg>
