<svg width="454" height="454" viewBox="0 0 454 454" fill="none" xmlns="http://www.w3.org/2000/svg">
<mask id="mask0_2911_305770" style="mask-type:alpha" maskUnits="userSpaceOnUse" x="0" y="30" width="454" height="394">
<path d="M453.437 226.719L340.078 423.064L113.359 423.064L-0.000650779 226.719L113.359 30.3746L340.078 30.3746L453.437 226.719Z" fill="#D9D9D9"/>
</mask>
<g mask="url(#mask0_2911_305770)">
<path d="M128.441 -14.5684V74.9534" stroke="#E5E5E5" stroke-width="2.29395"/>
<path d="M166.441 6.91699L89.0516 51.9166" stroke="#E5E5E5" stroke-width="2.29395"/>
<path d="M89.4531 6.91699L166.843 51.9166" stroke="#E5E5E5" stroke-width="2.29395"/>
<path d="M149.926 29.2974L138.736 48.7483L116.356 48.886L105.166 29.5728L116.356 10.1219L138.736 9.98425L149.926 29.2974Z" fill="white"/>
<path d="M183.945 -46.7959V42.7259" stroke="#E5E5E5" stroke-width="2.29395"/>
<path d="M183.945 17.6602V107.182" stroke="#E5E5E5" stroke-width="2.29395"/>
<path d="M221.945 39.1455L144.555 84.1451" stroke="#E5E5E5" stroke-width="2.29395"/>
<path d="M170.518 56.1543L222.343 84.1415" stroke="#E5E5E5" stroke-width="2.29395"/>
<path d="M205.43 61.526L194.24 80.9768L171.86 81.1145L160.67 61.8013L171.86 42.3505L194.24 42.2128L205.43 61.526Z" fill="white"/>
<path d="M239.449 -14.5684V74.9534" stroke="#E5E5E5" stroke-width="2.29395"/>
<path d="M277.449 6.91699L200.059 51.9166" stroke="#E5E5E5" stroke-width="2.29395"/>
<path d="M200.461 6.91699L277.851 51.9166" stroke="#E5E5E5" stroke-width="2.29395"/>
<path d="M260.934 29.2974L249.744 48.7483L227.364 48.886L216.174 29.5728L227.364 10.1219L249.744 9.98425L260.934 29.2974Z" fill="white"/>
<path d="M294.953 17.6602V107.182" stroke="#E5E5E5" stroke-width="2.29395"/>
<path d="M332.953 39.1455L255.563 84.1451" stroke="#E5E5E5" stroke-width="2.29395"/>
<path d="M255.965 39.1455L333.355 84.1451" stroke="#E5E5E5" stroke-width="2.29395"/>
<path d="M316.437 61.526L305.247 80.9768L282.867 81.1145L271.677 61.8013L282.867 42.3505L305.247 42.2128L316.437 61.526Z" fill="white"/>
<path d="M350.457 49.8877V139.41" stroke="#E5E5E5" stroke-width="2.29395"/>
<path d="M388.457 71.373L311.067 116.373" stroke="#E5E5E5" stroke-width="2.29395"/>
<path d="M311.469 71.373L388.859 116.373" stroke="#E5E5E5" stroke-width="2.29395"/>
<path d="M371.941 93.7535L360.751 113.204L338.371 113.342L327.181 94.0289L338.371 74.578L360.751 74.4403L371.941 93.7535Z" fill="white"/>
<path d="M405.957 82.1152V171.637" stroke="#E5E5E5" stroke-width="2.29395"/>
<path d="M443.957 103.601L366.567 148.6" stroke="#E5E5E5" stroke-width="2.29395"/>
<path d="M366.969 103.601L444.359 148.6" stroke="#E5E5E5" stroke-width="2.29395"/>
<path d="M427.441 125.981L416.251 145.432L393.871 145.57L382.681 126.256L393.871 106.806L416.251 106.668L427.441 125.981Z" fill="white"/>
<path d="M499.465 135.829L422.075 180.829" stroke="#E5E5E5" stroke-width="2.29395"/>
<path d="M422.477 135.829L499.866 180.829" stroke="#E5E5E5" stroke-width="2.29395"/>
<path d="M482.949 158.21L471.759 177.66L449.379 177.798L438.189 158.485L449.379 139.034L471.759 138.896L482.949 158.21Z" fill="white"/>
<path d="M239.449 49.8877V139.41" stroke="#E5E5E5" stroke-width="2.29395"/>
<path d="M277.449 71.373L200.059 116.373" stroke="#E5E5E5" stroke-width="2.29395"/>
<path d="M226.022 88.3818L277.847 116.369" stroke="#E5E5E5" stroke-width="2.29395"/>
<path d="M260.934 93.7535L249.744 113.204L227.364 113.342L216.174 94.0289L227.364 74.578L249.744 74.4403L260.934 93.7535Z" fill="white"/>
<path d="M294.953 82.1152V171.637" stroke="#E5E5E5" stroke-width="2.29395"/>
<path d="M332.953 103.601L255.563 148.6" stroke="#E5E5E5" stroke-width="2.29395"/>
<path d="M281.526 120.609L333.351 148.597" stroke="#E5E5E5" stroke-width="2.29395"/>
<path d="M316.437 125.981L305.247 145.432L282.867 145.57L271.677 126.256L282.867 106.806L305.247 106.668L316.437 125.981Z" fill="white"/>
<path d="M350.457 114.344V203.866" stroke="#E5E5E5" stroke-width="2.29395"/>
<path d="M388.457 135.829L311.067 180.829" stroke="#E5E5E5" stroke-width="2.29395"/>
<path d="M337.03 152.838L388.855 180.825" stroke="#E5E5E5" stroke-width="2.29395"/>
<path d="M371.941 158.21L360.751 177.66L338.371 177.798L327.181 158.485L338.371 139.034L360.751 138.896L371.941 158.21Z" fill="white"/>
<path d="M405.957 146.571V236.093" stroke="#FF9A3E" stroke-opacity="0.6" stroke-width="2.29395"/>
<path d="M443.957 168.057L366.567 213.056" stroke="#E5E5E5" stroke-width="2.29395"/>
<path d="M392.53 185.065L444.355 213.053" stroke="#E5E5E5" stroke-width="2.29395"/>
<path d="M427.441 190.437L416.251 209.888L393.871 210.026L382.681 190.712L393.871 171.262L416.251 171.124L427.441 190.437Z" fill="white"/>
<path d="M499.465 200.284L422.075 245.284" stroke="#E5E5E5" stroke-width="2.29395"/>
<path d="M448.038 217.293L499.862 245.28" stroke="#E5E5E5" stroke-width="2.29395"/>
<path d="M482.949 222.665L471.759 242.116L449.379 242.253L438.189 222.94L449.379 203.489L471.759 203.351L482.949 222.665Z" fill="white"/>
<path d="M72.9375 82.1152V171.637" stroke="#E5E5E5" stroke-width="2.29395"/>
<path d="M110.938 103.601L33.5476 148.6" stroke="#E5E5E5" stroke-width="2.29395"/>
<path d="M33.9492 103.601L111.339 148.6" stroke="#E5E5E5" stroke-width="2.29395"/>
<path d="M94.4219 125.981L83.2319 145.432L60.8518 145.57L49.6618 126.256L60.8518 106.806L83.2319 106.668L94.4219 125.981Z" fill="white"/>
<path d="M128.441 49.8877V139.41" stroke="#E5E5E5" stroke-width="2.29395"/>
<path d="M166.441 71.373L89.0516 116.373" stroke="#E5E5E5" stroke-width="2.29395"/>
<path d="M89.4531 71.373L166.843 116.373" stroke="#E5E5E5" stroke-width="2.29395"/>
<path d="M149.926 93.7535L138.736 113.204L116.356 113.342L105.166 94.0289L116.356 74.578L138.736 74.4403L149.926 93.7535Z" fill="white"/>
<path d="M128.441 114.344V203.866" stroke="#E5E5E5" stroke-width="2.29395"/>
<path d="M166.441 135.829L89.0516 180.829" stroke="#E5E5E5" stroke-width="2.29395"/>
<path d="M115.014 152.838L166.839 180.825" stroke="#E5E5E5" stroke-width="2.29395"/>
<path d="M149.926 158.21L138.736 177.66L116.356 177.798L105.166 158.485L116.356 139.034L138.736 138.896L149.926 158.21Z" fill="white"/>
<path d="M183.941 82.1152V171.637" stroke="#E5E5E5" stroke-width="2.29395"/>
<path d="M221.941 103.601L144.552 148.6" stroke="#E5E5E5" stroke-width="2.29395"/>
<path d="M144.953 103.601L222.343 148.6" stroke="#E5E5E5" stroke-width="2.29395"/>
<path d="M205.426 125.981L194.236 145.432L171.856 145.57L160.666 126.256L171.856 106.806L194.236 106.668L205.426 125.981Z" fill="white"/>
<path d="M239.445 114.344V203.866" stroke="#E5E5E5" stroke-width="2.29395"/>
<path d="M277.445 135.829L200.055 180.829" stroke="#E5E5E5" stroke-width="2.29395"/>
<path d="M200.457 135.829L277.847 180.829" stroke="#E5E5E5" stroke-width="2.29395"/>
<path d="M260.93 158.21L249.74 177.66L227.36 177.798L216.17 158.485L227.36 139.034L249.74 138.896L260.93 158.21Z" fill="white"/>
<path d="M294.949 146.571V236.093" stroke="#E5E5E5" stroke-width="2.29395"/>
<path d="M332.949 168.057L255.559 213.056" stroke="#FF9A3E" stroke-opacity="0.6" stroke-width="2.29395"/>
<path d="M255.961 168.057L333.351 213.056" stroke="#E5E5E5" stroke-width="2.29395"/>
<path d="M316.434 190.437L305.244 209.888L282.864 210.026L271.674 190.712L282.864 171.262L305.244 171.124L316.434 190.437Z" fill="white"/>
<path d="M350.453 178.799V268.321" stroke="#E5E5E5" stroke-width="2.29395"/>
<path d="M388.453 200.284L311.063 245.284" stroke="#E5E5E5" stroke-width="2.29395"/>
<path d="M311.465 200.284L388.855 245.284" stroke="#E5E5E5" stroke-width="2.29395"/>
<path d="M371.937 222.665L360.747 242.116L338.367 242.253L327.177 222.94L338.367 203.489L360.747 203.351L371.937 222.665Z" fill="white"/>
<path d="M405.957 211.027V300.549" stroke="#9EC8FF" stroke-width="2.29395"/>
<path d="M443.953 232.513L366.563 277.512" stroke="#E5E5E5" stroke-width="2.29395"/>
<path d="M366.965 232.513L444.355 277.512" stroke="#E5E5E5" stroke-width="2.29395"/>
<path d="M427.441 254.893L416.251 274.344L393.871 274.482L382.681 255.169L393.871 235.718L416.251 235.58L427.441 254.893Z" fill="white"/>
<path d="M499.465 264.74L422.075 309.74" stroke="#E5E5E5" stroke-width="2.29395"/>
<path d="M422.477 264.74L499.866 309.74" stroke="#E5E5E5" stroke-width="2.29395"/>
<path d="M482.949 287.121L471.759 306.572L449.379 306.709L438.189 287.396L449.379 267.945L471.759 267.807L482.949 287.121Z" fill="white"/>
<path d="M183.941 146.571V236.093" stroke="#FF9A3E" stroke-opacity="0.6" stroke-width="2.29395"/>
<path d="M221.941 168.057L144.552 213.056" stroke="#E5E5E5" stroke-width="2.29395"/>
<path d="M170.514 185.065L222.339 213.053" stroke="#E5E5E5" stroke-width="2.29395"/>
<path d="M205.426 190.437L194.236 209.888L171.856 210.026L160.666 190.712L171.856 171.262L194.236 171.124L205.426 190.437Z" fill="white"/>
<path d="M239.445 178.799V268.321" stroke="#E5E5E5" stroke-width="2.29395"/>
<path d="M277.445 200.284L200.055 245.284" stroke="#E5E5E5" stroke-width="2.29395"/>
<path d="M226.018 217.293L277.843 245.28" stroke="#E5E5E5" stroke-width="2.29395"/>
<path d="M260.93 222.665L249.74 242.116L227.36 242.253L216.17 222.94L227.36 203.489L249.74 203.351L260.93 222.665Z" fill="white"/>
<path d="M294.949 211.027V300.549" stroke="#E5E5E5" stroke-width="2.29395"/>
<path d="M332.949 232.513L255.559 277.512" stroke="#E5E5E5" stroke-width="2.29395"/>
<path d="M281.522 249.521L333.347 277.509" stroke="#FF9A3E" stroke-opacity="0.6" stroke-width="2.29395"/>
<path d="M316.434 254.893L305.244 274.344L282.864 274.482L271.674 255.169L282.864 235.718L305.244 235.58L316.434 254.893Z" fill="white"/>
<path d="M350.453 243.255V332.777" stroke="#E5E5E5" stroke-width="2.29395"/>
<path d="M388.453 264.74L311.063 309.74" stroke="#E5E5E5" stroke-width="2.29395"/>
<path d="M337.026 281.749L388.851 309.736" stroke="#E5E5E5" stroke-width="2.29395"/>
<path d="M371.937 287.121L360.747 306.572L338.367 306.709L327.177 287.396L338.367 267.945L360.747 267.807L371.937 287.121Z" fill="white"/>
<path d="M406.023 273.745V363.267" stroke="#E5E5E5" stroke-width="2.29395"/>
<path d="M443.953 296.968L366.563 341.967" stroke="#E5E5E5" stroke-width="2.29395"/>
<path d="M392.526 313.977L444.351 341.964" stroke="#E5E5E5" stroke-width="2.29395"/>
<path d="M427.441 319.348L416.251 338.799L393.871 338.937L382.681 319.624L393.871 300.173L416.251 300.035L427.441 319.348Z" fill="white"/>
<path d="M499.465 329.196L422.075 374.196" stroke="#E5E5E5" stroke-width="2.29395"/>
<path d="M448.038 346.205L499.862 374.192" stroke="#E5E5E5" stroke-width="2.29395"/>
<path d="M482.949 351.577L471.759 371.028L449.379 371.165L438.189 351.852L449.379 332.401L471.759 332.264L482.949 351.577Z" fill="white"/>
<path d="M17.4336 178.799V268.321" stroke="#E5E5E5" stroke-width="2.29395"/>
<path d="M55.4336 200.284L-21.9563 245.284" stroke="#E5E5E5" stroke-width="2.29395"/>
<path d="M-21.5547 200.284L55.8352 245.284" stroke="#E5E5E5" stroke-width="2.29395"/>
<path d="M38.918 222.665L27.728 242.116L5.34792 242.253L-5.84209 222.94L5.34793 203.489L27.728 203.351L38.918 222.665Z" fill="white"/>
<path d="M72.9375 146.571V236.093" stroke="#E5E5E5" stroke-width="2.29395"/>
<path d="M110.938 168.057L33.5476 213.056" stroke="#E5E5E5" stroke-width="2.29395"/>
<path d="M33.9492 168.057L111.339 213.056" stroke="#E5E5E5" stroke-width="2.29395"/>
<path d="M94.4219 190.437L83.2319 209.888L60.8518 210.026L49.6618 190.712L60.8518 171.262L83.2319 171.124L94.4219 190.437Z" fill="white"/>
<path d="M72.9375 211.027L72.9375 300.549" stroke="#E5E5E5" stroke-width="2.29395"/>
<path d="M110.938 232.513L33.5476 277.512" stroke="#E5E5E5" stroke-width="2.29395"/>
<path d="M59.5104 249.521L111.335 277.509" stroke="#E5E5E5" stroke-width="2.29395"/>
<path d="M94.4219 254.893L83.2319 274.344L60.8518 274.482L49.6618 255.169L60.8518 235.718L83.2319 235.58L94.4219 254.893Z" fill="white"/>
<path d="M128.441 178.799V268.321" stroke="#E5E5E5" stroke-width="2.29395"/>
<path d="M166.441 200.284L89.0516 245.284" stroke="#E5E5E5" stroke-width="2.29395"/>
<path d="M89.4531 200.284L166.843 245.284" stroke="#E5E5E5" stroke-width="2.29395"/>
<path d="M149.926 222.665L138.736 242.116L116.356 242.253L105.166 222.94L116.356 203.489L138.736 203.351L149.926 222.665Z" fill="white"/>
<path d="M183.941 209.515V299.036" stroke="#E5E5E5" stroke-width="2.29395"/>
<path d="M221.941 232.513L144.552 277.512" stroke="#E5E5E5" stroke-width="2.29395"/>
<path d="M144.953 232.454L222.343 277.454" stroke="#FF9A3E" stroke-opacity="0.6" stroke-width="2.29395"/>
<path d="M205.426 254.893L194.236 274.344L171.856 274.482L160.666 255.169L171.856 235.718L194.236 235.58L205.426 254.893Z" fill="white"/>
<path d="M239.449 242.395V331.916" stroke="#9EC8FF" stroke-width="2.29395"/>
<path d="M277.449 264.74L200.059 309.74" stroke="#E5E5E5" stroke-width="2.29395"/>
<path d="M200.461 264.74L277.851 309.74" stroke="#E5E5E5" stroke-width="2.29395"/>
<path d="M260.934 287.121L249.744 306.572L227.364 306.709L216.174 287.396L227.364 267.945L249.744 267.807L260.934 287.121Z" fill="white"/>
<path d="M294.949 275.482V365.004" stroke="#E5E5E5" stroke-width="2.29395"/>
<path d="M332.949 296.968L255.559 341.967" stroke="#E5E5E5" stroke-width="2.29395"/>
<path d="M255.961 296.968L333.351 341.967" stroke="#E5E5E5" stroke-width="2.29395"/>
<path d="M316.434 319.348L305.244 338.799L282.864 338.937L271.674 319.624L282.864 300.173L305.244 300.035L316.434 319.348Z" fill="white"/>
<path d="M350.457 306.625V396.147" stroke="#FF9A3E" stroke-opacity="0.6" stroke-width="2.29395"/>
<path d="M388.457 329.195L311.067 374.195" stroke="#E5E5E5" stroke-width="2.29395"/>
<path d="M311.469 329.195L388.859 374.195" stroke="#E5E5E5" stroke-width="2.29395"/>
<path d="M371.941 351.576L360.751 371.027L338.371 371.164L327.181 351.851L338.371 332.4L360.751 332.263L371.941 351.576Z" fill="white"/>
<path d="M405.961 339.938V429.46" stroke="#E5E5E5" stroke-width="2.29395"/>
<path d="M443.957 361.424L366.567 406.423" stroke="#E5E5E5" stroke-width="2.29395"/>
<path d="M366.969 361.424L444.359 406.423" stroke="#E5E5E5" stroke-width="2.29395"/>
<path d="M427.445 383.804L416.255 403.255L393.875 403.393L382.685 384.08L393.875 364.629L416.255 364.491L427.445 383.804Z" fill="white"/>
<path d="M128.441 243.255V332.777" stroke="#E5E5E5" stroke-width="2.29395"/>
<path d="M166.441 264.74L89.0516 309.74" stroke="#E5E5E5" stroke-width="2.29395"/>
<path d="M115.014 281.749L166.839 309.736" stroke="#E5E5E5" stroke-width="2.29395"/>
<path d="M149.926 287.121L138.736 306.572L116.356 306.709L105.166 287.396L116.356 267.945L138.736 267.807L149.926 287.121Z" fill="white"/>
<path d="M183.941 275.482V365.004" stroke="#E5E5E5" stroke-width="2.29395"/>
<path d="M221.941 296.968L144.552 341.967" stroke="#E5E5E5" stroke-width="2.29395"/>
<path d="M170.514 313.977L222.339 341.964" stroke="#E5E5E5" stroke-width="2.29395"/>
<path d="M205.426 319.348L194.236 338.799L171.856 338.937L160.666 319.624L171.856 300.173L194.236 300.035L205.426 319.348Z" fill="white"/>
<path d="M239.336 306.625V396.147" stroke="#E5E5E5" stroke-width="2.29395"/>
<path d="M277.449 329.195L200.059 374.195" stroke="#9EC8FF" stroke-width="2.29395"/>
<path d="M226.022 346.204L277.847 374.191" stroke="#E5E5E5" stroke-width="2.29395"/>
<path d="M260.934 351.576L249.744 371.027L227.364 371.164L216.174 351.851L227.364 332.4L249.744 332.263L260.934 351.576Z" fill="white"/>
<path d="M294.949 339.938V429.46" stroke="#E5E5E5" stroke-width="2.29395"/>
<path d="M332.949 361.424L255.559 406.423" stroke="#FF9A3E" stroke-opacity="0.6" stroke-width="2.29395"/>
<path d="M281.522 378.433L333.347 406.42" stroke="#E5E5E5" stroke-width="2.29395"/>
<path d="M316.434 383.804L305.244 403.255L282.864 403.393L271.674 384.08L282.864 364.629L305.244 364.491L316.434 383.804Z" fill="white"/>
<path d="M350.457 370.855V460.377" stroke="#E5E5E5" stroke-width="2.29395"/>
<path d="M388.457 393.651L311.067 438.651" stroke="#E5E5E5" stroke-width="2.29395"/>
<path d="M337.03 410.66L388.855 438.647" stroke="#E5E5E5" stroke-width="2.29395"/>
<path d="M371.941 416.032L360.751 435.483L338.371 435.62L327.181 416.307L338.371 396.856L360.751 396.719L371.941 416.032Z" fill="white"/>
<path d="M405.961 404.394V493.915" stroke="#E5E5E5" stroke-width="2.29395"/>
<path d="M-0.0703125 296.968L-77.4602 341.967" stroke="#E5E5E5" stroke-width="2.29395"/>
<path d="M-77.0586 296.968L0.331251 341.967" stroke="#E5E5E5" stroke-width="2.29395"/>
<path d="M17.4336 243.255V332.777" stroke="#E5E5E5" stroke-width="2.29395"/>
<path d="M55.4336 264.74L-21.9563 309.74" stroke="#E5E5E5" stroke-width="2.29395"/>
<path d="M-21.5547 264.74L55.8352 309.74" stroke="#E5E5E5" stroke-width="2.29395"/>
<path d="M38.918 287.121L27.728 306.572L5.34792 306.709L-5.84209 287.396L5.34793 267.945L27.728 267.807L38.918 287.121Z" fill="white"/>
<path d="M17.4336 307.711L17.4336 397.233" stroke="#E5E5E5" stroke-width="2.29395"/>
<path d="M55.4336 329.196L-21.9563 374.196" stroke="#E5E5E5" stroke-width="2.29395"/>
<path d="M4.00649 346.205L55.8312 374.192" stroke="#E5E5E5" stroke-width="2.29395"/>
<path d="M38.918 351.577L27.728 371.028L5.34792 371.165L-5.84209 351.852L5.34793 332.401L27.728 332.264L38.918 351.577Z" fill="white"/>
<path d="M72.9375 275.482V365.004" stroke="#E5E5E5" stroke-width="2.29395"/>
<path d="M110.938 296.968L33.5476 341.967" stroke="#E5E5E5" stroke-width="2.29395"/>
<path d="M33.9492 296.968L111.339 341.967" stroke="#E5E5E5" stroke-width="2.29395"/>
<path d="M94.4219 319.348L83.2319 338.799L60.8518 338.937L49.6618 319.624L60.8518 300.173L83.2319 300.035L94.4219 319.348Z" fill="white"/>
<path d="M128.441 307.711V397.233" stroke="#E5E5E5" stroke-width="2.29395"/>
<path d="M166.441 329.196L89.0516 374.196" stroke="#FF9A3E" stroke-opacity="0.6" stroke-width="2.29395"/>
<path d="M89.4531 329.196L166.843 374.196" stroke="#E5E5E5" stroke-width="2.29395"/>
<path d="M149.926 351.577L138.736 371.028L116.356 371.165L105.166 351.852L116.356 332.401L138.736 332.264L149.926 351.577Z" fill="white"/>
<path d="M183.941 338.741V428.263" stroke="#FF9A3E" stroke-opacity="0.6" stroke-width="2.29395"/>
<path d="M221.941 361.424L144.552 406.423" stroke="#E5E5E5" stroke-width="2.29395"/>
<path d="M144.953 361.424L222.343 406.423" stroke="#E5E5E5" stroke-width="2.29395"/>
<path d="M205.426 383.804L194.236 403.255L171.856 403.393L160.666 384.08L171.856 364.629L194.236 364.491L205.426 383.804Z" fill="white"/>
<path d="M239.449 372.166V461.688" stroke="#E5E5E5" stroke-width="2.29395"/>
<path d="M277.449 393.651L200.059 438.651" stroke="#E5E5E5" stroke-width="2.29395"/>
<path d="M200.461 393.651L277.851 438.651" stroke="#9EC8FF" stroke-width="2.29395"/>
<path d="M260.934 416.032L249.744 435.483L227.364 435.62L216.174 416.307L227.364 396.856L249.744 396.719L260.934 416.032Z" fill="white"/>
<path d="M294.949 404.395V493.916" stroke="#E5E5E5" stroke-width="2.29395"/>
<path d="M72.9375 339.938L72.9375 429.46" stroke="#E5E5E5" stroke-width="2.29395"/>
<path d="M110.938 361.424L33.5476 406.423" stroke="#E5E5E5" stroke-width="2.29395"/>
<path d="M59.5104 378.433L111.335 406.42" stroke="#E5E5E5" stroke-width="2.29395"/>
<path d="M94.4219 383.804L83.2319 403.255L60.8518 403.393L49.6618 384.08L60.8518 364.629L83.2319 364.491L94.4219 383.804Z" fill="white"/>
<path d="M128.441 372.166V461.688" stroke="#E5E5E5" stroke-width="2.29395"/>
<path d="M166.441 393.651L89.0516 438.651" stroke="#E5E5E5" stroke-width="2.29395"/>
<path d="M115.014 410.66L166.839 438.647" stroke="#E5E5E5" stroke-width="2.29395"/>
<path d="M149.926 416.032L138.736 435.483L116.356 435.62L105.166 416.307L116.356 396.856L138.736 396.719L149.926 416.032Z" fill="white"/>
<path d="M183.941 402.972V492.493" stroke="#E5E5E5" stroke-width="2.29395"/>
<mask id="mask1_2911_305770" style="mask-type:alpha" maskUnits="userSpaceOnUse" x="0" y="31" width="453" height="393">
<path d="M452.672 227.101L339.503 423.115L113.167 423.115L-0.00162733 227.101L113.167 31.088L339.504 31.088L452.672 227.101Z" fill="#D9D9D9"/>
</mask>
<g mask="url(#mask1_2911_305770)">
<path d="M128.23 -13.7783V75.5925" stroke="#E5E5E5" stroke-width="2.29395"/>
<path d="M166.164 7.6709L88.9047 52.5946" stroke="#E5E5E5" stroke-width="2.29395"/>
<path d="M89.3086 7.6709L166.568 52.5946" stroke="#E5E5E5" stroke-width="2.29395"/>
<path d="M149.68 30.0136L138.509 49.4317L116.166 49.5692L104.995 30.2885L116.166 10.8704L138.509 10.733L149.68 30.0136Z" fill="white"/>
<path d="M183.641 -45.9521V43.4187" stroke="#E5E5E5" stroke-width="2.29395"/>
<path d="M183.641 18.3945V107.765" stroke="#FF9A3E" stroke-opacity="0.6" stroke-width="2.29395"/>
<path d="M221.574 39.8438L144.315 84.7675" stroke="#E5E5E5" stroke-width="2.29395"/>
<path d="M170.235 56.8244L221.972 84.7644" stroke="#E5E5E5" stroke-width="2.29395"/>
<path d="M205.09 62.1865L193.919 81.6046L171.576 81.742L160.405 62.4614L171.576 43.0433L193.919 42.9058L205.09 62.1865Z" fill="white"/>
<path d="M239.051 -13.7783V75.5925" stroke="#E5E5E5" stroke-width="2.29395"/>
<path d="M276.984 7.6709L199.725 52.5946" stroke="#9EC8FF" stroke-width="2.29395"/>
<path d="M200.129 7.6709L277.388 52.5946" stroke="#E5E5E5" stroke-width="2.29395"/>
<path d="M260.5 30.0136L249.329 49.4317L226.987 49.5692L215.815 30.2885L226.987 10.8704L249.329 10.733L260.5 30.0136Z" fill="white"/>
<path d="M294.461 18.3945V107.765" stroke="#E5E5E5" stroke-width="2.29395"/>
<path d="M332.395 39.8438L255.135 84.7675" stroke="#9EC8FF" stroke-width="2.29395"/>
<path d="M255.539 39.8438L332.798 84.7675" stroke="#E5E5E5" stroke-width="2.29395"/>
<path d="M315.91 62.1865L304.739 81.6046L282.397 81.742L271.226 62.4614L282.397 43.0433L304.739 42.9058L315.91 62.1865Z" fill="white"/>
<path d="M349.621 50.3838V139.755" stroke="#9EC8FF" stroke-width="2.29395"/>
<path d="M387.805 72.0176L310.545 116.941" stroke="#E5E5E5" stroke-width="2.29395"/>
<path d="M310.945 72.0176L388.205 116.941" stroke="#E5E5E5" stroke-width="2.29395"/>
<path d="M371.32 94.3603L360.149 113.778L337.807 113.916L326.636 94.6352L337.807 75.2171L360.149 75.0797L371.32 94.3603Z" fill="white"/>
<path d="M405.281 82.7422V172.113" stroke="#E5E5E5" stroke-width="2.29395"/>
<path d="M443.215 104.191L365.955 149.115" stroke="#E5E5E5" stroke-width="2.29395"/>
<path d="M366.359 104.191L443.619 149.115" stroke="#E5E5E5" stroke-width="2.29395"/>
<path d="M426.73 126.534L415.559 145.952L393.217 146.09L382.046 126.809L393.217 107.391L415.559 107.253L426.73 126.534Z" fill="white"/>
<path d="M498.625 136.364L421.366 181.288" stroke="#E5E5E5" stroke-width="2.29395"/>
<path d="M421.77 136.364L499.029 181.288" stroke="#E5E5E5" stroke-width="2.29395"/>
<path d="M482.141 158.707L470.969 178.125L448.627 178.263L437.456 158.982L448.627 139.564L470.969 139.426L482.141 158.707Z" fill="white"/>
<path d="M239.051 50.5684V139.939" stroke="#E5E5E5" stroke-width="2.29395"/>
<path d="M276.984 72.0176L199.725 116.941" stroke="#E5E5E5" stroke-width="2.29395"/>
<path d="M225.645 88.9983L277.382 116.938" stroke="#FF9A3E" stroke-opacity="0.6" stroke-width="2.29395"/>
<path d="M260.5 94.3603L249.329 113.778L226.987 113.916L215.815 94.6352L226.987 75.2171L249.329 75.0797L260.5 94.3603Z" fill="white"/>
<path d="M294.461 82.7422V172.113" stroke="#E5E5E5" stroke-width="2.29395"/>
<path d="M332.395 104.191L255.135 149.115" stroke="#E5E5E5" stroke-width="2.29395"/>
<path d="M281.055 121.172L332.792 149.112" stroke="#9EC8FF" stroke-width="2.29395"/>
<path d="M315.91 126.534L304.739 145.952L282.397 146.09L271.226 126.809L282.397 107.391L304.739 107.253L315.91 126.534Z" fill="white"/>
<path d="M349.621 113.742V203.113" stroke="#E5E5E5" stroke-width="2.29395"/>
<path d="M387.805 136.364L310.545 181.288" stroke="#E5E5E5" stroke-width="2.29395"/>
<path d="M336.465 153.345L388.202 181.285" stroke="#E5E5E5" stroke-width="2.29395"/>
<path d="M371.32 158.707L360.149 178.125L337.807 178.263L326.636 158.982L337.807 139.564L360.149 139.426L371.32 158.707Z" fill="white"/>
<path d="M405.281 147.089V236.46" stroke="#E5E5E5" stroke-width="2.29395"/>
<path d="M443.215 168.538L365.955 213.462" stroke="#E5E5E5" stroke-width="2.29395"/>
<path d="M391.875 185.519L443.613 213.459" stroke="#9EC8FF" stroke-width="2.29395"/>
<path d="M426.73 190.881L415.559 210.299L393.217 210.436L382.046 191.156L393.217 171.738L415.559 171.6L426.73 190.881Z" fill="white"/>
<path d="M498.625 200.712L421.366 245.636" stroke="#E5E5E5" stroke-width="2.29395"/>
<path d="M447.285 217.693L499.023 245.633" stroke="#E5E5E5" stroke-width="2.29395"/>
<path d="M482.141 223.055L470.969 242.473L448.627 242.61L437.456 223.33L448.627 203.911L470.969 203.774L482.141 223.055Z" fill="white"/>
<path d="M72.8203 82.7412V172.112" stroke="#E5E5E5" stroke-width="2.29395"/>
<path d="M110.754 104.19L33.4946 149.114" stroke="#E5E5E5" stroke-width="2.29395"/>
<path d="M33.8984 104.19L111.158 149.114" stroke="#9EC8FF" stroke-width="2.29395"/>
<path d="M94.2695 126.533L83.0984 145.951L60.7561 146.089L49.585 126.808L60.7561 107.39L83.0984 107.253L94.2695 126.533Z" fill="white"/>
<path d="M128.25 49.6201V138.991" stroke="#FF9A3E" stroke-opacity="0.6" stroke-width="2.29395"/>
<path d="M166.164 72.0176L88.9047 116.941" stroke="#E5E5E5" stroke-width="2.29395"/>
<path d="M89.3086 72.0176L166.568 116.941" stroke="#E5E5E5" stroke-width="2.29395"/>
<path d="M149.68 94.3593L138.509 113.777L116.166 113.915L104.995 94.6342L116.166 75.2162L138.509 75.0787L149.68 94.3593Z" fill="white"/>
<path d="M128.25 113.742V203.113" stroke="#E5E5E5" stroke-width="2.29395"/>
<path d="M166.164 136.364L88.9047 181.288" stroke="#E5E5E5" stroke-width="2.29395"/>
<path d="M114.824 153.345L166.562 181.285" stroke="#E5E5E5" stroke-width="2.29395"/>
<path d="M149.68 158.707L138.509 178.125L116.166 178.263L104.995 158.982L116.166 139.564L138.509 139.426L149.68 158.707Z" fill="white"/>
<path d="M183.637 82.7412V172.112" stroke="#E5E5E5" stroke-width="2.29395"/>
<path d="M221.57 104.19L144.311 149.114" stroke="#9EC8FF" stroke-width="2.29395"/>
<path d="M144.715 104.19L221.974 149.114" stroke="#E5E5E5" stroke-width="2.29395"/>
<path d="M205.086 126.533L193.915 145.951L171.573 146.089L160.401 126.808L171.573 107.39L193.915 107.253L205.086 126.533Z" fill="white"/>
<path d="M239.051 114.915V204.286" stroke="#E5E5E5" stroke-width="2.29395"/>
<path d="M276.984 136.364L199.725 181.288" stroke="#E5E5E5" stroke-width="2.29395"/>
<path d="M200.129 136.364L277.388 181.288" stroke="#9EC8FF" stroke-width="2.29395"/>
<path d="M260.5 158.707L249.329 178.125L226.987 178.263L215.815 158.982L226.987 139.564L249.329 139.426L260.5 158.707Z" fill="white"/>
<path d="M294.461 147.089V236.46" stroke="#E5E5E5" stroke-width="2.29395"/>
<path d="M332.395 168.538L255.135 213.462" stroke="#E5E5E5" stroke-width="2.29395"/>
<path d="M255.539 168.538L332.798 213.462" stroke="#E5E5E5" stroke-width="2.29395"/>
<path d="M315.91 190.881L304.739 210.299L282.397 210.436L271.226 191.156L282.397 171.738L304.739 171.6L315.91 190.881Z" fill="white"/>
<path d="M349.871 179.262V268.633" stroke="#E5E5E5" stroke-width="2.29395"/>
<path d="M387.805 200.711L310.545 245.635" stroke="#E5E5E5" stroke-width="2.29395"/>
<path d="M310.945 200.711L388.205 245.635" stroke="#E5E5E5" stroke-width="2.29395"/>
<path d="M371.32 223.054L360.149 242.472L337.807 242.609L326.636 223.329L337.807 203.91L360.149 203.773L371.32 223.054Z" fill="white"/>
<path d="M405.277 211.436V300.806" stroke="#E5E5E5" stroke-width="2.29395"/>
<path d="M443.211 232.885L365.952 277.808" stroke="#E5E5E5" stroke-width="2.29395"/>
<path d="M366.355 232.885L443.615 277.809" stroke="#E5E5E5" stroke-width="2.29395"/>
<path d="M426.727 255.227L415.555 274.646L393.213 274.783L382.042 255.502L393.213 236.084L415.555 235.947L426.727 255.227Z" fill="white"/>
<path d="M498.625 265.059L421.366 309.982" stroke="#E5E5E5" stroke-width="2.29395"/>
<path d="M421.77 265.059L499.029 309.982" stroke="#E5E5E5" stroke-width="2.29395"/>
<path d="M482.141 287.401L470.969 306.819L448.627 306.957L437.456 287.676L448.627 268.258L470.969 268.121L482.141 287.401Z" fill="white"/>
<path d="M183.637 147.089V236.46" stroke="#E5E5E5" stroke-width="2.29395"/>
<path d="M221.57 168.538L144.311 213.462" stroke="#FF9A3E" stroke-opacity="0.6" stroke-width="2.29395"/>
<path d="M170.231 185.519L221.968 213.459" stroke="#E5E5E5" stroke-width="2.29395"/>
<path d="M205.086 190.881L193.915 210.299L171.573 210.436L160.401 191.156L171.573 171.738L193.915 171.6L205.086 190.881Z" fill="white"/>
<path d="M239.051 179.263V268.634" stroke="#E5E5E5" stroke-width="2.29395"/>
<path d="M276.984 200.712L199.725 245.636" stroke="#E5E5E5" stroke-width="2.29395"/>
<path d="M225.645 217.693L277.382 245.633" stroke="#FF9A3E" stroke-opacity="0.6" stroke-width="2.29395"/>
<path d="M260.5 223.055L249.329 242.473L226.987 242.61L215.815 223.33L226.987 203.911L249.329 203.774L260.5 223.055Z" fill="white"/>
<path d="M294.461 211.436V300.806" stroke="#E5E5E5" stroke-width="2.29395"/>
<path d="M332.395 232.885L255.135 277.808" stroke="#E5E5E5" stroke-width="2.29395"/>
<path d="M281.055 249.865L332.792 277.805" stroke="#E5E5E5" stroke-width="2.29395"/>
<path d="M315.91 255.227L304.739 274.646L282.397 274.783L271.226 255.502L282.397 236.084L304.739 235.947L315.91 255.227Z" fill="white"/>
<path d="M349.871 242.846V332.217" stroke="#9EC8FF" stroke-width="2.29395"/>
<path d="M387.805 265.058L310.545 309.981" stroke="#E5E5E5" stroke-width="2.29395"/>
<path d="M336.465 282.038L388.202 309.978" stroke="#E5E5E5" stroke-width="2.29395"/>
<path d="M371.32 287.4L360.149 306.818L337.807 306.956L326.636 287.675L337.807 268.257L360.149 268.12L371.32 287.4Z" fill="white"/>
<path d="M405.277 275.782V365.153" stroke="#E5E5E5" stroke-width="2.29395"/>
<path d="M443.211 297.231L365.952 342.155" stroke="#E5E5E5" stroke-width="2.29395"/>
<path d="M391.871 314.212L443.609 342.152" stroke="#E5E5E5" stroke-width="2.29395"/>
<path d="M426.727 319.574L415.555 338.992L393.213 339.13L382.042 319.849L393.213 300.431L415.555 300.294L426.727 319.574Z" fill="white"/>
<path d="M498.625 329.405L421.366 374.329" stroke="#E5E5E5" stroke-width="2.29395"/>
<path d="M447.285 346.386L499.023 374.326" stroke="#E5E5E5" stroke-width="2.29395"/>
<path d="M482.141 351.748L470.969 371.166L448.627 371.304L437.456 352.023L448.627 332.605L470.969 332.467L482.141 351.748Z" fill="white"/>
<path d="M17.4062 179.263V268.634" stroke="#E5E5E5" stroke-width="2.29395"/>
<path d="M55.3398 200.712L-21.9195 245.636" stroke="#E5E5E5" stroke-width="2.29395"/>
<path d="M-21.5156 200.712L55.7437 245.636" stroke="#9EC8FF" stroke-width="2.29395"/>
<path d="M38.8555 223.055L27.6843 242.473L5.34204 242.61L-5.82911 223.33L5.34204 203.911L27.6843 203.774L38.8555 223.055Z" fill="white"/>
<path d="M72.8164 147.089V236.46" stroke="#E5E5E5" stroke-width="2.29395"/>
<path d="M110.75 168.538L33.4907 213.462" stroke="#E5E5E5" stroke-width="2.29395"/>
<path d="M33.8945 168.538L111.154 213.462" stroke="#9EC8FF" stroke-width="2.29395"/>
<path d="M94.2656 190.881L83.0945 210.299L60.7522 210.436L49.5811 191.156L60.7522 171.738L83.0945 171.6L94.2656 190.881Z" fill="white"/>
<path d="M72.8164 211.436L72.8164 300.806" stroke="#E5E5E5" stroke-width="2.29395"/>
<path d="M110.75 232.885L33.4907 277.808" stroke="#E5E5E5" stroke-width="2.29395"/>
<path d="M59.4104 249.865L111.148 277.805" stroke="#E5E5E5" stroke-width="2.29395"/>
<path d="M94.2656 255.227L83.0945 274.646L60.7522 274.783L49.5811 255.502L60.7522 236.084L83.0945 235.947L94.2656 255.227Z" fill="white"/>
<path d="M128.227 179.263V268.634" stroke="#FF9A3E" stroke-opacity="0.6" stroke-width="2.29395"/>
<path d="M166.164 200.712L88.9047 245.636" stroke="#E5E5E5" stroke-width="2.29395"/>
<path d="M88.5508 200.767L165.81 245.69" stroke="#E5E5E5" stroke-width="2.29395"/>
<path d="M149.676 223.055L138.505 242.473L116.162 242.61L104.991 223.33L116.162 203.911L138.505 203.774L149.676 223.055Z" fill="white"/>
<path d="M183.637 211.436V300.806" stroke="#9EC8FF" stroke-width="2.29395"/>
<path d="M221.57 232.885L144.311 277.809" stroke="#E5E5E5" stroke-width="2.29395"/>
<path d="M144.715 232.885L221.974 277.809" stroke="#E5E5E5" stroke-width="2.29395"/>
<path d="M205.086 255.227L193.915 274.646L171.573 274.783L160.401 255.502L171.573 236.084L193.915 235.947L205.086 255.227Z" fill="white"/>
<path d="M239.047 243.609V332.98" stroke="#E5E5E5" stroke-width="2.29395"/>
<path d="M276.98 265.059L199.721 309.982" stroke="#9EC8FF" stroke-width="2.29395"/>
<path d="M200.125 265.059L277.384 309.982" stroke="#FF9A3E" stroke-opacity="0.6" stroke-width="2.29395"/>
<path d="M260.496 287.401L249.325 306.819L226.983 306.957L215.812 287.676L226.983 268.258L249.325 268.121L260.496 287.401Z" fill="white"/>
<path d="M294.457 275.783V365.154" stroke="#E5E5E5" stroke-width="2.29395"/>
<path d="M332.391 297.232L255.131 342.156" stroke="#E5E5E5" stroke-width="2.29395"/>
<path d="M255.535 297.232L332.794 342.156" stroke="#E5E5E5" stroke-width="2.29395"/>
<path d="M315.906 319.575L304.735 338.993L282.393 339.131L271.222 319.85L282.393 300.432L304.735 300.295L315.906 319.575Z" fill="white"/>
<path d="M349.867 306.873V397.327" stroke="#E5E5E5" stroke-width="2.29395"/>
<path d="M387.801 329.405L310.541 374.329" stroke="#9EC8FF" stroke-width="2.29395"/>
<path d="M310.941 329.405L388.201 374.329" stroke="#E5E5E5" stroke-width="2.29395"/>
<path d="M371.316 351.748L360.145 371.166L337.803 371.304L326.632 352.023L337.803 332.605L360.145 332.467L371.316 351.748Z" fill="white"/>
<path d="M405.277 340.13V429.501" stroke="#E5E5E5" stroke-width="2.29395"/>
<path d="M443.211 361.579L365.952 406.503" stroke="#E5E5E5" stroke-width="2.29395"/>
<path d="M366.355 361.579L443.615 406.503" stroke="#E5E5E5" stroke-width="2.29395"/>
<path d="M426.727 383.922L415.555 403.34L393.213 403.477L382.042 384.197L393.213 364.779L415.555 364.641L426.727 383.922Z" fill="white"/>
<path d="M128.227 243.609V332.98" stroke="#9EC8FF" stroke-width="2.29395"/>
<path d="M166.16 265.059L88.9008 309.982" stroke="#E5E5E5" stroke-width="2.29395"/>
<path d="M114.821 282.039L166.558 309.979" stroke="#FF9A3E" stroke-opacity="0.6" stroke-width="2.29395"/>
<path d="M149.676 287.401L138.505 306.819L116.162 306.957L104.991 287.676L116.162 268.258L138.505 268.121L149.676 287.401Z" fill="white"/>
<path d="M183.637 275.783V365.154" stroke="#E5E5E5" stroke-width="2.29395"/>
<path d="M221.57 297.232L144.311 342.156" stroke="#E5E5E5" stroke-width="2.29395"/>
<path d="M170.231 314.213L221.968 342.153" stroke="#E5E5E5" stroke-width="2.29395"/>
<path d="M205.086 319.575L193.915 338.993L171.573 339.131L160.401 319.85L171.573 300.432L193.915 300.295L205.086 319.575Z" fill="white"/>
<path d="M239.047 307.956V397.327" stroke="#E5E5E5" stroke-width="2.29395"/>
<path d="M276.98 329.405L199.721 374.329" stroke="#9EC8FF" stroke-width="2.29395"/>
<path d="M225.641 346.386L277.378 374.326" stroke="#9EC8FF" stroke-width="2.29395"/>
<path d="M260.496 351.748L249.325 371.166L226.983 371.304L215.812 352.023L226.983 332.605L249.325 332.467L260.496 351.748Z" fill="white"/>
<path d="M294.457 340.13V429.501" stroke="#E5E5E5" stroke-width="2.29395"/>
<path d="M332.391 361.579L255.131 406.503" stroke="#E5E5E5" stroke-width="2.29395"/>
<path d="M281.051 378.56L332.788 406.5" stroke="#E5E5E5" stroke-width="2.29395"/>
<path d="M315.906 383.922L304.735 403.34L282.393 403.477L271.222 384.197L282.393 364.779L304.735 364.641L315.906 383.922Z" fill="white"/>
<path d="M349.867 372.303V461.674" stroke="#E5E5E5" stroke-width="2.29395"/>
<path d="M387.801 393.752L310.541 438.676" stroke="#E5E5E5" stroke-width="2.29395"/>
<path d="M336.461 410.733L388.198 438.673" stroke="#E5E5E5" stroke-width="2.29395"/>
<path d="M371.316 416.095L360.145 435.513L337.803 435.65L326.632 416.37L337.803 396.952L360.145 396.814L371.316 416.095Z" fill="white"/>
<path d="M405.277 404.477V493.847" stroke="#E5E5E5" stroke-width="2.29395"/>
<path d="M-0.0664062 297.232L-77.3257 342.156" stroke="#E5E5E5" stroke-width="2.29395"/>
<path d="M-76.9258 297.232L0.333562 342.156" stroke="#E5E5E5" stroke-width="2.29395"/>
<path d="M17.4102 243.609V332.98" stroke="#E5E5E5" stroke-width="2.29395"/>
<path d="M55.3438 265.059L-21.9156 309.982" stroke="#9EC8FF" stroke-width="2.29395"/>
<path d="M-21.5117 265.059L55.7476 309.982" stroke="#E5E5E5" stroke-width="2.29395"/>
<path d="M38.8594 287.401L27.6882 306.819L5.34594 306.957L-5.8252 287.676L5.34595 268.258L27.6882 268.121L38.8594 287.401Z" fill="white"/>
<path d="M17.4102 307.956L17.4102 397.327" stroke="#E5E5E5" stroke-width="2.29395"/>
<path d="M55.3438 329.405L-21.9156 374.329" stroke="#E5E5E5" stroke-width="2.29395"/>
<path d="M4.00414 346.386L55.7414 374.326" stroke="#E5E5E5" stroke-width="2.29395"/>
<path d="M38.8594 351.748L27.6882 371.166L5.34594 371.304L-5.8252 352.023L5.34595 332.605L27.6882 332.467L38.8594 351.748Z" fill="white"/>
<path d="M72.8203 275.783V365.154" stroke="#E5E5E5" stroke-width="2.29395"/>
<path d="M110.754 297.232L33.4946 342.156" stroke="#E5E5E5" stroke-width="2.29395"/>
<path d="M33.8984 297.232L111.158 342.156" stroke="#E5E5E5" stroke-width="2.29395"/>
<path d="M94.2695 319.575L83.0984 338.993L60.7561 339.131L49.585 319.85L60.7561 300.432L83.0984 300.295L94.2695 319.575Z" fill="white"/>
<path d="M128.25 306.873V396.244" stroke="#E5E5E5" stroke-width="2.29395"/>
<path d="M166.164 329.405L88.9047 374.329" stroke="#E5E5E5" stroke-width="2.29395"/>
<path d="M89.3086 329.405L166.568 374.329" stroke="#E5E5E5" stroke-width="2.29395"/>
<path d="M149.68 351.748L138.509 371.166L116.166 371.304L104.995 352.023L116.166 332.605L138.509 332.467L149.68 351.748Z" fill="white"/>
<path d="M183.637 340.13V429.501" stroke="#E5E5E5" stroke-width="2.29395"/>
<path d="M221.57 361.579L144.311 406.503" stroke="#E5E5E5" stroke-width="2.29395"/>
<path d="M144.715 361.579L221.974 406.503" stroke="#E5E5E5" stroke-width="2.29395"/>
<path d="M205.086 383.922L193.915 403.34L171.573 403.477L160.401 384.197L171.573 364.779L193.915 364.641L205.086 383.922Z" fill="white"/>
<path d="M239.051 372.304V461.675" stroke="#FF9A3E" stroke-opacity="0.6" stroke-width="2.29395"/>
<path d="M276.984 393.753L199.725 438.677" stroke="#E5E5E5" stroke-width="2.29395"/>
<path d="M200.129 393.753L277.388 438.677" stroke="#E5E5E5" stroke-width="2.29395"/>
<path d="M260.5 416.096L249.329 435.514L226.987 435.651L215.815 416.371L226.987 396.952L249.329 396.815L260.5 416.096Z" fill="white"/>
<path d="M294.457 404.478V493.848" stroke="#E5E5E5" stroke-width="2.29395"/>
<path d="M72.8203 340.13L72.8203 429.501" stroke="#E5E5E5" stroke-width="2.29395"/>
<path d="M110.754 361.579L33.4946 406.503" stroke="#9EC8FF" stroke-width="2.29395"/>
<path d="M59.4143 378.56L111.152 406.5" stroke="#E5E5E5" stroke-width="2.29395"/>
<path d="M94.2695 383.922L83.0984 403.34L60.7561 403.477L49.585 384.197L60.7561 364.779L83.0984 364.641L94.2695 383.922Z" fill="white"/>
<path d="M128.23 372.304V461.675" stroke="#E5E5E5" stroke-width="2.29395"/>
<path d="M166.164 393.753L88.9047 438.677" stroke="#FF9A3E" stroke-opacity="0.6" stroke-width="2.29395"/>
<path d="M114.824 410.734L166.562 438.674" stroke="#E5E5E5" stroke-width="2.29395"/>
<path d="M149.68 416.096L138.509 435.514L116.166 435.651L104.995 416.371L116.166 396.952L138.509 396.815L149.68 416.096Z" fill="white"/>
<path d="M183.637 403.438V493.848" stroke="#9EC8FF" stroke-width="2.29395"/>
</g>
</g>
</svg>
