<svg width="23" height="22" viewBox="0 0 23 22" fill="none" xmlns="http://www.w3.org/2000/svg">
<g clip-path="url(#clip0_856_214816)">
<path d="M14.9993 21.8286C14.6847 21.8286 14.3904 21.7048 14.1705 21.4801C13.9512 21.2558 13.8343 20.9597 13.8412 20.6464L14.1043 8.79534C14.1081 8.62702 14.0187 8.47308 13.8712 8.39358C13.2843 8.07742 12.7864 7.52589 12.4311 6.79862C12.0778 6.07539 11.8911 5.22614 11.8911 4.34268C11.8911 3.20616 12.1998 2.13313 12.7604 1.32124C13.0416 0.91402 13.3719 0.592522 13.7422 0.365647C14.1383 0.123026 14.5612 0 14.9993 0C15.4374 0 15.8604 0.123026 16.2564 0.365647C16.6268 0.592507 16.9571 0.91402 17.2383 1.32124C17.7989 2.13314 18.1076 3.20617 18.1076 4.34268C18.1076 5.22612 17.9208 6.07539 17.5676 6.79862C17.2123 7.52589 16.7144 8.07743 16.1275 8.39358C15.98 8.47306 15.8906 8.62702 15.8944 8.79534L16.1575 20.6464C16.1645 20.9597 16.0475 21.2558 15.8282 21.4801C15.6083 21.7048 15.314 21.8286 14.9993 21.8286ZM14.9993 0.709677C14.384 0.709677 13.7962 1.07006 13.3444 1.72446C12.8649 2.41897 12.6008 3.34881 12.6008 4.34268C12.6008 5.87412 13.2466 7.25098 14.2078 7.7688C14.5913 7.97541 14.8235 8.3748 14.8138 8.81109L14.5507 20.6621C14.548 20.783 14.5932 20.8973 14.6779 20.9838C14.7631 21.071 14.8772 21.1189 14.9993 21.1189C15.1214 21.1189 15.2356 21.0709 15.3208 20.9838C15.4055 20.8972 15.4507 20.783 15.448 20.6621L15.1849 8.81107C15.1752 8.37477 15.4074 7.9754 15.7909 7.76878C16.7521 7.25095 17.3979 5.87409 17.3979 4.34265C17.3979 3.34878 17.1338 2.41895 16.6543 1.72443C16.2025 1.07006 15.6147 0.709677 14.9993 0.709677Z" fill="#73D4D4"/>
<path d="M7.13702 21.9999C6.82238 21.9999 6.52821 21.876 6.30869 21.6509C6.08969 21.4263 5.9734 21.1301 5.98125 20.8167L6.23798 10.5742C6.2493 10.1224 6.06677 9.68536 5.7372 9.37517L5.49651 9.14863C4.94265 8.62736 4.625 7.89262 4.625 7.13283V0.697856C4.625 0.501882 4.78386 0.343018 4.97984 0.343018C5.17581 0.343018 5.33468 0.501882 5.33468 0.697856V7.13281C5.33468 7.69774 5.57094 8.24412 5.98291 8.63184L6.22359 8.85838C6.69998 9.30675 6.96382 9.93861 6.94743 10.592L6.69072 20.8345C6.68769 20.955 6.73246 21.069 6.81676 21.1554C6.90157 21.2424 7.01531 21.2903 7.13702 21.2903C7.25873 21.2903 7.37247 21.2424 7.45728 21.1554C7.54158 21.069 7.58635 20.955 7.58332 20.8345L7.32661 10.592C7.31023 9.93861 7.57406 9.30675 8.05045 8.85838L8.29113 8.63184C8.70309 8.24412 8.93935 7.69774 8.93935 7.13281V0.697856C8.93935 0.501882 9.09822 0.343018 9.29419 0.343018C9.49016 0.343018 9.64903 0.501882 9.64903 0.697856V7.13281C9.64903 7.89261 9.33137 8.62733 8.77751 9.14862L8.53683 9.37516C8.20726 9.68534 8.02472 10.1224 8.03605 10.5742L8.29278 20.8167C8.30063 21.1301 8.18434 21.4263 7.96533 21.6509C7.74584 21.876 7.45166 21.9999 7.13702 21.9999Z" fill="#73D4D4"/>
<path d="M6.41978 5.87228C6.22381 5.87228 6.06494 5.71342 6.06494 5.51744V0.725688C6.06494 0.529714 6.22381 0.37085 6.41978 0.37085C6.61575 0.37085 6.77462 0.529714 6.77462 0.725688V5.51744C6.77462 5.71342 6.61575 5.87228 6.41978 5.87228Z" fill="#73D4D4"/>
<path d="M7.85386 5.87228C7.65789 5.87228 7.49902 5.71342 7.49902 5.51744V0.725688C7.49902 0.529714 7.65789 0.37085 7.85386 0.37085C8.04984 0.37085 8.2087 0.529714 8.2087 0.725688V5.51744C8.2087 5.71342 8.04982 5.87228 7.85386 5.87228Z" fill="#73D4D4"/>
</g>
<defs>
<clipPath id="clip0_856_214816">
<rect width="22" height="22" fill="white" transform="translate(0.5)"/>
</clipPath>
</defs>
</svg>
