<svg width="83" height="83" viewBox="0 0 83 83" fill="none" xmlns="http://www.w3.org/2000/svg">
<path d="M67.1608 83H15.8392C7.12417 83 0 75.8758 0 67.1608V15.8392C0 7.12417 7.12417 0 15.8392 0H67.147C75.862 0 82.9862 7.12417 82.9862 15.8392V67.147C83 75.8758 75.8758 83 67.1608 83Z" fill="#ED1C24"/>
<path d="M41.5001 77.7155C61.5014 77.7155 77.7158 61.5012 77.7158 41.4998C77.7158 21.4985 61.5014 5.28418 41.5001 5.28418C21.4987 5.28418 5.28442 21.4985 5.28442 41.4998C5.28442 61.5012 21.4987 77.7155 41.5001 77.7155Z" fill="white"/>
<path d="M40.8359 56.4545C40.8359 56.745 40.7252 57.0078 40.4762 57.2015C40.2411 57.3952 39.8814 57.5197 39.4111 57.5197C38.8439 57.5197 38.3044 57.326 38.0139 57.0217L37.9724 56.9802L38.1937 56.5375L38.2629 56.6067C38.4981 56.8418 38.9546 57.0217 39.4111 57.0217C39.7431 57.0217 39.9644 56.9525 40.1027 56.8557C40.2411 56.7588 40.2964 56.6205 40.3102 56.4683C40.3102 56.3023 40.2411 56.2055 40.1304 56.1225C40.0197 56.0395 39.8537 55.9703 39.6601 55.915C39.2727 55.8043 38.8024 55.7352 38.4566 55.5C38.2352 55.3478 38.0692 55.0988 38.0692 54.7392C38.0692 54.4487 38.1799 54.1858 38.4151 53.9783C38.6502 53.7847 39.0099 53.6602 39.4802 53.6602C39.9091 53.6602 40.3379 53.7847 40.6422 53.9922L40.6976 54.0337L40.5039 54.4763L40.4209 54.421C40.1304 54.2273 39.7707 54.1305 39.4664 54.1305C39.1482 54.1305 38.9269 54.1997 38.7886 54.3103C38.6502 54.421 38.5949 54.5593 38.5949 54.7115C38.5949 54.8775 38.6641 54.9743 38.7747 55.0712C38.8854 55.1542 39.0514 55.2233 39.2451 55.2787C39.6324 55.3893 40.1027 55.4585 40.4486 55.6937C40.6837 55.8597 40.8359 56.1087 40.8359 56.4545ZM49.1221 53.7155H48.4719L46.4522 55.7905V53.7155H45.9127V57.492H46.4522V56.496L47.1162 55.832L48.5687 57.492H49.2189L47.4759 55.4308L49.1221 53.7155ZM52.4144 54.0613C52.6911 54.2827 52.8432 54.6285 52.8432 55.0297C52.8432 55.4308 52.6911 55.7628 52.4144 55.998C52.1377 56.2193 51.7504 56.3438 51.2801 56.3438H50.3809V57.492H49.8414V53.7155H51.2801C51.7642 53.7155 52.1516 53.84 52.4144 54.0613ZM50.3947 55.8597H51.2801C51.6259 55.8597 51.8887 55.7767 52.0547 55.6383C52.2207 55.5 52.3037 55.3063 52.3037 55.0297C52.3037 54.753 52.2207 54.5593 52.0547 54.421C51.8887 54.2827 51.6259 54.1997 51.2801 54.1997H50.3947V55.8597ZM44.3219 55.334H42.3022V53.7155H41.7766V57.492H42.3022V55.8597H44.3219V57.492H44.8476V57.409V53.7155H44.3219V55.334Z" fill="black"/>
<path d="M31.36 54.6006C30.9865 54.6006 30.6407 54.739 30.4055 55.0018V53.5078H29.8799V57.5056H30.3917V57.1183C30.6269 57.3811 30.9727 57.5333 31.36 57.5333C31.7612 57.5333 32.1209 57.3811 32.3837 57.1321C32.6466 56.8693 32.7987 56.5096 32.7987 56.0808C32.7987 55.652 32.6466 55.2785 32.3837 55.0295C32.1347 54.739 31.775 54.6006 31.36 54.6006ZM32.273 56.0531C32.273 56.648 31.8719 57.0353 31.3324 57.0353C31.0557 57.0353 30.8344 56.9385 30.6684 56.7725C30.5024 56.6065 30.4055 56.3575 30.4055 56.0531C30.4055 55.7488 30.5024 55.5136 30.6684 55.3338C30.8344 55.1678 31.0695 55.071 31.3324 55.071C31.8719 55.071 32.273 55.4583 32.273 56.0531ZM35.9389 54.6145H36.0634L34.6524 57.7685C34.5417 58.0451 34.4034 58.225 34.2374 58.3495C34.0714 58.474 33.8777 58.5155 33.684 58.5155C33.4074 58.5155 33.1445 58.4325 32.9647 58.2388L32.9232 58.1973L33.1722 57.7962L33.2414 57.8653C33.3659 57.9898 33.5042 58.0451 33.684 58.0451C33.7947 58.0451 33.8777 58.0175 33.9469 57.9621C34.0299 57.9068 34.099 57.7961 34.1682 57.6301L34.2789 57.395L33.0339 54.6006H33.5872L34.5555 56.8001L35.5239 54.6006H35.5792H35.9389V54.6145Z" fill="black"/>
<path d="M42.1501 48.7485C41.9565 48.5548 41.7075 48.458 41.4585 48.458C41.2095 48.458 40.9605 48.5548 40.7668 48.7485C40.5731 48.9422 40.4763 49.1912 40.4763 49.4402C40.4763 49.6892 40.5731 49.9382 40.7668 50.1318C40.9605 50.3255 41.2095 50.4223 41.4585 50.4223C41.7075 50.4223 41.9565 50.3255 42.1501 50.1318C42.3438 49.9382 42.4406 49.6892 42.4406 49.4402C42.4406 49.1912 42.3438 48.9422 42.1501 48.7485Z" fill="#AA8F5F"/>
<path d="M41.3478 31.9551C41.168 31.9551 41.002 32.0104 40.8775 32.1349C40.753 32.2456 40.6838 32.3977 40.6838 32.5637V46.4524C40.6838 46.6184 40.753 46.7706 40.8775 46.8812C41.002 47.0057 41.168 47.0611 41.3478 47.0611H41.5692C41.7352 47.0611 41.9012 47.0057 42.0257 46.8951C42.1502 46.7844 42.2332 46.6322 42.2332 46.4662V32.5499C42.2332 32.3839 42.1502 32.2317 42.0257 32.1211C41.9012 32.0104 41.7352 31.9551 41.5692 31.9551H41.3478Z" fill="#AA8F5F"/>
<path d="M35.6623 33.4073C35.3027 33.0476 34.8739 32.7571 34.3759 32.5358C33.8779 32.3144 33.449 32.1761 33.0478 32.1069C32.6605 32.0378 32.2732 32.0101 31.872 32.0101C31.4847 32.0101 31.0974 32.0378 30.7239 32.0931C30.3504 32.1484 29.9077 32.2868 29.4097 32.4943C28.9117 32.7156 28.4829 32.9923 28.1232 33.3381C27.7635 33.6839 27.4454 34.1958 27.1964 34.8459C26.9335 35.4961 26.809 36.2569 26.809 37.1284V41.3199C26.809 42.1638 26.9335 42.9108 27.1825 43.5748C27.4315 44.2388 27.7359 44.7506 28.0955 45.1103C28.4552 45.4699 28.9532 45.8019 29.5895 46.1063C30.2259 46.4106 30.9867 46.5628 31.8859 46.5628C32.7435 46.5628 33.5597 46.3829 34.3343 46.0371C34.8185 45.8158 35.2474 45.5253 35.6209 45.1656C35.9944 44.8059 36.2987 44.2803 36.5615 43.6163C36.8243 42.9523 36.9489 42.1776 36.9489 41.3061V37.1146C36.9489 36.2708 36.8244 35.5238 36.5753 34.8736C36.3402 34.2649 36.022 33.7669 35.6623 33.4073ZM30.9729 33.1998C31.2772 33.1583 31.5815 33.1306 31.8859 33.1306C32.1902 33.1306 32.4945 33.1583 32.785 33.1998C33.0755 33.2413 33.4214 33.3519 33.8087 33.5318C34.196 33.6978 34.528 33.9191 34.8185 34.2096C35.0952 34.4863 35.3442 34.8874 35.5517 35.4131C35.7592 35.9388 35.856 36.5474 35.856 37.2391V41.2784C35.856 41.9701 35.7592 42.5926 35.5655 43.1183C35.3719 43.6439 35.1229 44.0589 34.8462 44.3494C34.5557 44.6399 34.2237 44.8751 33.8502 45.0549C33.4628 45.2348 33.1308 45.3454 32.8265 45.4008C32.5222 45.4561 32.2178 45.4838 31.9135 45.4838C31.6092 45.4838 31.3049 45.4561 31.0005 45.4008C30.6962 45.3454 30.3503 45.2348 29.9768 45.0549C29.6033 44.8751 29.2575 44.6399 28.967 44.3494C28.6765 44.0589 28.4275 43.6439 28.2339 43.1183C28.0402 42.5926 27.9434 41.9701 27.9434 41.2784V37.2391C27.9434 36.5474 28.0402 35.9388 28.2339 35.4131C28.4275 34.8874 28.6765 34.4863 28.9532 34.2096C29.2437 33.9329 29.5757 33.7116 29.963 33.5318C30.3365 33.3519 30.6824 33.2413 30.9729 33.1998ZM23.6135 34.0021C23.8763 34.5278 24.0147 35.1641 24.0147 35.8834C24.0147 36.9763 23.6965 37.9031 23.0602 38.6501C22.41 39.3971 21.3034 39.7706 19.7264 39.7706H18.3707C18.2324 39.7706 18.1217 39.7291 18.0387 39.6323C17.9557 39.5354 17.9142 39.4386 17.9142 39.3141V39.1343C17.9142 38.9959 17.9557 38.8714 18.0249 38.7884C18.1079 38.7054 18.2185 38.6778 18.3707 38.6778H19.4912C20.9852 38.6778 21.9397 38.3596 22.3547 37.7509C22.7144 37.2391 22.908 36.6166 22.908 35.8834C22.908 34.9151 22.6037 34.2234 21.995 33.7946C21.3725 33.3658 20.6532 33.1444 19.8094 33.1444H16.8905V46.0924C16.8905 46.2169 16.849 46.3276 16.7522 46.4106C16.6692 46.5074 16.5585 46.5489 16.434 46.5489H16.2265C16.102 46.5489 15.9914 46.5074 15.9084 46.4106C15.8115 46.3276 15.77 46.2169 15.77 46.0924V32.9646C15.77 32.6049 15.8254 32.3559 15.9637 32.2038C16.102 32.0654 16.351 32.0101 16.7245 32.0101H19.92C20.8884 32.0101 21.7875 32.2729 22.6037 32.7986C22.991 33.0753 23.3507 33.4764 23.6135 34.0021ZM55.6377 32.1346C55.7207 32.2314 55.7622 32.3283 55.7622 32.4528V45.7189C55.7622 46.0094 55.6792 46.2169 55.5132 46.3691C55.3472 46.5074 55.112 46.5766 54.8077 46.5766C54.5033 46.5766 54.2405 46.4106 54.0468 46.1063L46.812 33.6978V46.0924C46.812 46.2169 46.7705 46.3276 46.6737 46.4106C46.5907 46.5074 46.48 46.5489 46.3555 46.5489H46.1342C46.0097 46.5489 45.899 46.5074 45.816 46.4106C45.733 46.3138 45.6915 46.2169 45.6915 46.0924V32.8678C45.6915 32.5773 45.7607 32.3559 45.899 32.2038C46.0373 32.0516 46.2448 31.9824 46.5077 31.9824C46.895 31.9824 47.1993 32.1623 47.4207 32.4943C50.0352 36.8379 52.456 40.9741 54.6555 44.9028V32.4804C54.6555 32.3559 54.697 32.2453 54.78 32.1623C54.863 32.0654 54.9737 32.0239 55.112 32.0239H55.3195C55.4302 31.9963 55.5547 32.0378 55.6377 32.1346ZM63.578 33.6701C63.661 33.7531 63.7025 33.8638 63.7025 34.0021V46.0648C63.7025 46.1893 63.661 46.2999 63.578 46.3829C63.495 46.4798 63.3843 46.5213 63.246 46.5213H63.0385C62.9002 46.5213 62.7895 46.4798 62.7065 46.3829C62.6235 46.2861 62.582 46.1893 62.582 46.0648V34.0021C62.582 33.8638 62.6235 33.7531 62.7065 33.6701C62.7895 33.5871 62.9002 33.5594 63.0524 33.5594H63.2598C63.3843 33.5594 63.5089 33.6009 63.578 33.6701ZM68.1983 32.4528V32.6741C68.1983 32.8124 68.1568 32.9093 68.0738 32.9923C67.9908 33.0614 67.8802 33.1029 67.728 33.1029H58.5703C58.432 33.1029 58.3075 33.0753 58.2245 32.9923C58.1415 32.9231 58.1 32.8124 58.1 32.6741V32.4528C58.1 32.3283 58.1415 32.2176 58.2383 32.1346C58.3213 32.0378 58.432 31.9963 58.5565 31.9963H67.7142C67.8525 31.9963 67.9632 32.0378 68.0462 32.1346C68.1568 32.2314 68.1983 32.3421 68.1983 32.4528Z" fill="black"/>
<path d="M38.9408 24.9418H37.7788V28.1927H37.2531V24.9418H36.105V24.4162H38.9408V24.9418ZM42.3161 24.4162H42.8418V28.1097V28.1927H42.3161V26.5603H40.2965V28.1927H39.7708V24.4162H40.2965V26.0347H42.3161V24.4162ZM46.6045 27.6532H44.5433V26.5465H46.314V26.0208H44.5433V24.928H46.5353V24.4023H44.0038V28.1788H46.5906V27.6532H46.6045Z" fill="black"/>
</svg>
