<svg xmlns="http://www.w3.org/2000/svg" width="1010" height="673.6" viewBox="0 0 1010 673.6"><defs><style>.a{fill:#4e51cc;}.b{fill:#fff;}</style></defs><title>アートボード 2</title><circle class="a" cx="223.31" cy="412.3" r="12.71"/><polygon class="b" points="227.9 420.2 225.6 414.38 221.14 414.38 221.14 408.25 223.96 408.25 223.96 410.62 225.82 410.62 225.82 411.26 223.32 411.26 223.32 408.89 221.78 408.89 221.78 413.73 226.04 413.73 228.5 419.96 227.9 420.2"/><path class="b" d="M222.62,420.4a4.71,4.71,0,0,1-4.51-4.88,4.87,4.87,0,0,1,3.25-4.68l.19.61a4.23,4.23,0,0,0-2.8,4.07,4.07,4.07,0,0,0,3.87,4.24,4,4,0,0,0,3.8-3.44l.63.11A4.62,4.62,0,0,1,222.62,420.4Z"/><path class="b" d="M222.58,407.36a1.58,1.58,0,1,1,1.48-1.58A1.53,1.53,0,0,1,222.58,407.36Zm0-2.52a.95.95,0,1,0,.84.94A.89.89,0,0,0,222.58,404.84Z"/></svg>