<svg xmlns="http://www.w3.org/2000/svg" width="1010" height="673.6" viewBox="0 0 1010 673.6"><defs><style>.a{fill:#ffcc57;}.b{fill:#221e1f;}</style></defs><title>アートボード 2</title><circle class="a" cx="151.03" cy="279.33" r="12.71"/><path class="b" d="M157.08,287.93H145V274.81h12.11Zm-11.5-.61h10.89V275.41H145.58Z"/><path d="M147.5,279.36a.73.73,0,0,0,.54-.24.9.9,0,0,0,0-1.18.73.73,0,0,0-1.08,0,.87.87,0,0,0,0,1.18A.73.73,0,0,0,147.5,279.36Zm-.22-1.07a.26.26,0,0,1,.22-.1.27.27,0,0,1,.22.1.32.32,0,0,1,.09.24.34.34,0,0,1-.09.24.3.3,0,0,1-.22.1.29.29,0,0,1-.22-.1.35.35,0,0,1-.1-.24A.33.33,0,0,1,147.28,278.29Z"/><polygon points="147.72 280.01 148.38 280.01 148.38 282.42 148.83 282.42 148.83 279.52 146.16 279.52 146.16 282.42 146.61 282.42 146.61 280.01 147.27 280.01 147.27 282.36 145.82 285.1 146.21 285.34 147.5 282.91 148.79 285.34 149.18 285.1 147.72 282.36 147.72 280.01"/><path d="M151,279.36a.73.73,0,0,0,.54-.24.9.9,0,0,0,0-1.18.73.73,0,0,0-.54-.24.72.72,0,0,0-.54.24.87.87,0,0,0,0,1.18A.72.72,0,0,0,151,279.36Zm-.23-1.07a.29.29,0,0,1,.23-.1.27.27,0,0,1,.22.1.32.32,0,0,1,.09.24.34.34,0,0,1-.09.24.3.3,0,0,1-.22.1.33.33,0,0,1-.23-.1.39.39,0,0,1-.09-.24A.37.37,0,0,1,150.8,278.29Z"/><polygon points="151.25 280.01 151.91 280.01 151.91 282.42 152.36 282.42 152.36 279.52 149.69 279.52 149.69 282.42 150.14 282.42 150.14 280.01 150.8 280.01 150.8 282.36 149.35 285.1 149.74 285.34 151.03 282.91 152.32 285.34 152.71 285.1 151.25 282.36 151.25 280.01"/><path d="M154.55,279.36a.7.7,0,0,0,.54-.24.87.87,0,0,0,0-1.18.7.7,0,0,0-.54-.24.73.73,0,0,0-.54.24.9.9,0,0,0,0,1.18A.73.73,0,0,0,154.55,279.36Zm-.22-1.07a.28.28,0,0,1,.22-.1.29.29,0,0,1,.23.1.37.37,0,0,1,.09.24.39.39,0,0,1-.09.24.33.33,0,0,1-.23.1.32.32,0,0,1-.22-.1.34.34,0,0,1-.09-.24A.32.32,0,0,1,154.33,278.29Z"/><polygon points="154.78 282.36 154.78 280.01 155.44 280.01 155.44 282.42 155.89 282.42 155.89 279.52 153.22 279.52 153.22 282.42 153.67 282.42 153.67 280.01 154.33 280.01 154.33 282.36 152.88 285.1 153.27 285.34 154.56 282.91 155.84 285.34 156.23 285.1 154.78 282.36"/><rect class="b" x="153.29" y="270.74" width="0.61" height="2.66"/><polygon class="b" points="153.59 273.84 151.98 272.08 152.42 271.67 153.59 272.94 154.76 271.67 155.21 272.08 153.59 273.84"/><rect class="b" x="148.16" y="271.21" width="0.61" height="2.66"/><polygon class="b" points="147.29 272.93 146.84 272.52 148.46 270.76 150.08 272.52 149.63 272.93 148.46 271.66 147.29 272.93"/></svg>