<svg xmlns="http://www.w3.org/2000/svg" width="1010" height="673.6" viewBox="0 0 1010 673.6"><defs><style>.a{fill:#9413bf;}.b{fill:#fff;}</style></defs><title>アートボード 2</title><circle class="a" cx="235.61" cy="500.5" r="12.71"/><path class="b" d="M239.1,496.27a1.94,1.94,0,1,1,1.8-1.94A1.88,1.88,0,0,1,239.1,496.27Zm0-3.12a1.19,1.19,0,1,0,1.06,1.18A1.12,1.12,0,0,0,239.1,493.15Z"/><path class="b" d="M230.35,502.4a1.94,1.94,0,1,1,1.81-1.93A1.88,1.88,0,0,1,230.35,502.4Zm0-3.12a1.2,1.2,0,1,0,1.06,1.19A1.13,1.13,0,0,0,230.35,499.28Z"/><polygon class="b" points="240.82 508.6 240.07 508.6 240.07 501.53 242.79 501.53 242.79 502.28 240.82 502.28 240.82 508.6"/><rect class="b" x="228.06" y="503.24" width="12.39" height="0.75"/><polygon class="b" points="243.16 508.6 242.42 508.6 242.42 502 240.32 497.93 237.89 499.85 237.43 499.27 240.57 496.79 243.16 501.81 243.16 508.6"/><polygon class="b" points="235.19 501.5 233.5 501.5 233.5 498.25 232.77 498.25 232.77 498.65 232.77 502.31 235.67 502.31 237.3 498.25 236.5 498.25 235.19 501.5"/></svg>