<svg xmlns="http://www.w3.org/2000/svg" width="1010" height="673.6" viewBox="0 0 1010 673.6"><defs><style>.a{fill:#4e51cc;}.b{fill:#fff;}</style></defs><title>アートボード 2</title><circle class="a" cx="207.85" cy="480.59" r="12.71"/><polygon class="b" points="212.45 488.48 210.15 482.66 205.68 482.66 205.68 476.53 208.5 476.53 208.5 478.91 210.36 478.91 210.36 479.55 207.86 479.55 207.86 477.18 206.32 477.18 206.32 482.02 210.58 482.02 213.04 488.24 212.45 488.48"/><path class="b" d="M207.16,488.68a4.7,4.7,0,0,1-4.5-4.87,4.86,4.86,0,0,1,3.25-4.69l.19.61a4.23,4.23,0,0,0-2.8,4.08,4.06,4.06,0,0,0,3.86,4.23,4,4,0,0,0,3.8-3.44l.63.11A4.61,4.61,0,0,1,207.16,488.68Z"/><path class="b" d="M207.13,475.64a1.58,1.58,0,0,1,0-3.15,1.58,1.58,0,0,1,0,3.15Zm0-2.51a.94.94,0,1,0,.83.93A.89.89,0,0,0,207.13,473.13Z"/></svg>