<svg xmlns="http://www.w3.org/2000/svg" width="1010" height="673.6" viewBox="0 0 1010 673.6"><defs><style>.a{fill:#ffcc57;}.b{fill:#221e1f;}</style></defs><title>アートボード 2</title><circle class="a" cx="149.88" cy="310.22" r="12.71"/><path class="b" d="M155.93,318.82h-12.1V305.7h12.1Zm-11.49-.61h10.89V306.3H144.44Z"/><path d="M146.35,310.25a.76.76,0,0,0,.55-.24.9.9,0,0,0,0-1.18.76.76,0,0,0-.55-.24.73.73,0,0,0-.54.24.9.9,0,0,0,0,1.18A.73.73,0,0,0,146.35,310.25Zm-.22-1.07a.32.32,0,0,1,.22-.1.33.33,0,0,1,.23.1.39.39,0,0,1,.09.24.37.37,0,0,1-.09.24.29.29,0,0,1-.23.1.28.28,0,0,1-.22-.1.32.32,0,0,1-.09-.24A.34.34,0,0,1,146.13,309.18Z"/><polygon points="146.58 310.9 147.24 310.9 147.24 313.31 147.69 313.31 147.69 310.42 145.02 310.42 145.02 313.31 145.47 313.31 145.47 310.9 146.13 310.9 146.13 313.25 144.68 315.99 145.06 316.23 146.35 313.8 147.65 316.23 148.03 315.99 146.58 313.25 146.58 310.9"/><path d="M149.88,310.25a.72.72,0,0,0,.54-.24.87.87,0,0,0,0-1.18.72.72,0,0,0-.54-.24.73.73,0,0,0-.54.24.9.9,0,0,0,0,1.18A.73.73,0,0,0,149.88,310.25Zm-.22-1.07a.3.3,0,0,1,.22-.1.33.33,0,0,1,.23.1.39.39,0,0,1,.09.24.37.37,0,0,1-.09.24.29.29,0,0,1-.23.1.27.27,0,0,1-.22-.1.32.32,0,0,1-.09-.24A.34.34,0,0,1,149.66,309.18Z"/><polygon points="150.11 310.9 150.77 310.9 150.77 313.31 151.22 313.31 151.22 310.42 148.55 310.42 148.55 313.31 149 313.31 149 310.9 149.66 310.9 149.66 313.25 148.2 315.99 148.59 316.23 149.88 313.8 151.17 316.23 151.56 315.99 150.11 313.25 150.11 310.9"/><path d="M153.41,310.25A.73.73,0,0,0,154,310a.9.9,0,0,0,0-1.18.73.73,0,0,0-1.08,0,.9.9,0,0,0,0,1.18A.73.73,0,0,0,153.41,310.25Zm-.22-1.07a.3.3,0,0,1,.22-.1.29.29,0,0,1,.22.1.35.35,0,0,1,.1.24.33.33,0,0,1-.1.24.26.26,0,0,1-.22.1.27.27,0,0,1-.22-.1.32.32,0,0,1-.09-.24A.34.34,0,0,1,153.19,309.18Z"/><polygon points="153.63 313.25 153.63 310.9 154.29 310.9 154.29 313.31 154.74 313.31 154.74 310.42 152.08 310.42 152.08 313.31 152.53 313.31 152.53 310.9 153.19 310.9 153.19 313.25 151.73 315.99 152.12 316.23 153.41 313.8 154.7 316.23 155.09 315.99 153.63 313.25"/><rect class="b" x="152.15" y="301.63" width="0.61" height="2.66"/><polygon class="b" points="152.45 304.73 150.83 302.97 151.28 302.56 152.45 303.84 153.62 302.56 154.06 302.97 152.45 304.73"/><rect class="b" x="147.01" y="302.1" width="0.61" height="2.66"/><polygon class="b" points="146.15 303.82 145.7 303.41 147.32 301.65 148.93 303.41 148.49 303.82 147.32 302.55 146.15 303.82"/><circle class="a" cx="311.03" cy="140.7" r="12.71"/><path class="b" d="M317.08,149.3H305V136.18h12.1Zm-11.5-.61h10.89V136.78H305.58Z"/><path d="M307.5,140.73a.73.73,0,0,0,.54-.24.9.9,0,0,0,0-1.18.73.73,0,0,0-1.08,0,.9.9,0,0,0,0,1.18A.73.73,0,0,0,307.5,140.73Zm-.22-1.07a.29.29,0,0,1,.22-.1.3.3,0,0,1,.22.1.4.4,0,0,1,.1.24.38.38,0,0,1-.1.24.27.27,0,0,1-.22.1.26.26,0,0,1-.22-.1.38.38,0,0,1-.1-.24A.4.4,0,0,1,307.28,139.66Z"/><polygon points="307.73 141.38 308.38 141.38 308.38 143.79 308.83 143.79 308.83 140.9 306.17 140.9 306.17 143.79 306.62 143.79 306.62 141.38 307.27 141.38 307.27 143.73 305.82 146.47 306.21 146.71 307.5 144.28 308.79 146.71 309.18 146.47 307.73 143.73 307.73 141.38"/><path d="M311,140.73a.73.73,0,0,0,.54-.24.9.9,0,0,0,0-1.18.73.73,0,0,0-1.08,0,.87.87,0,0,0,0,1.18A.73.73,0,0,0,311,140.73Zm-.22-1.07a.29.29,0,0,1,.22-.1.3.3,0,0,1,.22.1.34.34,0,0,1,.09.24.32.32,0,0,1-.09.24.27.27,0,0,1-.22.1.26.26,0,0,1-.22-.1.33.33,0,0,1-.1-.24A.35.35,0,0,1,310.81,139.66Z"/><polygon points="311.25 141.38 311.91 141.38 311.91 143.79 312.36 143.79 312.36 140.9 309.69 140.9 309.69 143.79 310.14 143.79 310.14 141.38 310.8 141.38 310.8 143.73 309.35 146.47 309.74 146.71 311.03 144.28 312.32 146.71 312.71 146.47 311.25 143.73 311.25 141.38"/><path d="M314.56,140.73a.73.73,0,0,0,.54-.24.9.9,0,0,0,0-1.18.73.73,0,0,0-.54-.24.72.72,0,0,0-.54.24.87.87,0,0,0,0,1.18A.72.72,0,0,0,314.56,140.73Zm-.23-1.07a.33.33,0,0,1,.23-.1.32.32,0,0,1,.22.1.34.34,0,0,1,.09.24.32.32,0,0,1-.09.24.28.28,0,0,1-.22.1.29.29,0,0,1-.23-.1.37.37,0,0,1-.09-.24A.39.39,0,0,1,314.33,139.66Z"/><polygon points="314.78 143.73 314.78 141.38 315.44 141.38 315.44 143.79 315.89 143.79 315.89 140.9 313.22 140.9 313.22 143.79 313.67 143.79 313.67 141.38 314.33 141.38 314.33 143.73 312.88 146.47 313.27 146.71 314.56 144.28 315.85 146.71 316.24 146.47 314.78 143.73"/><rect class="b" x="313.29" y="132.11" width="0.61" height="2.66"/><polygon class="b" points="313.6 135.21 311.98 133.45 312.43 133.04 313.6 134.32 314.76 133.04 315.21 133.45 313.6 135.21"/><rect class="b" x="308.16" y="132.58" width="0.61" height="2.66"/><polygon class="b" points="307.29 134.3 306.85 133.89 308.46 132.13 310.08 133.89 309.63 134.3 308.46 133.03 307.29 134.3"/></svg>