<svg xmlns="http://www.w3.org/2000/svg" width="1010" height="673.6" viewBox="0 0 1010 673.6"><defs><style>.a{fill:#e51f8e;}.b{fill:#fff;}</style></defs><title>アートボード 2</title><circle class="a" cx="184.38" cy="455.26" r="12.71"/><path class="b" d="M180.62,450.31a1.58,1.58,0,1,1,1.48-1.58A1.53,1.53,0,0,1,180.62,450.31Zm0-2.54a1,1,0,1,0,.87,1A.92.92,0,0,0,180.62,447.77Z"/><polygon class="b" points="183.33 457.16 182.72 457.16 182.72 451.72 178.53 451.72 178.53 457.16 177.92 457.16 177.92 451.11 183.33 451.11 183.33 457.16"/><rect class="b" x="180.32" y="451.41" width="0.61" height="5.74"/><polygon class="b" points="183.57 463.36 180.62 457.81 177.68 463.36 177.14 463.07 180.62 456.51 184.1 463.07 183.57 463.36"/><path class="b" d="M188.13,450.31a1.58,1.58,0,1,1,1.47-1.57A1.52,1.52,0,0,1,188.13,450.31Zm0-2.54a1,1,0,1,0,.87,1A.92.92,0,0,0,188.13,447.77Z"/><polygon class="b" points="189.39 463.36 188.78 463.36 188.78 457.71 187.48 457.71 187.48 463.36 186.87 463.36 186.87 457.1 189.39 457.1 189.39 463.36"/><polygon class="b" points="191.08 457.87 188.13 452.32 185.19 457.87 184.65 457.58 188.13 451.02 191.61 457.58 191.08 457.87"/></svg>