<svg xmlns="http://www.w3.org/2000/svg" width="1010" height="673.6" viewBox="0 0 1010 673.6"><defs><style>.a{fill:#9413bf;}.b{fill:#fff;}</style></defs><title>アートボード 2</title><circle class="a" cx="394.58" cy="506.49" r="12.71"/><path class="b" d="M398.06,502.26a1.94,1.94,0,1,1,1.81-1.93A1.88,1.88,0,0,1,398.06,502.26Zm0-3.12a1.19,1.19,0,1,0,1.06,1.19A1.13,1.13,0,0,0,398.06,499.14Z"/><path class="b" d="M389.32,508.4a1.94,1.94,0,1,1,1.8-1.94A1.88,1.88,0,0,1,389.32,508.4Zm0-3.13a1.2,1.2,0,1,0,1.06,1.19A1.14,1.14,0,0,0,389.32,505.27Z"/><polygon class="b" points="399.78 514.59 399.04 514.59 399.04 507.52 401.76 507.52 401.76 508.27 399.78 508.27 399.78 514.59"/><rect class="b" x="387.02" y="509.23" width="12.39" height="0.75"/><polygon class="b" points="402.13 514.59 401.38 514.59 401.38 507.99 399.29 503.93 396.86 505.85 396.39 505.26 399.53 502.78 402.13 507.81 402.13 514.59"/><polygon class="b" points="394.16 507.5 392.47 507.5 392.47 504.25 391.73 504.25 391.73 504.65 391.73 508.3 394.64 508.3 396.27 504.25 395.46 504.25 394.16 507.5"/></svg>