<svg xmlns="http://www.w3.org/2000/svg" width="1010" height="673.6" viewBox="0 0 1010 673.6"><defs><style>.a{fill:#4e51cc;}.b{fill:#fff;}</style></defs><title>アートボード 2</title><circle class="a" cx="332.73" cy="489.76" r="12.71"/><polygon class="b" points="337.32 497.66 335.02 491.84 330.56 491.84 330.56 485.71 333.38 485.71 333.38 488.09 335.24 488.09 335.24 488.73 332.74 488.73 332.74 486.35 331.2 486.35 331.2 491.2 335.46 491.2 337.92 497.42 337.32 497.66"/><path class="b" d="M332,497.86a4.71,4.71,0,0,1-4.51-4.87,4.87,4.87,0,0,1,3.25-4.69l.2.61a4.22,4.22,0,0,0-2.8,4.08,4.06,4.06,0,0,0,3.86,4.23,4,4,0,0,0,3.8-3.44l.63.11A4.62,4.62,0,0,1,332,497.86Z"/><path class="b" d="M332,484.82a1.58,1.58,0,1,1,1.47-1.58A1.53,1.53,0,0,1,332,484.82Zm0-2.51a.94.94,0,1,0,.83.93A.89.89,0,0,0,332,482.31Z"/><circle class="a" cx="212.57" cy="462.39" r="12.71"/><polygon class="b" points="217.16 470.28 214.87 464.46 210.4 464.46 210.4 458.34 213.22 458.34 213.22 460.71 215.08 460.71 215.08 461.35 212.58 461.35 212.58 458.98 211.04 458.98 211.04 463.82 215.3 463.82 217.76 470.04 217.16 470.28"/><path class="b" d="M211.88,470.49a4.71,4.71,0,0,1-4.5-4.88,4.86,4.86,0,0,1,3.25-4.69l.19.61a4.23,4.23,0,0,0-2.8,4.08,4.06,4.06,0,0,0,3.86,4.23,4,4,0,0,0,3.8-3.44l.63.11A4.62,4.62,0,0,1,211.88,470.49Z"/><path class="b" d="M211.85,457.44a1.58,1.58,0,1,1,1.47-1.58A1.53,1.53,0,0,1,211.85,457.44Zm0-2.51a.94.94,0,1,0,.83.93A.89.89,0,0,0,211.85,454.93Z"/></svg>