<svg xmlns="http://www.w3.org/2000/svg" width="1010" height="673.6" viewBox="0 0 1010 673.6"><defs><style>.a{fill:#ffcc57;}.b{fill:#221e1f;}</style></defs><title>アートボード 2</title><circle class="a" cx="184.45" cy="326.26" r="12.71"/><path class="b" d="M190.5,334.86H178.4V321.74h12.1Zm-11.5-.61h10.9V322.34H179Z"/><path d="M180.92,326.29a.72.72,0,0,0,.54-.24.87.87,0,0,0,0-1.18.72.72,0,0,0-.54-.24.73.73,0,0,0-.54.24.9.9,0,0,0,0,1.18A.73.73,0,0,0,180.92,326.29Zm-.22-1.07a.32.32,0,0,1,.22-.1.33.33,0,0,1,.23.1.39.39,0,0,1,.09.24.37.37,0,0,1-.09.24.29.29,0,0,1-.23.1.28.28,0,0,1-.22-.1.32.32,0,0,1-.09-.24A.34.34,0,0,1,180.7,325.22Z"/><polygon points="181.15 326.94 181.81 326.94 181.81 329.35 182.26 329.35 182.26 326.46 179.59 326.46 179.59 329.35 180.04 329.35 180.04 326.94 180.7 326.94 180.7 329.29 179.24 332.03 179.63 332.27 180.92 329.84 182.21 332.27 182.6 332.03 181.15 329.29 181.15 326.94"/><path d="M184.45,326.29a.73.73,0,0,0,.54-.24.87.87,0,0,0,0-1.18.73.73,0,0,0-1.08,0,.9.9,0,0,0,0,1.18A.73.73,0,0,0,184.45,326.29Zm-.22-1.07a.3.3,0,0,1,.22-.1.29.29,0,0,1,.22.1.35.35,0,0,1,.1.24.33.33,0,0,1-.1.24.26.26,0,0,1-.22.1.27.27,0,0,1-.22-.1.32.32,0,0,1-.09-.24A.34.34,0,0,1,184.23,325.22Z"/><polygon points="184.68 326.94 185.34 326.94 185.34 329.35 185.78 329.35 185.78 326.46 183.12 326.46 183.12 329.35 183.57 329.35 183.57 326.94 184.23 326.94 184.23 329.29 182.77 332.03 183.16 332.27 184.45 329.84 185.74 332.27 186.13 332.03 184.68 329.29 184.68 326.94"/><path d="M188,326.29a.73.73,0,0,0,.54-.24.9.9,0,0,0,0-1.18.73.73,0,0,0-1.08,0,.87.87,0,0,0,0,1.18A.73.73,0,0,0,188,326.29Zm-.22-1.07a.29.29,0,0,1,.22-.1.3.3,0,0,1,.22.1.34.34,0,0,1,.09.24.32.32,0,0,1-.09.24.27.27,0,0,1-.22.1.26.26,0,0,1-.22-.1.33.33,0,0,1-.1-.24A.35.35,0,0,1,187.76,325.22Z"/><polygon points="188.2 329.29 188.2 326.94 188.86 326.94 188.86 329.35 189.31 329.35 189.31 326.46 186.65 326.46 186.65 329.35 187.09 329.35 187.09 326.94 187.75 326.94 187.75 329.29 186.3 332.03 186.69 332.27 187.98 329.84 189.27 332.27 189.66 332.03 188.2 329.29"/><rect class="b" x="186.71" y="317.67" width="0.61" height="2.66"/><polygon class="b" points="187.02 320.77 185.4 319.01 185.85 318.6 187.02 319.88 188.19 318.6 188.63 319.01 187.02 320.77"/><rect class="b" x="181.58" y="318.14" width="0.61" height="2.66"/><polygon class="b" points="180.72 319.86 180.27 319.45 181.88 317.7 183.5 319.45 183.05 319.86 181.88 318.59 180.72 319.86"/><circle class="a" cx="321.1" cy="153.16" r="12.71"/><path class="b" d="M327.15,161.75h-12.1V148.63h12.1Zm-11.49-.6h10.89V149.24H315.66Z"/><path d="M317.57,153.19a.73.73,0,0,0,.54-.25.84.84,0,0,0,.23-.58.87.87,0,0,0-.23-.59.73.73,0,0,0-.54-.25.74.74,0,0,0-.54.25.86.86,0,0,0-.22.59.83.83,0,0,0,.22.58A.74.74,0,0,0,317.57,153.19Zm-.22-1.08a.32.32,0,0,1,.22-.1.33.33,0,0,1,.23.1.42.42,0,0,1,.09.25.39.39,0,0,1-.09.24.33.33,0,0,1-.23.1.32.32,0,0,1-.22-.1.34.34,0,0,1-.09-.24A.37.37,0,0,1,317.35,152.11Z"/><polygon points="317.8 153.84 318.46 153.84 318.46 156.25 318.91 156.25 318.91 153.35 316.24 153.35 316.24 156.25 316.69 156.25 316.69 153.84 317.35 153.84 317.35 156.18 315.89 158.93 316.28 159.17 317.57 156.74 318.86 159.17 319.25 158.93 317.8 156.18 317.8 153.84"/><path d="M321.1,153.19a.74.74,0,0,0,.54-.25.84.84,0,0,0,.23-.58.87.87,0,0,0-.23-.59.71.71,0,0,0-1.08,0,.86.86,0,0,0-.22.59.83.83,0,0,0,.22.58A.74.74,0,0,0,321.1,153.19Zm-.22-1.08a.3.3,0,0,1,.22-.1.29.29,0,0,1,.22.1.37.37,0,0,1,.1.25.35.35,0,0,1-.1.24.29.29,0,0,1-.22.1.3.3,0,0,1-.22-.1.34.34,0,0,1-.09-.24A.37.37,0,0,1,320.88,152.11Z"/><polygon points="321.33 153.84 321.99 153.84 321.99 156.25 322.44 156.25 322.44 153.35 319.77 153.35 319.77 156.25 320.22 156.25 320.22 153.84 320.88 153.84 320.88 156.18 319.42 158.93 319.81 159.17 321.1 156.74 322.39 159.17 322.78 158.93 321.33 156.18 321.33 153.84"/><path d="M324.63,153.19a.74.74,0,0,0,.54-.25.83.83,0,0,0,.22-.58.86.86,0,0,0-.22-.59.71.71,0,0,0-1.08,0,.87.87,0,0,0-.23.59.84.84,0,0,0,.23.58A.74.74,0,0,0,324.63,153.19Zm-.22-1.08a.29.29,0,0,1,.22-.1.3.3,0,0,1,.22.1.37.37,0,0,1,.09.25.34.34,0,0,1-.09.24.3.3,0,0,1-.22.1.29.29,0,0,1-.22-.1.35.35,0,0,1-.1-.24A.37.37,0,0,1,324.41,152.11Z"/><polygon points="324.85 156.18 324.85 153.84 325.51 153.84 325.51 156.25 325.96 156.25 325.96 153.35 323.3 153.35 323.3 156.25 323.75 156.25 323.75 153.84 324.4 153.84 324.4 156.18 322.95 158.93 323.34 159.17 324.63 156.74 325.92 159.17 326.31 158.93 324.85 156.18"/><rect class="b" x="323.37" y="144.56" width="0.61" height="2.66"/><polygon class="b" points="323.67 147.67 322.05 145.91 322.5 145.5 323.67 146.77 324.84 145.5 325.28 145.91 323.67 147.67"/><rect class="b" x="318.23" y="145.04" width="0.61" height="2.66"/><polygon class="b" points="317.37 146.76 316.92 146.35 318.54 144.59 320.15 146.35 319.7 146.76 318.54 145.49 317.37 146.76"/></svg>