<svg xmlns="http://www.w3.org/2000/svg" width="1010" height="673.6" viewBox="0 0 1010 673.6"><defs><style>.a{fill:#e51f8e;}.b{fill:#fff;}</style></defs><title>アートボード 2</title><circle class="a" cx="365.41" cy="489.76" r="12.71"/><path class="b" d="M361.66,484.82a1.58,1.58,0,1,1,1.47-1.58A1.53,1.53,0,0,1,361.66,484.82Zm0-2.55a1,1,0,1,0,.86,1A.92.92,0,0,0,361.66,482.27Z"/><polygon class="b" points="364.36 491.67 363.75 491.67 363.75 486.23 359.56 486.23 359.56 491.67 358.96 491.67 358.96 485.62 364.36 485.62 364.36 491.67"/><rect class="b" x="361.36" y="485.92" width="0.61" height="5.74"/><polygon class="b" points="364.6 497.86 361.66 492.31 358.72 497.86 358.18 497.58 361.66 491.02 365.14 497.58 364.6 497.86"/><path class="b" d="M369.17,484.82a1.58,1.58,0,1,1,1.47-1.57A1.53,1.53,0,0,1,369.17,484.82Zm0-2.54a1,1,0,1,0,.86,1A.92.92,0,0,0,369.17,482.28Z"/><polygon class="b" points="370.43 497.86 369.82 497.86 369.82 492.21 368.52 492.21 368.52 497.86 367.91 497.86 367.91 491.61 370.43 491.61 370.43 497.86"/><polygon class="b" points="372.11 492.37 369.17 486.82 366.22 492.37 365.69 492.09 369.17 485.53 372.65 492.09 372.11 492.37"/><circle class="a" cx="185.72" cy="440.24" r="12.71"/><path class="b" d="M182,435.29a1.58,1.58,0,1,1,1.48-1.58A1.53,1.53,0,0,1,182,435.29Zm0-2.54a1,1,0,1,0,.87,1A.92.92,0,0,0,182,432.75Z"/><polygon class="b" points="184.67 442.14 184.06 442.14 184.06 436.7 179.87 436.7 179.87 442.14 179.26 442.14 179.26 436.09 184.67 436.09 184.67 442.14"/><rect class="b" x="181.66" y="436.39" width="0.61" height="5.74"/><polygon class="b" points="184.91 448.33 181.96 442.79 179.02 448.33 178.48 448.05 181.96 441.49 185.44 448.05 184.91 448.33"/><path class="b" d="M189.47,435.29a1.58,1.58,0,1,1,1.47-1.57A1.52,1.52,0,0,1,189.47,435.29Zm0-2.54a1,1,0,1,0,.87,1A.92.92,0,0,0,189.47,432.75Z"/><polygon class="b" points="190.73 448.33 190.13 448.33 190.13 442.69 188.82 442.69 188.82 448.33 188.21 448.33 188.21 442.08 190.73 442.08 190.73 448.33"/><polygon class="b" points="192.42 442.85 189.47 437.3 186.53 442.85 185.99 442.56 189.47 436 192.95 442.56 192.42 442.85"/></svg>