<?xml version="1.0" encoding="utf-8"?>
<!-- Generator: Adobe Illustrator 22.0.1, SVG Export Plug-In . SVG Version: 6.00 Build 0)  -->
<svg version="1.1" id="icons" xmlns="http://www.w3.org/2000/svg" xmlns:xlink="http://www.w3.org/1999/xlink" x="0px" y="0px"
	 width="1010px" height="673.6px" viewBox="0 0 1010 673.6" style="enable-background:new 0 0 1010 673.6;" xml:space="preserve">
<style type="text/css">
	.st0{fill:#FF976E;}
	.st1{fill:#231F20;}
</style>
<g id="cinema">
	<g id="XMLID_1910_">
		<g id="XMLID_1911_">
			<g id="XMLID_1912_">
				<circle id="XMLID_1913_" class="st0" cx="798.45" cy="472.06" r="12.71"/>
			</g>
		</g>
	</g>
	<g id="XMLID_1550_">
		<g id="XMLID_1881_">
			<path id="XMLID_1882_" class="st1" d="M805.49,479.16h-13.73v-9.7h13.73V479.16z M792.31,478.61h12.64V470h-12.64V478.61z"/>
		</g>
		<g id="XMLID_1877_">
			<path id="XMLID_1878_" class="st1" d="M805.49,472h-13.73v-2.54h13.73V472z M792.31,471.45h12.64V470h-12.64V471.45z"/>
		</g>
		<g id="XMLID_1875_">
			
				<rect id="XMLID_1876_" x="802.89" y="470.55" transform="matrix(0.6756 -0.7373 0.7373 0.6756 -86.2381 745.6763)" class="st1" width="2.56" height="0.54"/>
		</g>
		<g id="XMLID_1873_">
			
				<rect id="XMLID_1874_" x="800.99" y="470.52" transform="matrix(0.6756 -0.7373 0.7373 0.6756 -86.8067 744.3072)" class="st1" width="2.66" height="0.54"/>
		</g>
		<g id="XMLID_1871_">
			
				<rect id="XMLID_1872_" x="799.16" y="470.52" transform="matrix(0.6756 -0.7373 0.7373 0.6756 -87.4035 742.9509)" class="st1" width="2.66" height="0.54"/>
		</g>
		<g id="XMLID_1869_">
			
				<rect id="XMLID_1870_" x="795.48" y="470.52" transform="matrix(0.6756 -0.7373 0.7373 0.6756 -88.5973 740.238)" class="st1" width="2.66" height="0.54"/>
		</g>
		<g id="XMLID_1867_">
			
				<rect id="XMLID_1868_" x="793.63" y="470.52" transform="matrix(0.6756 -0.7373 0.7373 0.6756 -89.197 738.8828)" class="st1" width="2.67" height="0.54"/>
		</g>
		<g id="XMLID_1865_">
			
				<rect id="XMLID_1866_" x="791.79" y="470.52" transform="matrix(0.6756 -0.7373 0.7373 0.6756 -89.794 737.5262)" class="st1" width="2.67" height="0.54"/>
		</g>
		<g id="XMLID_1863_">
			
				<rect id="XMLID_1864_" x="797.31" y="470.52" transform="matrix(0.6756 -0.7373 0.7373 0.6756 -88.0032 741.5958)" class="st1" width="2.67" height="0.54"/>
		</g>
		<g id="XMLID_1565_">
			<path id="XMLID_1566_" class="st1" d="M791.81,470.05l-0.41-2.5l13.52-2.59l0.4,2.5L791.81,470.05z M792.03,467.98l0.23,1.43
				l12.45-2.39l-0.23-1.43L792.03,467.98z"/>
		</g>
		<g id="XMLID_1563_">
			
				<rect id="XMLID_1564_" x="792.66" y="467.38" transform="matrix(0.6073 -0.7944 0.7944 0.6073 -60.9579 813.9655)" class="st1" width="0.54" height="2.53"/>
		</g>
		<g id="XMLID_1561_">
			
				<rect id="XMLID_1562_" x="794.46" y="466.95" transform="matrix(0.6074 -0.7944 0.7944 0.6074 -59.9543 815.2207)" class="st1" width="0.54" height="2.63"/>
		</g>
		<g id="XMLID_1559_">
			
				<rect id="XMLID_1560_" x="796.27" y="466.6" transform="matrix(0.6073 -0.7945 0.7945 0.6073 -58.9507 816.5615)" class="st1" width="0.54" height="2.63"/>
		</g>
		<g id="XMLID_1557_">
			
				<rect id="XMLID_1558_" x="799.9" y="465.9" transform="matrix(0.607 -0.7947 0.7947 0.607 -56.8543 819.4624)" class="st1" width="0.54" height="2.63"/>
		</g>
		<g id="XMLID_1555_">
			
				<rect id="XMLID_1556_" x="801.71" y="465.55" transform="matrix(0.6072 -0.7946 0.7946 0.6072 -55.9241 820.6341)" class="st1" width="0.54" height="2.64"/>
		</g>
		<g id="XMLID_1553_">
			
				<rect id="XMLID_1554_" x="803.52" y="465.21" transform="matrix(0.6072 -0.7946 0.7946 0.6072 -54.9361 821.9373)" class="st1" width="0.54" height="2.64"/>
		</g>
		<g id="XMLID_1551_">
			
				<rect id="XMLID_1552_" x="798.09" y="466.25" transform="matrix(0.6072 -0.7946 0.7946 0.6072 -57.8997 818.0291)" class="st1" width="0.54" height="2.64"/>
		</g>
	</g>
</g>
<g>
</g>
<g>
</g>
<g>
</g>
<g>
</g>
<g>
</g>
<g>
</g>
</svg>
