<svg xmlns="http://www.w3.org/2000/svg" width="1010" height="673.6" viewBox="0 0 1010 673.6"><defs><style>.a{fill:#ffcc57;}.b{fill:#221e1f;}</style></defs><title>アートボード 2</title><circle class="a" cx="329.41" cy="250.1" r="12.71"/><path class="b" d="M335.47,258.7H323.36V245.58h12.11Zm-11.5-.61h10.89V246.18H324Z"/><rect class="b" x="331.68" y="241.51" width="0.61" height="2.66"/><polygon class="b" points="331.98 244.61 330.37 242.85 330.81 242.44 331.98 243.72 333.15 242.44 333.6 242.85 331.98 244.61"/><rect class="b" x="326.54" y="241.98" width="0.61" height="2.66"/><polygon class="b" points="325.68 243.7 325.23 243.29 326.85 241.53 328.46 243.29 328.02 243.7 326.85 242.43 325.68 243.7"/><path d="M327.13,255.77v-7.26h2.62a1.87,1.87,0,0,1,1.46.54,2.31,2.31,0,0,1,.49,1.59,3.11,3.11,0,0,1-.12.92,1.71,1.71,0,0,1-.31.62,1.39,1.39,0,0,1-.49.36,1.67,1.67,0,0,1-.59.18,4.65,4.65,0,0,1-.69.05h-.6v3Zm1.77-4.23h.57c.24,0,.39-.07.46-.22a1.73,1.73,0,0,0,.11-.72,1.63,1.63,0,0,0,0-.24,2.23,2.23,0,0,0,0-.23.54.54,0,0,0-.1-.2.48.48,0,0,0-.17-.13.68.68,0,0,0-.27-.05h-.55Z"/><circle class="a" cx="384.3" cy="150.3" r="12.71"/><path class="b" d="M390.36,158.9H378.25V145.78h12.11Zm-11.5-.61h10.89V146.38H378.86Z"/><path d="M380.77,150.33a.74.74,0,0,0,.55-.24.9.9,0,0,0,0-1.18.74.74,0,0,0-1.09,0,.9.9,0,0,0,0,1.18A.73.73,0,0,0,380.77,150.33Zm-.22-1.07a.32.32,0,0,1,.22-.1.33.33,0,0,1,.23.1.34.34,0,0,1,.09.24.37.37,0,0,1-.09.25.33.33,0,0,1-.23.1.32.32,0,0,1-.22-.1.37.37,0,0,1-.09-.25A.34.34,0,0,1,380.55,149.26Z"/><polygon points="381 150.99 381.66 150.99 381.66 153.4 382.11 153.4 382.11 150.5 379.44 150.5 379.44 153.4 379.89 153.4 379.89 150.99 380.55 150.99 380.55 153.33 379.1 156.07 379.49 156.32 380.77 153.88 382.06 156.32 382.45 156.07 381 153.33 381 150.99"/><path d="M384.3,150.33a.72.72,0,0,0,.54-.24.87.87,0,0,0,0-1.18.72.72,0,0,0-.54-.24.73.73,0,0,0-.54.24.9.9,0,0,0,0,1.18A.73.73,0,0,0,384.3,150.33Zm-.22-1.07a.3.3,0,0,1,.22-.1.33.33,0,0,1,.23.1.39.39,0,0,1,.09.24.42.42,0,0,1-.09.25.33.33,0,0,1-.23.1.3.3,0,0,1-.22-.1.37.37,0,0,1-.09-.25A.34.34,0,0,1,384.08,149.26Z"/><polygon points="384.53 150.99 385.19 150.99 385.19 153.4 385.64 153.4 385.64 150.5 382.97 150.5 382.97 153.4 383.42 153.4 383.42 150.99 384.08 150.99 384.08 153.33 382.62 156.07 383.01 156.32 384.3 153.88 385.59 156.32 385.98 156.07 384.53 153.33 384.53 150.99"/><path d="M387.83,150.33a.73.73,0,0,0,.54-.24.87.87,0,0,0,0-1.18.73.73,0,0,0-1.08,0,.9.9,0,0,0,0,1.18A.73.73,0,0,0,387.83,150.33Zm-.22-1.07a.3.3,0,0,1,.22-.1.29.29,0,0,1,.22.1.35.35,0,0,1,.1.24.37.37,0,0,1-.1.25.29.29,0,0,1-.22.1.3.3,0,0,1-.22-.1.37.37,0,0,1-.09-.25A.34.34,0,0,1,387.61,149.26Z"/><polygon points="388.06 153.33 388.06 150.99 388.71 150.99 388.71 153.4 389.16 153.4 389.16 150.5 386.5 150.5 386.5 153.4 386.95 153.4 386.95 150.99 387.61 150.99 387.61 153.33 386.15 156.07 386.54 156.32 387.83 153.88 389.12 156.32 389.51 156.07 388.06 153.33"/><rect class="b" x="386.57" y="141.71" width="0.61" height="2.66"/><polygon class="b" points="386.87 144.81 385.25 143.06 385.7 142.65 386.87 143.92 388.04 142.65 388.49 143.06 386.87 144.81"/><rect class="b" x="381.43" y="142.18" width="0.61" height="2.66"/><polygon class="b" points="380.57 143.91 380.12 143.5 381.74 141.74 383.35 143.5 382.91 143.91 381.74 142.63 380.57 143.91"/><circle class="a" cx="184.62" cy="215.69" r="12.71"/><path class="b" d="M190.68,224.28H178.57V211.16h12.11Zm-11.5-.6h10.89V211.77H179.18Z"/><rect class="b" x="186.89" y="207.09" width="0.61" height="2.66"/><polygon class="b" points="187.19 210.2 185.57 208.44 186.02 208.03 187.19 209.3 188.36 208.03 188.81 208.44 187.19 210.2"/><rect class="b" x="181.76" y="207.57" width="0.61" height="2.66"/><polygon class="b" points="180.89 209.29 180.44 208.88 182.06 207.12 183.67 208.88 183.23 209.29 182.06 208.02 180.89 209.29"/><path d="M182.34,221.35v-7.26H185a1.83,1.83,0,0,1,1.46.55,2.28,2.28,0,0,1,.49,1.59,3.16,3.16,0,0,1-.12.92,1.8,1.8,0,0,1-.31.62,1.39,1.39,0,0,1-.49.36,2.22,2.22,0,0,1-.59.18,4.75,4.75,0,0,1-.69,0h-.6v3Zm1.77-4.23h.57c.24,0,.39-.07.46-.21a1.8,1.8,0,0,0,.11-.72,1.85,1.85,0,0,0,0-.25,2.07,2.07,0,0,0,0-.22.54.54,0,0,0-.1-.2.39.39,0,0,0-.17-.13.54.54,0,0,0-.27,0h-.55Z"/><circle class="a" cx="219.07" cy="293.65" r="12.71"/><path class="b" d="M225.12,302.25H213V289.12h12.1Zm-11.5-.61h10.9V289.73h-10.9Z"/><rect class="b" x="221.33" y="285.06" width="0.61" height="2.66"/><polygon class="b" points="221.64 288.16 220.02 286.4 220.47 285.99 221.64 287.26 222.81 285.99 223.25 286.4 221.64 288.16"/><rect class="b" x="216.2" y="285.53" width="0.61" height="2.66"/><polygon class="b" points="215.33 287.25 214.89 286.84 216.5 285.08 218.12 286.84 217.67 287.25 216.5 285.98 215.33 287.25"/><path d="M216.78,299.32v-7.27h2.63a1.89,1.89,0,0,1,1.46.55,2.36,2.36,0,0,1,.49,1.59,3.16,3.16,0,0,1-.12.92,1.89,1.89,0,0,1-.31.62,1.39,1.39,0,0,1-.49.36,2.34,2.34,0,0,1-.59.18,4.65,4.65,0,0,1-.69.05h-.6v3Zm1.78-4.23h.56a.48.48,0,0,0,.47-.22,1.83,1.83,0,0,0,.1-.72v-.25a1.12,1.12,0,0,0-.05-.22.53.53,0,0,0-.09-.2.59.59,0,0,0-.17-.13.76.76,0,0,0-.27-.05h-.55Z"/><circle class="a" cx="214.73" cy="321.21" r="12.71"/><path class="b" d="M220.78,329.8h-12.1V316.68h12.1Zm-11.5-.6h10.9V317.29h-10.9Z"/><path d="M211.2,321.24a.73.73,0,0,0,.54-.25.86.86,0,0,0,0-1.17.73.73,0,0,0-.54-.25.74.74,0,0,0-.54.25.89.89,0,0,0,0,1.17A.74.74,0,0,0,211.2,321.24Zm-.22-1.08a.32.32,0,0,1,.22-.1.33.33,0,0,1,.23.1.42.42,0,0,1,.09.25.42.42,0,0,1-.09.24.33.33,0,0,1-.23.1.32.32,0,0,1-.22-.1.36.36,0,0,1-.09-.24A.37.37,0,0,1,211,320.16Z"/><polygon points="211.43 321.89 212.09 321.89 212.09 324.3 212.54 324.3 212.54 321.4 209.87 321.4 209.87 324.3 210.32 324.3 210.32 321.89 210.98 321.89 210.98 324.23 209.52 326.97 209.91 327.22 211.2 324.79 212.49 327.22 212.88 326.97 211.43 324.23 211.43 321.89"/><path d="M214.73,321.24a.74.74,0,0,0,.54-.25.89.89,0,0,0,0-1.17.71.71,0,0,0-1.08,0,.89.89,0,0,0,0,1.17A.74.74,0,0,0,214.73,321.24Zm-.22-1.08a.3.3,0,0,1,.22-.1.29.29,0,0,1,.22.1.37.37,0,0,1,.1.25.37.37,0,0,1-.1.24.29.29,0,0,1-.22.1.3.3,0,0,1-.22-.1.36.36,0,0,1-.09-.24A.37.37,0,0,1,214.51,320.16Z"/><polygon points="214.96 321.89 215.62 321.89 215.62 324.3 216.06 324.3 216.06 321.4 213.4 321.4 213.4 324.3 213.85 324.3 213.85 321.89 214.51 321.89 214.51 324.23 213.05 326.97 213.44 327.22 214.73 324.79 216.02 327.22 216.41 326.97 214.96 324.23 214.96 321.89"/><path d="M218.26,321.24a.74.74,0,0,0,.54-.25.89.89,0,0,0,0-1.17.71.71,0,0,0-1.08,0,.86.86,0,0,0,0,1.17A.74.74,0,0,0,218.26,321.24Zm-.22-1.08a.29.29,0,0,1,.22-.1.3.3,0,0,1,.22.1.37.37,0,0,1,.09.25.36.36,0,0,1-.09.24.3.3,0,0,1-.22.1.29.29,0,0,1-.22-.1.37.37,0,0,1-.1-.24A.37.37,0,0,1,218,320.16Z"/><polygon points="218.48 324.23 218.48 321.89 219.14 321.89 219.14 324.3 219.59 324.3 219.59 321.4 216.93 321.4 216.93 324.3 217.38 324.3 217.38 321.89 218.03 321.89 218.03 324.23 216.58 326.97 216.97 327.22 218.26 324.79 219.55 327.22 219.94 326.97 218.48 324.23"/><rect class="b" x="216.99" y="312.61" width="0.61" height="2.66"/><polygon class="b" points="217.3 315.72 215.68 313.96 216.13 313.55 217.3 314.82 218.47 313.55 218.91 313.96 217.3 315.72"/><rect class="b" x="211.86" y="313.09" width="0.61" height="2.66"/><polygon class="b" points="211 314.81 210.55 314.4 212.16 312.64 213.78 314.4 213.33 314.81 212.16 313.54 211 314.81"/></svg>