<?xml version="1.0" encoding="utf-8"?>
<!-- Generator: Adobe Illustrator 22.0.1, SVG Export Plug-In . SVG Version: 6.00 Build 0)  -->
<svg version="1.1" id="icons" xmlns="http://www.w3.org/2000/svg" xmlns:xlink="http://www.w3.org/1999/xlink" x="0px" y="0px"
	 width="1010px" height="673.6px" viewBox="0 0 1010 673.6" style="enable-background:new 0 0 1010 673.6;" xml:space="preserve">
<style type="text/css">
	.st0{fill:#60D0FC;}
	.st1{fill:#231F20;}
</style>
<g id="locker">
	<g id="XMLID_4028_">
		<g id="XMLID_4029_">
			<g id="XMLID_4030_">
				<g id="XMLID_4031_">
					<circle id="XMLID_4032_" class="st0" cx="751.28" cy="514.09" r="12.71"/>
				</g>
			</g>
		</g>
	</g>
	<g id="XMLID_1102_">
		<g id="XMLID_1152_">
			<g id="XMLID_4026_">
				<polygon id="XMLID_4027_" class="st1" points="756.33,521.5 746.22,521.5 746.22,515.04 746.84,515.04 746.84,520.88 
					755.71,520.88 755.71,515.04 756.33,515.04 				"/>
			</g>
			<g id="XMLID_4024_">
				<rect id="XMLID_4025_" x="748.13" y="515.04" class="st1" width="0.62" height="6.15"/>
			</g>
			<g id="XMLID_2306_">
				<rect id="XMLID_2309_" x="753.8" y="515.04" class="st1" width="0.62" height="6.15"/>
			</g>
			<g id="XMLID_1458_">
				<path id="XMLID_2206_" class="st1" d="M752.65,515.04h-0.62v-0.6c0-0.07-0.06-0.13-0.13-0.13h-1.25c-0.07,0-0.13,0.06-0.13,0.13
					v0.6h-0.62v-0.6c0-0.41,0.34-0.75,0.75-0.75h1.25c0.41,0,0.75,0.34,0.75,0.75V515.04z"/>
			</g>
			<g id="XMLID_1155_">
				<path id="XMLID_1350_" class="st1" d="M749,522.39h-1.11c-0.22,0-0.4-0.18-0.4-0.4v-0.71h0.62v0.49h0.67v-0.49h0.62v0.71
					C749.4,522.21,749.22,522.39,749,522.39z"/>
			</g>
			<g id="XMLID_1153_">
				<path id="XMLID_1154_" class="st1" d="M754.66,522.39h-1.11c-0.22,0-0.4-0.18-0.4-0.4v-0.71h0.62v0.49h0.67v-0.49h0.62v0.71
					C755.06,522.21,754.88,522.39,754.66,522.39z"/>
			</g>
		</g>
		<g id="XMLID_1103_">
			<path id="XMLID_1151_" class="st1" d="M758,509.24c0,0.5-0.41,0.91-0.91,0.91c-0.5,0-0.91-0.41-0.91-0.91
				c0-0.5,0.41-0.91,0.91-0.91C757.59,508.33,758,508.74,758,509.24z"/>
			<g id="XMLID_1145_">
				<path id="XMLID_1146_" class="st1" d="M755.72,512.69c-1.32,0-2.52-0.74-3.11-1.9h-3.43v0.68h-1.67v-1.36h-0.5v2.13h-1.67v-1.45
					h-0.79l-1.2-1.49l1.2-1.48h7.99c0.56-1.23,1.8-2.04,3.17-2.04c1.92,0,3.47,1.55,3.47,3.45
					C759.19,511.14,757.63,512.69,755.72,512.69z M748.56,510.17h4.45l0.08,0.19c0.45,1.04,1.48,1.71,2.62,1.71
					c1.57,0,2.85-1.27,2.85-2.83c0-1.56-1.28-2.83-2.85-2.83c-1.18,0-2.26,0.74-2.67,1.84l-0.08,0.2h-8.12l-0.7,0.86l0.7,0.86h1.11
					v1.45h0.42v-2.13h1.75v1.36h0.42V510.17z"/>
			</g>
		</g>
	</g>
</g>
<g>
</g>
<g>
</g>
<g>
</g>
<g>
</g>
<g>
</g>
<g>
</g>
</svg>
