<svg width="54" height="15" viewBox="0 0 54 15" fill="none" xmlns="http://www.w3.org/2000/svg">
<path d="M21.1283 15H1.6421C1.20659 15 0.788912 14.827 0.480959 14.519C0.173006 14.2111 0 13.7934 0 13.3579V1.6421C0 1.20659 0.173006 0.788912 0.480959 0.480959C0.788912 0.173006 1.20659 0 1.6421 0H21.1283C21.5638 0 21.9815 0.173006 22.2894 0.480959C22.5974 0.788912 22.7704 1.20659 22.7704 1.6421V13.3601C22.7698 13.7952 22.5966 14.2123 22.2887 14.5198C21.9808 14.8273 21.5634 15 21.1283 15ZM1.6421 0.877974C1.43886 0.877974 1.24394 0.95871 1.10023 1.10242C0.956521 1.24613 0.875785 1.44105 0.875785 1.64429V13.3601C0.875785 13.5633 0.956521 13.7582 1.10023 13.902C1.24394 14.0457 1.43886 14.1264 1.6421 14.1264H21.1283C21.3315 14.1264 21.5265 14.0457 21.6702 13.902C21.8139 13.7582 21.8946 13.5633 21.8946 13.3601V1.6421C21.8946 1.43886 21.8139 1.24394 21.6702 1.10023C21.5265 0.95652 21.3315 0.875785 21.1283 0.875785L1.6421 0.877974Z" fill="white"/>
<path d="M11.5 12C10.298 12 9.16795 11.5319 8.31801 10.682C7.46807 9.83205 7 8.70199 7 7.5C7 6.29801 7.46809 5.16796 8.31801 4.31801C9.16793 3.46805 10.298 3 11.5 3C12.702 3 13.8321 3.46807 14.682 4.31801C15.5319 5.16795 16 6.29801 16 7.5C16 8.70199 15.5319 9.83204 14.682 10.682C13.8321 11.5319 12.702 12 11.5 12ZM11.5 3.5625C9.32886 3.5625 7.5625 5.32886 7.5625 7.5C7.5625 9.67114 9.32886 11.4375 11.5 11.4375C13.6711 11.4375 15.4375 9.67114 15.4375 7.5C15.4375 5.32886 13.6711 3.5625 11.5 3.5625Z" fill="white"/>
<path d="M11.5 7.21875C11.1123 7.21875 10.7969 6.90333 10.7969 6.51562C10.7969 6.12792 11.1123 5.8125 11.5 5.8125C11.8877 5.8125 12.2031 6.12792 12.2031 6.51562C12.2031 6.67095 12.329 6.79688 12.4844 6.79688C12.6397 6.79688 12.7656 6.67095 12.7656 6.51562C12.7656 5.91444 12.3441 5.41017 11.7812 5.28189V4.96875C11.7812 4.81343 11.6553 4.6875 11.5 4.6875C11.3447 4.6875 11.2188 4.81343 11.2188 4.96875V5.28189C10.6559 5.41017 10.2344 5.91444 10.2344 6.51562C10.2344 7.21349 10.8021 7.78125 11.5 7.78125C11.8877 7.78125 12.2031 8.09667 12.2031 8.48438C12.2031 8.87208 11.8877 9.1875 11.5 9.1875C11.1123 9.1875 10.7969 8.87208 10.7969 8.48438C10.7969 8.32905 10.671 8.20312 10.5156 8.20312C10.3603 8.20312 10.2344 8.32905 10.2344 8.48438C10.2344 9.08556 10.6559 9.58983 11.2188 9.71811V10.0312C11.2188 10.1866 11.3447 10.3125 11.5 10.3125C11.6553 10.3125 11.7812 10.1866 11.7812 10.0312V9.71811C12.3441 9.58983 12.7656 9.08556 12.7656 8.48438C12.7656 7.78651 12.1979 7.21875 11.5 7.21875Z" fill="white"/>
<path d="M51.8988 15H32.4126C31.9771 15 31.5594 14.827 31.2515 14.519C30.9435 14.2111 30.7705 13.7934 30.7705 13.3579V1.6421C30.7705 1.20659 30.9435 0.788912 31.2515 0.480959C31.5594 0.173006 31.9771 0 32.4126 0H51.8988C52.3343 0 52.752 0.173006 53.0599 0.480959C53.3679 0.788912 53.5409 1.20659 53.5409 1.6421V13.3601C53.5403 13.7952 53.3671 14.2123 53.0592 14.5198C52.7513 14.8273 52.3339 15 51.8988 15ZM32.4126 0.877974C32.2094 0.877974 32.0145 0.95871 31.8707 1.10242C31.727 1.24613 31.6463 1.44105 31.6463 1.64429V13.3601C31.6463 13.5633 31.727 13.7582 31.8707 13.902C32.0145 14.0457 32.2094 14.1264 32.4126 14.1264H51.8988C52.102 14.1264 52.297 14.0457 52.4407 13.902C52.5844 13.7582 52.6651 13.5633 52.6651 13.3601V1.6421C52.6651 1.43886 52.5844 1.24394 52.4407 1.10023C52.297 0.95652 52.102 0.875785 51.8988 0.875785L32.4126 0.877974Z" fill="white"/>
<path d="M53.103 6.10381H31.2084C31.0923 6.10381 30.9809 6.05768 30.8988 5.97556C30.8166 5.89344 30.7705 5.78206 30.7705 5.66592C30.7705 5.54978 30.8166 5.4384 30.8988 5.35628C30.9809 5.27416 31.0923 5.22803 31.2084 5.22803H53.103C53.2191 5.22803 53.3305 5.27416 53.4126 5.35628C53.4948 5.4384 53.5409 5.54978 53.5409 5.66592C53.5409 5.78206 53.4948 5.89344 53.4126 5.97556C53.3305 6.05768 53.2191 6.10381 53.103 6.10381Z" fill="white"/>
<path d="M38.1772 15.0003C38.061 15.0003 37.9496 14.9541 37.8675 14.872C37.7854 14.7899 37.7393 14.6785 37.7393 14.5624V0.440334C37.7393 0.324197 37.7854 0.212818 37.8675 0.130697C37.9496 0.0485764 38.061 0.00244141 38.1772 0.00244141C38.2933 0.00244141 38.4047 0.0485764 38.4868 0.130697C38.5689 0.212818 38.615 0.324197 38.615 0.440334V14.5624C38.615 14.6785 38.5689 14.7899 38.4868 14.872C38.4047 14.9541 38.2933 15.0003 38.1772 15.0003Z" fill="white"/>
<path d="M37.7249 6.10945C37.4685 6.10945 37.1305 6.10507 36.7744 6.0881C35.3639 6.02132 34.949 5.82263 34.7448 5.65677C33.8342 4.91783 33.6725 3.54805 34.3841 2.60467C34.5529 2.37749 34.7661 2.18695 35.0107 2.0446C35.2553 1.90224 35.5263 1.81104 35.8072 1.7765C36.0844 1.74257 36.3657 1.76532 36.6338 1.84337C36.902 1.92142 37.1515 2.05314 37.3672 2.23054C37.5692 2.39475 37.8519 2.76176 38.2501 4.15727C38.4578 4.88499 38.598 5.5484 38.6037 5.57631C38.6171 5.63894 38.6165 5.70375 38.6021 5.76615C38.5877 5.82855 38.5598 5.88703 38.5204 5.93748C38.4809 5.98792 38.4309 6.02909 38.3738 6.0581C38.3167 6.0871 38.2539 6.10323 38.1899 6.10534C38.1757 6.10534 37.9961 6.10945 37.7249 6.10945ZM35.2965 4.97667C35.3091 4.98598 35.5546 5.15484 36.8313 5.21396C37.1215 5.22764 37.4014 5.23229 37.6291 5.23339C37.5725 4.99857 37.4983 4.7071 37.4132 4.40769C37.047 3.12138 36.8259 2.91776 36.8168 2.90955C36.692 2.80673 36.5476 2.73035 36.3923 2.68505C36.2371 2.63974 36.0742 2.62646 35.9137 2.64599C35.7494 2.66648 35.5911 2.72013 35.4482 2.80369C35.3053 2.88724 35.1809 2.99896 35.0825 3.13205C34.6526 3.70323 34.7481 4.53057 35.2965 4.97667Z" fill="white"/>
<path d="M38.6286 6.10938C38.3576 6.10938 38.1778 6.10446 38.1633 6.10418C38.0993 6.10216 38.0366 6.08614 37.9795 6.05725C37.9224 6.02836 37.8723 5.98731 37.8328 5.93698C37.7932 5.88665 37.7652 5.82827 37.7507 5.76595C37.7362 5.70362 37.7355 5.63887 37.7487 5.57625C37.7544 5.54888 37.8945 4.88493 38.102 4.15721C38.5002 2.76142 38.7832 2.39442 38.9849 2.23048C39.2006 2.05315 39.4502 1.92147 39.7183 1.84343C39.9865 1.76538 40.2677 1.74259 40.5449 1.77644C40.8258 1.81091 41.0968 1.9021 41.3415 2.04446C41.5861 2.18681 41.7993 2.37738 41.968 2.6046C42.6796 3.54799 42.5181 4.91722 41.6076 5.65671C41.4034 5.82256 40.9885 6.02126 39.578 6.08804C39.223 6.10528 38.885 6.10938 38.6286 6.10938ZM40.2939 2.63717C40.0172 2.63805 39.7493 2.73476 39.5358 2.91086C39.5273 2.91852 39.3056 3.12241 38.9389 4.41283C38.8541 4.71114 38.7804 5.0007 38.7241 5.23387C38.9534 5.23387 39.235 5.22785 39.5265 5.21444C40.7991 5.15478 41.0441 4.98646 41.0567 4.97716C41.604 4.53106 41.7006 3.70371 41.2699 3.13254C41.1575 2.97915 41.0106 2.85438 40.841 2.76832C40.6715 2.68226 40.4841 2.63733 40.2939 2.63717Z" fill="white"/>
<path d="M35.244 9.14734C35.1583 9.14706 35.0745 9.12158 35.003 9.07407C34.9316 9.02657 34.8757 8.95913 34.8422 8.88013C34.8088 8.80113 34.7993 8.71405 34.8149 8.6297C34.8306 8.54535 34.8706 8.46744 34.9301 8.40566L37.8613 5.36231C37.9432 5.28493 38.0517 5.24209 38.1644 5.24268C38.277 5.24328 38.3851 5.28726 38.4662 5.3655C38.5472 5.44374 38.595 5.5502 38.5996 5.66276C38.6042 5.77533 38.5652 5.88532 38.4907 5.96989L35.5596 9.01324C35.5187 9.05567 35.4697 9.08942 35.4155 9.11246C35.3613 9.1355 35.303 9.14737 35.244 9.14734Z" fill="white"/>
<path d="M41.1099 9.14734C41.051 9.14733 40.9928 9.13545 40.9386 9.11241C40.8844 9.08936 40.8355 9.05564 40.7946 9.01324L37.8621 5.96989C37.7877 5.88532 37.7487 5.77533 37.7533 5.66276C37.7579 5.5502 37.8057 5.44374 37.8867 5.3655C37.9678 5.28726 38.0759 5.24328 38.1885 5.24268C38.3012 5.24209 38.4097 5.28493 38.4916 5.36231L41.4238 8.40566C41.4834 8.46753 41.5235 8.54556 41.5391 8.63003C41.5547 8.71451 41.545 8.8017 41.5114 8.88076C41.4778 8.95981 41.4217 9.02724 41.3501 9.07464C41.2784 9.12204 41.1944 9.14732 41.1085 9.14734H41.1099Z" fill="white"/>
</svg>
