<svg width="23" height="15" viewBox="0 0 23 15" fill="none" xmlns="http://www.w3.org/2000/svg">
<path d="M21.1283 15H1.6421C1.20659 15 0.788912 14.827 0.480959 14.519C0.173006 14.2111 0 13.7934 0 13.3579V1.6421C0 1.20659 0.173006 0.788912 0.480959 0.480959C0.788912 0.173006 1.20659 0 1.6421 0H21.1283C21.5638 0 21.9815 0.173006 22.2894 0.480959C22.5974 0.788912 22.7704 1.20659 22.7704 1.6421V13.3601C22.7698 13.7952 22.5966 14.2123 22.2887 14.5198C21.9808 14.8273 21.5634 15 21.1283 15ZM1.6421 0.877974C1.43886 0.877974 1.24394 0.95871 1.10023 1.10242C0.956521 1.24613 0.875785 1.44105 0.875785 1.64429V13.3601C0.875785 13.5633 0.956521 13.7582 1.10023 13.902C1.24394 14.0457 1.43886 14.1264 1.6421 14.1264H21.1283C21.3315 14.1264 21.5265 14.0457 21.6702 13.902C21.8139 13.7582 21.8946 13.5633 21.8946 13.3601V1.6421C21.8946 1.43886 21.8139 1.24394 21.6702 1.10023C21.5265 0.95652 21.3315 0.875785 21.1283 0.875785L1.6421 0.877974Z" fill="white"/>
<path d="M11.5 12C10.298 12 9.16795 11.5319 8.31801 10.682C7.46807 9.83205 7 8.70199 7 7.5C7 6.29801 7.46809 5.16796 8.31801 4.31801C9.16793 3.46805 10.298 3 11.5 3C12.702 3 13.8321 3.46807 14.682 4.31801C15.5319 5.16795 16 6.29801 16 7.5C16 8.70199 15.5319 9.83204 14.682 10.682C13.8321 11.5319 12.702 12 11.5 12ZM11.5 3.5625C9.32886 3.5625 7.5625 5.32886 7.5625 7.5C7.5625 9.67114 9.32886 11.4375 11.5 11.4375C13.6711 11.4375 15.4375 9.67114 15.4375 7.5C15.4375 5.32886 13.6711 3.5625 11.5 3.5625Z" fill="white"/>
<path d="M11.5 7.21875C11.1123 7.21875 10.7969 6.90333 10.7969 6.51562C10.7969 6.12792 11.1123 5.8125 11.5 5.8125C11.8877 5.8125 12.2031 6.12792 12.2031 6.51562C12.2031 6.67095 12.329 6.79688 12.4844 6.79688C12.6397 6.79688 12.7656 6.67095 12.7656 6.51562C12.7656 5.91444 12.3441 5.41017 11.7812 5.28189V4.96875C11.7812 4.81343 11.6553 4.6875 11.5 4.6875C11.3447 4.6875 11.2188 4.81343 11.2188 4.96875V5.28189C10.6559 5.41017 10.2344 5.91444 10.2344 6.51562C10.2344 7.21349 10.8021 7.78125 11.5 7.78125C11.8877 7.78125 12.2031 8.09667 12.2031 8.48438C12.2031 8.87208 11.8877 9.1875 11.5 9.1875C11.1123 9.1875 10.7969 8.87208 10.7969 8.48438C10.7969 8.32905 10.671 8.20312 10.5156 8.20312C10.3603 8.20312 10.2344 8.32905 10.2344 8.48438C10.2344 9.08556 10.6559 9.58983 11.2188 9.71811V10.0312C11.2188 10.1866 11.3447 10.3125 11.5 10.3125C11.6553 10.3125 11.7812 10.1866 11.7812 10.0312V9.71811C12.3441 9.58983 12.7656 9.08556 12.7656 8.48438C12.7656 7.78651 12.1979 7.21875 11.5 7.21875Z" fill="white"/>
</svg>
