<svg width="17" height="16" viewBox="0 0 17 16" fill="none" xmlns="http://www.w3.org/2000/svg">
<path d="M8.76953 0.125C4.42725 0.125 0.894531 3.65771 0.894531 8C0.894531 10.104 1.71387 12.0815 3.20117 13.5684L3.5838 13.9512H1.98877C1.78174 13.9512 1.61377 14.1191 1.61377 14.3262C1.61377 14.5332 1.78174 14.7012 1.98877 14.7012H4.48877C4.6958 14.7012 4.86377 14.5332 4.86377 14.3262V11.8262C4.86377 11.6191 4.6958 11.4512 4.48877 11.4512C4.28174 11.4512 4.11377 11.6191 4.11377 11.8262V13.4206L3.73145 13.0381C2.38574 11.6929 1.64453 9.90332 1.64453 8C1.64453 4.07129 4.84082 0.875 8.76953 0.875C12.6982 0.875 15.8945 4.07129 15.8945 8C15.8945 11.9287 12.6982 15.125 8.76953 15.125C8.5625 15.125 8.39453 15.293 8.39453 15.5C8.39453 15.707 8.5625 15.875 8.76953 15.875C13.1118 15.875 16.6445 12.3423 16.6445 8C16.6445 3.65771 13.1118 0.125 8.76953 0.125Z" fill="#FF9A3E"/>
<path d="M8.39453 12C8.39453 12.207 8.5625 12.375 8.76953 12.375C8.97656 12.375 9.14453 12.207 9.14453 12V11.375H9.51953C10.5532 11.375 11.3945 10.5337 11.3945 9.5C11.3945 8.46631 10.5532 7.625 9.51953 7.625H8.01953C7.39941 7.625 6.89453 7.12012 6.89453 6.5C6.89453 5.87988 7.39941 5.375 8.01953 5.375H9.51953C10.1396 5.375 10.6445 5.87988 10.6445 6.5C10.6445 6.70703 10.8125 6.875 11.0195 6.875C11.2266 6.875 11.3945 6.70703 11.3945 6.5C11.3945 5.46631 10.5532 4.625 9.51953 4.625H9.14453V4C9.14453 3.79297 8.97656 3.625 8.76953 3.625C8.5625 3.625 8.39453 3.79297 8.39453 4V4.625H8.01953C6.98584 4.625 6.14453 5.46631 6.14453 6.5C6.14453 7.53369 6.98584 8.375 8.01953 8.375H9.51953C10.1396 8.375 10.6445 8.87988 10.6445 9.5C10.6445 10.1201 10.1396 10.625 9.51953 10.625H8.01953C7.39941 10.625 6.89453 10.1201 6.89453 9.5C6.89453 9.29297 6.72656 9.125 6.51953 9.125C6.3125 9.125 6.14453 9.29297 6.14453 9.5C6.14453 10.5337 6.98584 11.375 8.01953 11.375H8.39453V12Z" fill="#FF9A3E"/>
</svg>
