<?xml version="1.0" encoding="UTF-8"?>
<svg id="Layer_2" data-name="Layer 2" xmlns="http://www.w3.org/2000/svg" viewBox="0 0 360.04 126.11">
  <defs>
    <style>
      .cls-1 {
        fill: #f8971d;
      }

      .cls-2 {
        fill: #007b85;
      }

      .cls-3 {
        fill: #e1134f;
      }

      .cls-4 {
        fill: #7a68ae;
      }
    </style>
  </defs>
  <path class="cls-4" d="M132.96,106.39c.86-1.08,1.45-2.2,1.75-3.34,.31-1.18,.47-3.39,.47-6.57v-9.19h-4.02v10.07c0,2.32-.15,3.88-.47,4.77-.34,.95-.95,1.75-1.82,2.35-.85,.6-1.86,.89-3.01,.89s-2.05-.27-2.84-.8c-.81-.55-1.41-1.3-1.76-2.23-.33-.87-.5-2.25-.5-4.2v-10.85h-4.02v9.19c0,3.74,.32,6.39,.95,7.89,.61,1.46,1.66,2.7,3.11,3.68,1.45,.99,3.19,1.49,5.18,1.49,1.52,0,2.87-.26,4-.78,1.11-.52,2.12-1.32,2.97-2.39Z"/>
  <path class="cls-1" d="M113.01,86.4l-4.49-1.76c-2.74,3.04-6.82,10.05-1.23,21.52,6.18,12.67-1.28,17.92-1.65,18.17l4.55,1.78c.89-.95,1.9-2.3,2.7-4.1,1.54-3.47,2.54-9.35-1.5-17.63-5.95-12.21,1.01-17.53,1.62-17.97Z"/>
  <path class="cls-2" d="M105.48,78.88h-16.23v4.3h5.79v26.38h4.49v-26.38h5.95v-4.3Z"/>
  <polygon class="cls-1" points="289.02 84.11 289.02 109.56 298.03 109.56 299.74 105.33 293.36 105.33 293.36 84.11 289.02 84.11"/>
  <polygon class="cls-3" points="153.59 88.46 155.32 84.15 139.41 84.15 139.41 109.56 155.4 109.56 155.4 105.21 143.75 105.21 143.75 98.18 151.82 98.18 151.82 93.94 143.75 93.94 143.75 88.46 153.59 88.46"/>
  <path class="cls-4" d="M256.79,84.1v20.85l-11.29-20.85h-5.93v25.45h4.34v-20.88s7.92,14.75,11.26,20.88h5.95v-25.45h-4.34Z"/>
  <path class="cls-1" d="M175.33,84.1v20.85l-11.29-20.85h-5.93v25.45h4.34v-20.88s7.93,14.75,11.27,20.88h5.95v-25.45h-4.34Z"/>
  <path class="cls-2" d="M280.93,95.42c1.88-.54,3.32-1.47,4.41-2.84,1.08-1.36,1.6-3.03,1.6-5.12,0-1.88-.41-3.49-1.23-4.82-.82-1.32-1.9-2.25-3.3-2.84-1.46-.61-3.93-.92-7.36-.92h-5.68v30.68h4.33v-13.66h.9c3.08,0,5.21-.16,6.32-.48Zm-7.22-12.28h2.68c2.13,0,3.58,.25,4.45,.76,1.26,.74,1.93,1.96,1.93,3.54,0,.91-.23,1.7-.69,2.37-.47,.67-1.1,1.14-1.88,1.43-.72,.26-1.89,.38-3.58,.38h-2.9v-8.48Z"/>
  <path class="cls-3" d="M336.61,105.38h-8.43l8.52-21.28h-15.37l1.61,4.34h6.98s-7.45,18.82-8.45,21.11h13.56l1.59-4.18Z"/>
  <path class="cls-2" d="M217.75,78.88c-.3,1.31-5.36,23.45-5.36,23.45,0,0-6.37-22.23-6.73-23.45h-3.77c-.35,1.23-6.59,23.49-6.59,23.49,0,0-5.08-22.19-5.38-23.49h-4.23c.46,2.01,6.73,29.39,7.03,30.68h4.44c.35-1.24,6.56-23.41,6.56-23.41,0,0,6.36,22.18,6.71,23.41h4.52c.29-1.29,6.56-28.67,7.02-30.68h-4.24Z"/>
  <path class="cls-4" d="M309.7,109.5l1.85-4.22h-4.89l3.99-10.23,5.59,14.5h4.07l-7.61-19.79h-4.58c-.26,.65-4.31,11.15-7.63,19.73h9.23Z"/>
  <path class="cls-1" d="M227.06,109.5l1.85-4.22h-4.89l3.98-10.23,5.59,14.5h4.06l-7.61-19.79h-4.58c-.25,.65-4.31,11.15-7.63,19.73h9.23Z"/>
  <path class="cls-1" d="M346.74,109.5l1.85-4.22h-4.89l3.99-10.23,5.59,14.5h4.06l-7.6-19.79h-4.58c-.26,.65-4.31,11.15-7.63,19.73h9.23Z"/>
  <path class="cls-2" d="M35.61,60.32h20.29v-5.35h-20.29v-6.98h14.26v-4.27c3.8,2.33,8.05,4.61,12.74,6.82l.94,.44,2.96-4.47-5.69-2.64c-3.13-1.48-7.42-3.96-12.74-7.37-5.24-3.36-9.62-7.54-13.02-12.42l-.34-.49-4.37-.19s-2.26,3.49-2.33,3.59c-5.13,6.65-14.17,13.31-26.85,19.8l-1.17,.6,2.67,4.27,.79-.14c.33-.06,.94-.24,2.43-1.12l9.49-5.59c.09-.05,.19-.12,.29-.18l.08,3.35h14.57v6.98H9.91v5.35H30.32v8.75H1.4v5.34H63.98v-5.34h-28.38v-8.75Zm-16.99-17.66c1.65-1.19,3.48-2.62,5.5-4.3,3.18-2.64,6-5.68,8.45-9.01,3.67,4.58,8.88,9.04,15.58,13.32H18.62Zm-1.63-16.48h5.3v-6.97h21.1v6.97h5.28v-6.97h15.79v-5.34h-15.79V3.84h-5.28V13.88H22.29V3.84h-5.3V13.88H1.2v5.34h15.79v6.97Z"/>
  <path class="cls-2" d="M241.85,38.37s-6.94,3.88-9.27,5.18V25.62h8.31v-5.2h-8.31V7.35h-5.25s-.06,11.1-.07,13.07h-8.55v5.2h8.54v21.06c-2.01,1.17-5.12,2.82-9.28,4.94l-1.13,.57,2.85,4.94,22.17-12.93v-5.83Zm42.68-1.08v-5.12h-46.27v5.12h9.03c-2.46,5.29-6.84,10.57-13.11,15.73l-1.33,1.09,4.73,2.79,.65-.58c4.08-3.6,7.09-6.74,9-9.37h6.66c-2.82,4.9-7.95,9.68-15.34,14.23l-1.43,.88,4.18,3.46,.72-.42c8.02-4.61,13.9-10.72,17.52-18.15h5.88c-2.66,8-8.94,15.04-18.71,20.94l-1.36,.82,1.16,1.08c1.07,1,1.83,1.63,2.47,2.03l.64,.4,.64-.41c10.94-6.89,17.81-15.26,20.47-24.87h5.55c-.07,1.31-.32,3.9-1.01,8.98-.96,7.13-1.5,9.64-1.78,10.49-.24,.71-1.54,1.11-3.57,1.11-1.47,0-3.44-.19-5.84-.56l-1.99-.31,1.92,5.46,.65,.15c1.32,.3,2.8,.44,4.54,.44,2.8,0,4.84-.33,6.22-1.02,1.53-.73,2.53-1.82,2.96-3.22,.37-1.13,.92-4.19,1.67-9.32,.73-4.97,1.21-10.39,1.41-16.1l.04-1.24h-30.87c.9-1.66,1.62-3.16,2.17-4.54h31.71Zm-7.59-33.76h-31.01V28.35h31.01V3.53Zm-5.26,19.69h-20.49v-5.1h20.49v5.1Zm0-10.12h-20.49v-4.49h20.49v4.49Z"/>
  <rect class="cls-2" x="89.25" y="71.24" width="270.79" height="3.15"/>
  <rect class="cls-3" x="75.83" y="2.93" width="5.28" height="10.67" transform="translate(41.7 78.07) rotate(-68.24)"/>
  <rect class="cls-1" x="75.83" y="15.03" width="5.28" height="10.67" transform="translate(30.44 85.68) rotate(-68.23)"/>
  <path class="cls-2" d="M185.76,6.75l-.39-.69c-.89-1.57-2.04-3.3-3.51-5.29L181.29,0l-4.52,1.91,1.09,1.25c.7,.8,1.54,2,2.52,3.58h-31.9V72.72h5.68V11.91h16.2v5h-10.74v5.21h10.74v8.14h26.78v-8.14h10.89v-5.21h-10.89v-5h14.81V6.75h-26.19Zm5.75,18.3h-15.52v-2.93h15.52v2.93Zm0-8.14h-15.52v-5h15.52v5Zm-33.79,20.25h23.02v2.17h-18.35v23.07h8.52l-10,5.9,2.64,4.88,12.49-7.37-1.85-3.42h19.34l-1.85,3.42,12.49,7.37,2.64-4.88-10.01-5.91h8.15v-23.07h-18.6v-2.17h23.61v-5.21h-52.24v5.21Zm23.02,20.03h-12.71v-4.11h12.71v4.11Zm0-9.32h-12.71v-3.08h12.71v3.08Zm5.62-3.08h13.21v3.08h-13.21v-3.08Zm0,8.3h13.21v4.11h-13.21v-4.11Z"/>
  <path class="cls-4" d="M82.03,30.93l-4.92-1.93c-3,3.32-7.47,11.01-1.35,23.57,6.77,13.88-1.4,19.63-1.81,19.9l4.98,1.95c.97-1.04,2.08-2.52,2.96-4.49,1.69-3.8,2.78-10.24-1.64-19.31-6.52-13.38,1.11-19.21,1.77-19.68Z"/>
  <path class="cls-2" d="M94.64,53.89h39.8v-12.9h-45.21v4.98h39.89v2.94h-39.89v12.9h41.12c-.7,4.25-3.62,9.39-3.66,9.44l-1.04,1.8h6.58s.36-.56,.36-.56c.15-.24,3.75-6.08,3.75-14.45v-1.2h-41.71v-2.95ZM121.89,5.78h-6.9c-.87-1.5-1.96-3.15-3.36-5.02l-.56-.76-4.52,1.91,1.09,1.26c.55,.62,1.19,1.51,1.91,2.62h-7.58v4.97h19.92V5.78Zm-2.5,6.37h-14.91v5.02h14.91v-5.02Zm0,6.5h-14.91v5h14.91v-5Zm-14.91,20.39h14.91v-13.98h-14.91v13.98Zm5.12-9h4.65v4h-4.65v-4Zm15.8-13.93c3.39-1.54,7-3.81,10.73-6.74l.92-.72-3.34-4.48-.98,.91c-2.47,2.28-5.44,4.27-9.6,6.44l-1.05,.54,2.26,4.54,1.06-.48Zm8.27,13.2l1.06,.48,2.26-4.54-1.05-.54c-4.17-2.17-7.13-4.15-9.6-6.44l-.98-.91-3.34,4.49,.92,.72c3.73,2.93,7.34,5.19,10.73,6.74Zm-11.68,2.45v5.31h15.09v-5.31h-15.09Zm-23.39-15.65l1.06,.48,2.26-4.54-1.05-.54c-4.17-2.17-7.13-4.16-9.6-6.44l-.98-.91-3.34,4.48,.92,.72c3.73,2.93,7.34,5.2,10.73,6.74Zm-.94,2.15c-2.47,2.28-5.43,4.27-9.6,6.44l-1.05,.54,2.26,4.54,1.06-.48c3.39-1.55,7-3.81,10.73-6.74l.92-.72-3.34-4.49-.98,.91Zm4.35,13.5h-15.09v5.31h15.09v-5.31Z"/>
</svg>