<?xml version="1.0" encoding="utf-8"?>
<!-- Generator: Adobe Illustrator 22.0.1, SVG Export Plug-In . SVG Version: 6.00 Build 0)  -->
<svg version="1.1" id="icons" xmlns="http://www.w3.org/2000/svg" xmlns:xlink="http://www.w3.org/1999/xlink" x="0px" y="0px"
	 width="1010px" height="673.6px" viewBox="0 0 1010 673.6" style="enable-background:new 0 0 1010 673.6;" xml:space="preserve">
<style type="text/css">
	.st0{fill:#221E1F;}
	.st1{fill:none;}
</style>
<g id="XMLID_1473_">
	<g id="XMLID_2083_">
		<polygon id="XMLID_2084_" class="st0" points="808.87,424.79 808.32,424.79 808.32,419.88 810.71,419.88 810.71,421.89 
			812.29,421.89 812.29,422.43 810.17,422.43 810.17,420.42 808.87,420.42 		"/>
	</g>
	<g id="XMLID_2079_">
		<path id="XMLID_2080_" class="st0" d="M809.55,419.12c-0.69,0-1.25-0.6-1.25-1.33c0-0.74,0.56-1.33,1.25-1.33
			c0.69,0,1.25,0.6,1.25,1.33C810.8,418.52,810.24,419.12,809.55,419.12z M809.55,416.99c-0.39,0-0.71,0.35-0.71,0.79
			c0,0.44,0.32,0.79,0.71,0.79c0.39,0,0.71-0.36,0.71-0.79C810.25,417.35,809.94,416.99,809.55,416.99z"/>
	</g>
	<g id="XMLID_2077_">
		<polygon id="XMLID_2078_" class="st0" points="812.79,430.32 810.17,425.37 807.54,430.32 807.06,430.06 810.17,424.21 
			813.27,430.06 		"/>
	</g>
	<g id="XMLID_1535_">
		<path id="XMLID_1536_" class="st0" d="M810.73,416.99h-2.37v-1.62h2.37V416.99z M808.91,416.45h1.28v-0.54h-1.28V416.45z"/>
	</g>
	<g id="XMLID_1533_">
		<rect id="XMLID_1534_" x="810.46" y="416.45" class="st0" width="0.85" height="0.54"/>
	</g>
	<g id="XMLID_1529_">
		<path id="XMLID_1530_" class="st0" d="M814.8,430.23c-0.52,0-0.95-0.45-0.95-1.01c0-0.55,0.42-1.01,0.95-1.01
			c0.52,0,0.95,0.45,0.95,1.01C815.74,429.78,815.32,430.23,814.8,430.23z M814.8,428.76c-0.22,0-0.4,0.21-0.4,0.46
			c0,0.26,0.18,0.46,0.4,0.46c0.22,0,0.4-0.21,0.4-0.46C815.2,428.97,815.02,428.76,814.8,428.76z"/>
	</g>
	<g id="XMLID_1525_">
		<path id="XMLID_1526_" class="st0" d="M820.05,430.23c-0.52,0-0.95-0.45-0.95-1.01c0-0.55,0.42-1.01,0.95-1.01
			c0.52,0,0.95,0.45,0.95,1.01C821,429.78,820.57,430.23,820.05,430.23z M820.05,428.76c-0.22,0-0.4,0.21-0.4,0.46
			c0,0.26,0.18,0.46,0.4,0.46c0.22,0,0.4-0.21,0.4-0.46C820.46,428.97,820.28,428.76,820.05,428.76z"/>
	</g>
	<g id="XMLID_1521_">
		<path id="XMLID_1522_" class="st0" d="M821.7,428.76h-8.54v-6.79c0-2.55,1.92-4.62,4.27-4.62c2.35,0,4.27,2.07,4.27,4.62V428.76z
			 M813.7,428.22h7.46v-6.25c0-2.25-1.67-4.08-3.73-4.08c-2.06,0-3.73,1.83-3.73,4.08V428.22z"/>
	</g>
	<g id="XMLID_1519_">
		<path id="XMLID_1520_" class="st1" d="M817.71,427.19v-2.44h-0.75c-0.12,0-0.22,0.05-0.29,0.13c-0.08,0.08-0.12,0.19-0.12,0.32
			v1.98c0,0.13,0.05,0.24,0.12,0.32c0.08,0.08,0.18,0.13,0.29,0.13h0.33c0.12,0,0.22-0.05,0.29-0.13
			C817.66,427.43,817.71,427.31,817.71,427.19z"/>
	</g>
	<g id="XMLID_1517_">
		<path id="XMLID_1518_" class="st1" d="M818.15,427.64h1.53c0.12,0,0.22-0.05,0.29-0.13c0.08-0.08,0.12-0.19,0.12-0.32v-1.98
			c0-0.13-0.05-0.24-0.12-0.32c-0.08-0.08-0.18-0.13-0.29-0.13h-1.43v2.44C818.25,427.35,818.21,427.5,818.15,427.64z"/>
	</g>
	<g id="XMLID_1490_">
		<path id="XMLID_1516_" d="M814.76,424.09c0-0.13,0.05-0.24,0.12-0.32c0.08-0.08,0.18-0.13,0.29-0.13h2.03
			c0.12,0,0.22,0.05,0.29,0.13c0.08,0.08,0.12,0.19,0.12,0.32v0.61h0.53v-0.61c0-0.57-0.43-1.03-0.95-1.03h-2.03
			c-0.53,0-0.95,0.46-0.95,1.03h0.27H814.76z"/>
	</g>
	<g id="XMLID_1488_">
		<path id="XMLID_1489_" d="M816.71,428.17h-1.53c-0.12,0-0.22-0.05-0.29-0.13c-0.08-0.08-0.12-0.19-0.12-0.32v-3.63h-0.27h-0.27
			v3.63c0,0.57,0.43,1.03,0.95,1.04h2.39C817.19,428.75,816.86,428.52,816.71,428.17z"/>
	</g>
	<g id="XMLID_1484_">
		<path id="XMLID_1485_" d="M819.72,424.7h-2.23c-0.53,0-0.95,0.46-0.95,1.04v1.99c0,0.16,0.04,0.31,0.1,0.45
			c0.15,0.34,0.47,0.58,0.85,0.58h2.23c0.52,0,0.95-0.46,0.95-1.03v-1.99C820.67,425.16,820.24,424.7,819.72,424.7z M820.01,428.04
			c-0.08,0.09-0.18,0.13-0.29,0.14h-2.23c-0.11-0.01-0.22-0.06-0.29-0.14c-0.08-0.08-0.12-0.19-0.12-0.31v-1.99
			c0-0.13,0.05-0.24,0.12-0.32c0.08-0.09,0.18-0.13,0.29-0.13h2.23c0.11,0,0.22,0.05,0.29,0.13c0.08,0.09,0.12,0.19,0.12,0.32v1.99
			C820.14,427.85,820.09,427.96,820.01,428.04z"/>
	</g>
	<g id="XMLID_1482_">
		<rect id="XMLID_1483_" x="817.71" y="424.17" class="st1" width="0.53" height="0.58"/>
	</g>
	<g id="XMLID_1478_">
		<path id="XMLID_1479_" class="st0" d="M816.55,423.62h-0.72c-0.34,0-0.61-0.29-0.61-0.64v-0.22c0-0.35,0.27-0.64,0.61-0.64h0.72
			c0.34,0,0.61,0.29,0.61,0.64v0.22C817.17,423.33,816.89,423.62,816.55,423.62z M815.83,422.65c-0.03,0-0.07,0.04-0.07,0.1v0.22
			c0,0.06,0.04,0.1,0.07,0.1h0.72c0.03,0,0.07-0.04,0.07-0.1v-0.22c0-0.06-0.04-0.1-0.07-0.1H815.83z"/>
	</g>
	<g id="XMLID_1474_">
		<path id="XMLID_1475_" class="st0" d="M818.96,425.26h-0.72c-0.34,0-0.61-0.29-0.61-0.64v-0.22c0-0.35,0.28-0.64,0.61-0.64h0.72
			c0.34,0,0.61,0.29,0.61,0.64v0.22C819.57,424.97,819.3,425.26,818.96,425.26z M818.24,424.3c-0.03,0-0.07,0.04-0.07,0.1v0.22
			c0,0.06,0.04,0.1,0.07,0.1h0.72c0.03,0,0.07-0.04,0.07-0.1v-0.22c0-0.06-0.04-0.1-0.07-0.1H818.24z"/>
	</g>
</g>
<g>
</g>
<g>
</g>
<g>
</g>
<g>
</g>
<g>
</g>
<g>
</g>
</svg>
