<?xml version="1.0" encoding="utf-8"?>
<!-- Generator: Adobe Illustrator 22.0.1, SVG Export Plug-In . SVG Version: 6.00 Build 0)  -->
<svg version="1.1" id="icons" xmlns="http://www.w3.org/2000/svg" xmlns:xlink="http://www.w3.org/1999/xlink" x="0px" y="0px"
	 width="1010px" height="673.6px" viewBox="0 0 1010 673.6" style="enable-background:new 0 0 1010 673.6;" xml:space="preserve">
<style type="text/css">
	.st0{fill:#4E51CC;}
	.st1{fill:#FFFFFF;}
</style>
<g id="disable">
	<g id="XMLID_2074_">
		<g id="XMLID_2075_">
			<circle id="XMLID_2076_" class="st0" cx="693.54" cy="366.99" r="12.71"/>
		</g>
	</g>
	<g id="XMLID_2063_">
		<g id="XMLID_2064_">
			<g id="XMLID_2065_">
				<g id="XMLID_2072_">
					<polygon id="XMLID_2073_" class="st1" points="698.14,374.89 695.84,369.07 691.37,369.07 691.37,362.94 694.19,362.94 
						694.19,365.32 696.05,365.32 696.05,365.96 693.55,365.96 693.55,363.58 692.01,363.58 692.01,368.43 696.27,368.43 
						698.73,374.65 					"/>
				</g>
				<g id="XMLID_2070_">
					<path id="XMLID_2071_" class="st1" d="M692.85,375.09c-2.49,0-4.51-2.19-4.51-4.88c0-2.16,1.34-4.08,3.25-4.68l0.19,0.61
						c-1.65,0.52-2.8,2.19-2.8,4.07c0,2.34,1.73,4.24,3.87,4.24c1.86,0,3.45-1.45,3.8-3.44l0.63,0.11
						C696.89,373.42,695.02,375.09,692.85,375.09z"/>
				</g>
				<g id="XMLID_2066_">
					<path id="XMLID_2067_" class="st1" d="M692.82,362.05c-0.81,0-1.47-0.71-1.47-1.58c0-0.87,0.66-1.58,1.47-1.58
						c0.81,0,1.47,0.71,1.47,1.58C694.29,361.34,693.63,362.05,692.82,362.05z M692.82,359.54c-0.46,0-0.83,0.42-0.83,0.93
						c0,0.52,0.37,0.94,0.83,0.94c0.46,0,0.83-0.42,0.83-0.94C693.65,359.96,693.28,359.54,692.82,359.54z"/>
				</g>
			</g>
		</g>
	</g>
</g>
<g>
</g>
<g>
</g>
<g>
</g>
<g>
</g>
<g>
</g>
<g>
</g>
</svg>
