<?xml version="1.0" encoding="utf-8"?>
<!-- Generator: Adobe Illustrator 22.0.1, SVG Export Plug-In . SVG Version: 6.00 Build 0)  -->
<svg version="1.1" id="icons" xmlns="http://www.w3.org/2000/svg" xmlns:xlink="http://www.w3.org/1999/xlink" x="0px" y="0px"
	 width="1010px" height="673.6px" viewBox="0 0 1010 673.6" style="enable-background:new 0 0 1010 673.6;" xml:space="preserve">
<style type="text/css">
	.st0{fill:#07A592;}
	.st1{fill:#FFFFFF;}
</style>
<g id="cash">
	<g id="XMLID_2133_">
		<g id="XMLID_2134_">
			<g id="XMLID_2135_">
				<circle id="XMLID_2136_" class="st0" cx="341.99" cy="236.53" r="12.71"/>
			</g>
		</g>
	</g>
	<g id="XMLID_2098_">
		<g id="XMLID_2131_">
			<rect id="XMLID_2132_" x="334.18" y="230.69" class="st1" width="7.29" height="1.21"/>
		</g>
		<g id="XMLID_2129_">
			<rect id="XMLID_2130_" x="342.5" y="230.69" class="st1" width="7.29" height="1.21"/>
		</g>
		<g id="XMLID_2124_">
			<g id="XMLID_2127_">
				<rect id="XMLID_2128_" x="345.85" y="241.63" class="st1" width="0.61" height="2.47"/>
			</g>
			<g id="XMLID_2125_">
				<polygon id="XMLID_2126_" class="st1" points="346.15,244.53 344.52,242.91 344.95,242.48 346.15,243.68 347.35,242.48 
					347.77,242.91 				"/>
			</g>
		</g>
		<g id="XMLID_2119_">
			<g id="XMLID_2122_">
				<rect id="XMLID_2123_" x="337.53" y="242.07" class="st1" width="0.61" height="2.47"/>
			</g>
			<g id="XMLID_2120_">
				<polygon id="XMLID_2121_" class="st1" points="339.03,243.7 337.83,242.5 336.63,243.7 336.2,243.27 337.83,241.65 
					339.45,243.27 				"/>
			</g>
		</g>
		<g id="XMLID_2106_">
			<g id="XMLID_2115_">
				<path id="XMLID_2116_" class="st1" d="M348.92,241.21h-5.54v-10.36h5.54V241.21z M343.98,240.6h4.33v-9.15h-4.33V240.6z"/>
			</g>
			<g id="XMLID_2107_">
				<g id="XMLID_2113_">
					<polygon id="XMLID_2114_" class="st1" points="347.69,237.7 344.6,237.7 344.6,237.1 347.09,237.1 347.09,236.65 344.6,236.65 
						344.6,235 347.69,235 347.69,235.61 345.21,235.61 345.21,236.05 347.69,236.05 					"/>
				</g>
				<g id="XMLID_2108_">
					<g id="XMLID_2109_">
						<rect id="XMLID_2112_" x="345.85" y="234.52" class="st1" width="0.61" height="3.77"/>
					</g>
				</g>
			</g>
		</g>
		<g id="XMLID_2103_">
			<path id="XMLID_2105_" class="st1" d="M335.58,232.31h0.69v8.6h-0.69c-0.12,0-0.22-0.1-0.22-0.22v-8.16
				C335.36,232.4,335.46,232.31,335.58,232.31z"/>
			<path id="XMLID_2104_" class="st1" d="M340.29,232.52v8.16c0,0.12-0.1,0.22-0.22,0.22h-2.6v-8.6h2.6
				C340.2,232.31,340.29,232.4,340.29,232.52z"/>
		</g>
		<g id="XMLID_2101_">
			<rect id="XMLID_2102_" x="339.04" y="237.17" class="st0" width="0.15" height="3.3"/>
		</g>
		<g id="XMLID_2099_">
			<rect id="XMLID_2100_" x="339.55" y="238.94" class="st0" width="0.15" height="1.54"/>
		</g>
	</g>
</g>
<g>
</g>
<g>
</g>
<g>
</g>
<g>
</g>
<g>
</g>
<g>
</g>
</svg>
