<?xml version="1.0" encoding="utf-8"?>
<!-- Generator: Adobe Illustrator 22.0.1, SVG Export Plug-In . SVG Version: 6.00 Build 0)  -->
<svg version="1.1" id="icons" xmlns="http://www.w3.org/2000/svg" xmlns:xlink="http://www.w3.org/1999/xlink" x="0px" y="0px"
	 width="1010px" height="673.6px" viewBox="0 0 1010 673.6" style="enable-background:new 0 0 1010 673.6;" xml:space="preserve">
<style type="text/css">
	.st0{fill:#D098ED;}
	.st1{fill-rule:evenodd;clip-rule:evenodd;fill:#231F20;}
</style>
<g id="customer">
	<g id="XMLID_2137_">
		<g id="XMLID_2182_">
			<g id="XMLID_2183_">
				<g id="XMLID_2184_">
					<circle id="XMLID_2185_" class="st0" cx="438.29" cy="423.47" r="12.71"/>
				</g>
			</g>
		</g>
	</g>
	<g id="XMLID_1914_">
		<path id="XMLID_1940_" class="st1" d="M437.24,429.79c0,0.22,0.09,0.41,0.23,0.55c0.14,0.14,0.34,0.23,0.55,0.23
			c0.22,0,0.41-0.09,0.55-0.23c0.14-0.14,0.23-0.34,0.23-0.55c0-0.22-0.09-0.41-0.23-0.55c-0.14-0.14-0.34-0.23-0.55-0.23
			c-0.22,0-0.41,0.09-0.55,0.23C437.33,429.38,437.24,429.57,437.24,429.79L437.24,429.79z M436.95,430.87
			c-0.28-0.28-0.45-0.66-0.45-1.08c0-0.42,0.17-0.8,0.45-1.08c0.28-0.28,0.66-0.45,1.08-0.45c0.42,0,0.8,0.17,1.08,0.45
			c0.28,0.28,0.45,0.66,0.45,1.08c0,0.42-0.17,0.8-0.45,1.08c-0.28,0.28-0.66,0.45-1.08,0.45S437.22,431.14,436.95,430.87z"/>
		<polygon id="XMLID_1939_" class="st1" points="436.67,427.27 436.67,422.1 436.67,421.73 437.04,421.73 439.5,421.73 
			439.5,418.32 434.74,418.32 434.37,418.32 434.37,417.95 434.37,415.99 434.37,415.62 434.74,415.62 441.83,415.62 442.2,415.62 
			442.2,415.99 442.2,424.06 442.2,424.44 441.83,424.44 439.38,424.44 439.38,427.27 438.63,427.27 438.63,424.06 438.63,423.69 
			439,423.69 441.46,423.69 441.46,416.36 435.12,416.36 435.12,417.58 439.87,417.58 440.24,417.58 440.24,417.95 440.24,422.1 
			440.24,422.47 439.87,422.47 437.42,422.47 437.42,427.27 		"/>
	</g>
</g>
<g>
</g>
<g>
</g>
<g>
</g>
<g>
</g>
<g>
</g>
<g>
</g>
</svg>
