<svg xmlns="http://www.w3.org/2000/svg" width="1010" height="673.6" viewBox="0 0 1010 673.6"><defs><style>.a{fill:#ffcc57;}.b{fill:#221e1f;}</style></defs><title>アートボード 2</title><circle class="a" cx="333.56" cy="152.84" r="12.71"/><path class="b" d="M339.61,161.44H327.5V148.32h12.11Zm-11.5-.61H339V148.92H328.11Z"/><path d="M330,152.87a.73.73,0,0,0,.54-.24.9.9,0,0,0,0-1.18.73.73,0,0,0-.54-.24.72.72,0,0,0-.54.24.87.87,0,0,0,0,1.18A.72.72,0,0,0,330,152.87Zm-.23-1.07a.33.33,0,0,1,.23-.1.32.32,0,0,1,.22.1.34.34,0,0,1,.09.24.37.37,0,0,1-.09.25.32.32,0,0,1-.22.1.33.33,0,0,1-.23-.1.42.42,0,0,1-.09-.25A.39.39,0,0,1,329.8,151.8Z"/><polygon points="330.25 153.53 330.91 153.53 330.91 155.94 331.36 155.94 331.36 153.04 328.69 153.04 328.69 155.94 329.14 155.94 329.14 153.53 329.8 153.53 329.8 155.87 328.35 158.61 328.74 158.86 330.03 156.43 331.32 158.86 331.71 158.61 330.25 155.87 330.25 153.53"/><path d="M333.55,152.87a.74.74,0,0,0,.55-.24.9.9,0,0,0,0-1.18.74.74,0,0,0-1.09,0,.9.9,0,0,0,0,1.18A.73.73,0,0,0,333.55,152.87Zm-.22-1.07a.32.32,0,0,1,.22-.1.33.33,0,0,1,.23.1.34.34,0,0,1,.09.24.37.37,0,0,1-.09.25.33.33,0,0,1-.23.1.32.32,0,0,1-.22-.1.42.42,0,0,1-.09-.25A.39.39,0,0,1,333.33,151.8Z"/><polygon points="333.78 153.53 334.44 153.53 334.44 155.94 334.89 155.94 334.89 153.04 332.22 153.04 332.22 155.94 332.67 155.94 332.67 153.53 333.33 153.53 333.33 155.87 331.88 158.61 332.27 158.86 333.56 156.43 334.85 158.86 335.23 158.61 333.78 155.87 333.78 153.53"/><path d="M337.08,152.87a.72.72,0,0,0,.54-.24.87.87,0,0,0,0-1.18.72.72,0,0,0-.54-.24.73.73,0,0,0-.54.24.9.9,0,0,0,0,1.18A.73.73,0,0,0,337.08,152.87Zm-.22-1.07a.32.32,0,0,1,.22-.1.33.33,0,0,1,.23.1.39.39,0,0,1,.09.24.42.42,0,0,1-.09.25.33.33,0,0,1-.23.1.32.32,0,0,1-.22-.1.37.37,0,0,1-.09-.25A.34.34,0,0,1,336.86,151.8Z"/><polygon points="337.31 155.87 337.31 153.53 337.97 153.53 337.97 155.94 338.42 155.94 338.42 153.04 335.75 153.04 335.75 155.94 336.2 155.94 336.2 153.53 336.86 153.53 336.86 155.87 335.4 158.61 335.79 158.86 337.08 156.43 338.37 158.86 338.76 158.61 337.31 155.87"/><rect class="b" x="335.82" y="144.25" width="0.61" height="2.66"/><polygon class="b" points="336.12 147.35 334.51 145.59 334.95 145.19 336.12 146.46 337.29 145.19 337.74 145.59 336.12 147.35"/><rect class="b" x="330.69" y="144.72" width="0.61" height="2.66"/><polygon class="b" points="329.82 146.45 329.37 146.04 330.99 144.28 332.61 146.04 332.16 146.45 330.99 145.17 329.82 146.45"/></svg>