<?xml version="1.0" encoding="utf-8"?>
<!-- Generator: Adobe Illustrator 22.0.1, SVG Export Plug-In . SVG Version: 6.00 Build 0)  -->
<svg version="1.1" id="icons" xmlns="http://www.w3.org/2000/svg" xmlns:xlink="http://www.w3.org/1999/xlink" x="0px" y="0px"
	 width="1010px" height="673.6px" viewBox="0 0 1010 673.6" style="enable-background:new 0 0 1010 673.6;" xml:space="preserve">
<style type="text/css">
	.st0{fill:#E51F8E;}
	.st1{fill:#FFFFFF;}
</style>
<g id="toilet">
	<g id="XMLID_2022_">
		<circle id="XMLID_2023_" class="st0" cx="662.49" cy="366.99" r="12.71"/>
	</g>
	<g id="XMLID_1993_">
		<g id="XMLID_2004_">
			<g id="XMLID_2005_">
				<g id="XMLID_2018_">
					<path id="XMLID_2019_" class="st1" d="M658.74,362.05c-0.81,0-1.47-0.71-1.47-1.58c0-0.87,0.66-1.58,1.47-1.58
						s1.47,0.71,1.47,1.58C660.21,361.34,659.55,362.05,658.74,362.05z M658.74,359.5c-0.48,0-0.86,0.43-0.86,0.97
						c0,0.53,0.39,0.97,0.86,0.97c0.48,0,0.86-0.43,0.86-0.97C659.6,359.94,659.22,359.5,658.74,359.5z"/>
				</g>
				<g id="XMLID_2016_">
					<polygon id="XMLID_2017_" class="st1" points="661.44,368.9 660.84,368.9 660.84,363.46 656.64,363.46 656.64,368.9 
						656.04,368.9 656.04,362.85 661.44,362.85 					"/>
				</g>
				<g id="XMLID_2014_">
					<rect id="XMLID_2015_" x="658.44" y="363.15" class="st1" width="0.61" height="5.74"/>
				</g>
				<g id="XMLID_2008_">
					<polygon id="XMLID_2009_" class="st1" points="661.68,375.09 658.74,369.54 655.8,375.09 655.26,374.81 658.74,368.25 
						662.22,374.81 					"/>
				</g>
			</g>
		</g>
		<g id="XMLID_1994_">
			<g id="XMLID_1995_">
				<g id="XMLID_2000_">
					<path id="XMLID_2001_" class="st1" d="M666.25,362.05c-0.81,0-1.47-0.71-1.47-1.58c0-0.87,0.66-1.57,1.47-1.57
						s1.47,0.71,1.47,1.57C667.72,361.34,667.06,362.05,666.25,362.05z M666.25,359.51c-0.48,0-0.86,0.43-0.86,0.97
						c0,0.53,0.39,0.97,0.86,0.97s0.86-0.43,0.86-0.97C667.11,359.94,666.73,359.51,666.25,359.51z"/>
				</g>
				<g id="XMLID_1998_">
					<polygon id="XMLID_1999_" class="st1" points="667.51,375.09 666.9,375.09 666.9,369.45 665.6,369.45 665.6,375.09 
						664.99,375.09 664.99,368.84 667.51,368.84 					"/>
				</g>
				<g id="XMLID_1996_">
					<polygon id="XMLID_1997_" class="st1" points="669.19,369.6 666.25,364.05 663.31,369.6 662.77,369.32 666.25,362.76 
						669.73,369.32 					"/>
				</g>
			</g>
		</g>
	</g>
</g>
<g id="ftoilet">
	<g id="XMLID_2110_">
		<circle id="XMLID_2111_" class="st0" cx="209.4" cy="409.3" r="12.71"/>
	</g>
	<g id="XMLID_2087_">
		<g id="XMLID_2088_">
			<g id="XMLID_2089_">
				<g id="XMLID_2094_">
					<path id="XMLID_2095_" class="st1" d="M209.4,404.36c-0.81,0-1.47-0.71-1.47-1.58c0-0.87,0.66-1.57,1.47-1.57
						c0.81,0,1.47,0.71,1.47,1.57C210.88,403.65,210.22,404.36,209.4,404.36z M209.4,401.82c-0.48,0-0.86,0.43-0.86,0.97
						c0,0.53,0.39,0.97,0.86,0.97s0.86-0.43,0.86-0.97C210.27,402.25,209.88,401.82,209.4,401.82z"/>
				</g>
				<g id="XMLID_2092_">
					<polygon id="XMLID_2093_" class="st1" points="210.66,417.4 210.06,417.4 210.06,411.75 208.75,411.75 208.75,417.4 
						208.14,417.4 208.14,411.14 210.66,411.14 					"/>
				</g>
				<g id="XMLID_2090_">
					<polygon id="XMLID_2091_" class="st1" points="212.35,411.91 209.4,406.36 206.46,411.91 205.92,411.63 209.4,405.06 
						212.88,411.63 					"/>
				</g>
			</g>
		</g>
	</g>
</g>
<g>
</g>
<g>
</g>
<g>
</g>
<g>
</g>
<g>
</g>
<g>
</g>
</svg>
