<svg xmlns="http://www.w3.org/2000/svg" width="1010" height="673.6" viewBox="0 0 1010 673.6"><defs><style>.a{fill:#4e51cc;}.b{fill:#fff;}</style></defs><title>アートボード 2</title><circle class="a" cx="221.16" cy="496.68" r="12.71"/><polygon class="b" points="225.76 504.57 223.46 498.75 219 498.75 219 492.63 221.82 492.63 221.82 495 223.68 495 223.68 495.64 221.18 495.64 221.18 493.27 219.64 493.27 219.64 498.11 223.9 498.11 226.36 504.34 225.76 504.57"/><path class="b" d="M220.48,504.78A4.71,4.71,0,0,1,216,499.9a4.87,4.87,0,0,1,3.25-4.69l.19.62a4.21,4.21,0,0,0-2.8,4.07,4.07,4.07,0,0,0,3.87,4.24,4,4,0,0,0,3.8-3.45l.63.11A4.63,4.63,0,0,1,220.48,504.78Z"/><path class="b" d="M220.44,491.73a1.58,1.58,0,1,1,1.48-1.58A1.53,1.53,0,0,1,220.44,491.73Zm0-2.51a.94.94,0,0,0,0,1.87.94.94,0,0,0,0-1.87Z"/></svg>