<svg xmlns="http://www.w3.org/2000/svg" width="1010" height="673.6" viewBox="0 0 1010 673.6"><defs><style>.a{fill:#07a592;}.b{fill:#fff;}</style></defs><title>アートボード 2</title><circle class="a" cx="415.78" cy="505.62" r="12.71"/><rect class="b" x="407.97" y="499.79" width="7.29" height="1.21"/><rect class="b" x="416.29" y="499.79" width="7.29" height="1.21"/><rect class="b" x="419.63" y="510.73" width="0.61" height="2.47"/><polygon class="b" points="419.94 513.63 418.31 512 418.74 511.57 419.94 512.77 421.13 511.57 421.56 512 419.94 513.63"/><rect class="b" x="411.31" y="511.17" width="0.61" height="2.47"/><polygon class="b" points="412.81 512.79 411.62 511.6 410.42 512.79 409.99 512.37 411.62 510.74 413.24 512.37 412.81 512.79"/><path class="b" d="M422.7,510.3h-5.53V499.94h5.53Zm-4.93-.6h4.33v-9.16h-4.33Z"/><polygon class="b" points="421.48 506.8 418.39 506.8 418.39 506.19 420.87 506.19 420.87 505.75 418.39 505.75 418.39 504.1 421.48 504.1 421.48 504.7 419 504.7 419 505.14 421.48 505.14 421.48 506.8"/><rect class="b" x="419.63" y="503.61" width="0.61" height="3.77"/><path class="b" d="M409.36,501.4h.69V510h-.69a.22.22,0,0,1-.21-.22v-8.16A.22.22,0,0,1,409.36,501.4Z"/><path class="b" d="M414.08,501.62v8.16a.22.22,0,0,1-.22.22h-2.6v-8.6h2.6A.22.22,0,0,1,414.08,501.62Z"/><rect class="a" x="412.83" y="506.27" width="0.15" height="3.3"/><rect class="a" x="413.34" y="508.03" width="0.15" height="1.54"/></svg>