<svg xmlns="http://www.w3.org/2000/svg" width="1010" height="673.6" viewBox="0 0 1010 673.6"><defs><style>.a{fill:#ffcc57;}.b{fill:#221e1f;}</style></defs><title>アートボード 2</title><circle class="a" cx="173.46" cy="323.08" r="12.71"/><path class="b" d="M179.52,331.68H167.41V318.55h12.11Zm-11.5-.61h10.89V319.16H168Z"/><path d="M169.94,323.11a.73.73,0,0,0,.54-.24.9.9,0,0,0,0-1.18.73.73,0,0,0-.54-.24.72.72,0,0,0-.54.24.87.87,0,0,0,0,1.18A.72.72,0,0,0,169.94,323.11Zm-.23-1.07a.29.29,0,0,1,.23-.1.28.28,0,0,1,.22.1.32.32,0,0,1,.09.24.34.34,0,0,1-.09.24.32.32,0,0,1-.22.1.33.33,0,0,1-.23-.1.39.39,0,0,1-.09-.24A.37.37,0,0,1,169.71,322Z"/><polygon points="170.16 323.76 170.82 323.76 170.82 326.17 171.27 326.17 171.27 323.27 168.6 323.27 168.6 326.17 169.05 326.17 169.05 323.76 169.71 323.76 169.71 326.11 168.26 328.85 168.65 329.09 169.94 326.66 171.23 329.09 171.61 328.85 170.16 326.11 170.16 323.76"/><path d="M173.46,323.11a.72.72,0,0,0,.54-.24.87.87,0,0,0,0-1.18.72.72,0,0,0-.54-.24.73.73,0,0,0-.54.24.9.9,0,0,0,0,1.18A.73.73,0,0,0,173.46,323.11Zm-.22-1.07a.28.28,0,0,1,.22-.1.29.29,0,0,1,.23.1.37.37,0,0,1,.09.24.39.39,0,0,1-.09.24.33.33,0,0,1-.23.1.32.32,0,0,1-.22-.1.34.34,0,0,1-.09-.24A.32.32,0,0,1,173.24,322Z"/><polygon points="173.69 323.76 174.35 323.76 174.35 326.17 174.8 326.17 174.8 323.27 172.13 323.27 172.13 326.17 172.58 326.17 172.58 323.76 173.24 323.76 173.24 326.11 171.78 328.85 172.17 329.09 173.46 326.66 174.75 329.09 175.14 328.85 173.69 326.11 173.69 323.76"/><path d="M177,323.11a.73.73,0,0,0,.54-.24.87.87,0,0,0,0-1.18.73.73,0,0,0-1.08,0,.9.9,0,0,0,0,1.18A.73.73,0,0,0,177,323.11Zm-.22-1.07a.27.27,0,0,1,.22-.1.26.26,0,0,1,.22.1.33.33,0,0,1,.1.24.35.35,0,0,1-.1.24.29.29,0,0,1-.22.1.3.3,0,0,1-.22-.1.34.34,0,0,1-.09-.24A.32.32,0,0,1,176.77,322Z"/><polygon points="177.22 326.11 177.22 323.76 177.88 323.76 177.88 326.17 178.32 326.17 178.32 323.27 175.66 323.27 175.66 326.17 176.11 326.17 176.11 323.76 176.77 323.76 176.77 326.11 175.31 328.85 175.7 329.09 176.99 326.66 178.28 329.09 178.67 328.85 177.22 326.11"/><rect class="b" x="175.73" y="314.49" width="0.61" height="2.66"/><polygon class="b" points="176.03 317.59 174.41 315.83 174.86 315.42 176.03 316.69 177.2 315.42 177.65 315.83 176.03 317.59"/><rect class="b" x="170.59" y="314.96" width="0.61" height="2.66"/><polygon class="b" points="169.73 316.68 169.28 316.27 170.9 314.51 172.51 316.27 172.07 316.68 170.9 315.41 169.73 316.68"/><circle class="a" cx="321.6" cy="155.51" r="12.71"/><path class="b" d="M327.65,164.11h-12.1V151h12.1Zm-11.5-.61h10.9V151.59h-10.9Z"/><path d="M318.07,155.54a.72.72,0,0,0,.54-.24.87.87,0,0,0,0-1.18.72.72,0,0,0-.54-.24.73.73,0,0,0-.54.24.9.9,0,0,0,0,1.18A.73.73,0,0,0,318.07,155.54Zm-.22-1.07a.32.32,0,0,1,.22-.1.33.33,0,0,1,.23.1.39.39,0,0,1,.09.24.37.37,0,0,1-.09.24.29.29,0,0,1-.23.1.28.28,0,0,1-.22-.1.32.32,0,0,1-.09-.24A.34.34,0,0,1,317.85,154.47Z"/><polygon points="318.3 156.19 318.96 156.19 318.96 158.6 319.41 158.6 319.41 155.71 316.74 155.71 316.74 158.6 317.19 158.6 317.19 156.19 317.85 156.19 317.85 158.54 316.39 161.28 316.78 161.52 318.07 159.09 319.36 161.52 319.75 161.28 318.3 158.54 318.3 156.19"/><path d="M321.6,155.54a.73.73,0,0,0,.54-.24.87.87,0,0,0,0-1.18.73.73,0,0,0-1.08,0,.9.9,0,0,0,0,1.18A.73.73,0,0,0,321.6,155.54Zm-.22-1.07a.3.3,0,0,1,.22-.1.29.29,0,0,1,.22.1.35.35,0,0,1,.1.24.33.33,0,0,1-.1.24.26.26,0,0,1-.22.1.27.27,0,0,1-.22-.1.32.32,0,0,1-.09-.24A.34.34,0,0,1,321.38,154.47Z"/><polygon points="321.83 156.19 322.49 156.19 322.49 158.6 322.93 158.6 322.93 155.71 320.27 155.71 320.27 158.6 320.72 158.6 320.72 156.19 321.38 156.19 321.38 158.54 319.92 161.28 320.31 161.52 321.6 159.09 322.89 161.52 323.28 161.28 321.83 158.54 321.83 156.19"/><path d="M325.13,155.54a.73.73,0,0,0,.54-.24.9.9,0,0,0,0-1.18.73.73,0,0,0-1.08,0,.87.87,0,0,0,0,1.18A.73.73,0,0,0,325.13,155.54Zm-.22-1.07a.29.29,0,0,1,.22-.1.3.3,0,0,1,.22.1.34.34,0,0,1,.09.24.32.32,0,0,1-.09.24.27.27,0,0,1-.22.1.26.26,0,0,1-.22-.1.33.33,0,0,1-.1-.24A.35.35,0,0,1,324.91,154.47Z"/><polygon points="325.35 158.54 325.35 156.19 326.01 156.19 326.01 158.6 326.46 158.6 326.46 155.71 323.8 155.71 323.8 158.6 324.25 158.6 324.25 156.19 324.9 156.19 324.9 158.54 323.45 161.28 323.84 161.52 325.13 159.09 326.42 161.52 326.81 161.28 325.35 158.54"/><rect class="b" x="323.87" y="146.92" width="0.61" height="2.66"/><polygon class="b" points="324.17 150.02 322.55 148.26 323 147.85 324.17 149.13 325.34 147.85 325.78 148.26 324.17 150.02"/><rect class="b" x="318.73" y="147.39" width="0.61" height="2.66"/><polygon class="b" points="317.87 149.11 317.42 148.7 319.04 146.94 320.65 148.7 320.2 149.11 319.04 147.84 317.87 149.11"/></svg>