<svg xmlns="http://www.w3.org/2000/svg" width="1010" height="673.6" viewBox="0 0 1010 673.6"><defs><style>.a{fill:#e51f8e;}.b{fill:#fff;}</style></defs><title>アートボード 2</title><circle class="a" cx="631.27" cy="363.02" r="12.71"/><path class="b" d="M627.51,358.07A1.58,1.58,0,1,1,629,356.5,1.52,1.52,0,0,1,627.51,358.07Zm0-2.54a1,1,0,1,0,.87,1A.92.92,0,0,0,627.51,355.53Z"/><polygon class="b" points="630.22 364.92 629.61 364.92 629.61 359.48 625.42 359.48 625.42 364.92 624.81 364.92 624.81 358.87 630.22 358.87 630.22 364.92"/><rect class="b" x="627.21" y="359.18" width="0.61" height="5.74"/><polygon class="b" points="630.46 371.12 627.51 365.57 624.57 371.12 624.03 370.83 627.51 364.27 631 370.83 630.46 371.12"/><path class="b" d="M635,358.08a1.58,1.58,0,1,1,1.47-1.58A1.53,1.53,0,0,1,635,358.08Zm0-2.54a1,1,0,1,0,.87,1A.92.92,0,0,0,635,355.54Z"/><polygon class="b" points="636.28 371.12 635.67 371.12 635.67 365.47 634.37 365.47 634.37 371.12 633.76 371.12 633.76 364.86 636.28 364.86 636.28 371.12"/><polygon class="b" points="637.97 365.63 635.02 360.08 632.08 365.63 631.54 365.35 635.02 358.78 638.5 365.35 637.97 365.63"/><circle class="a" cx="193.21" cy="468.72" r="12.71"/><path class="b" d="M189.45,463.77a1.58,1.58,0,1,1,1.47-1.57A1.52,1.52,0,0,1,189.45,463.77Zm0-2.54a1,1,0,1,0,.87,1A.92.92,0,0,0,189.45,461.23Z"/><polygon class="b" points="192.16 470.62 191.55 470.62 191.55 465.18 187.36 465.18 187.36 470.62 186.75 470.62 186.75 464.57 192.16 464.57 192.16 470.62"/><rect class="b" x="189.15" y="464.88" width="0.61" height="5.74"/><polygon class="b" points="192.4 476.82 189.45 471.27 186.51 476.82 185.97 476.53 189.45 469.97 192.93 476.53 192.4 476.82"/><path class="b" d="M197,463.78a1.58,1.58,0,1,1,1.47-1.58A1.53,1.53,0,0,1,197,463.78Zm0-2.55a1,1,0,1,0,.86,1A.92.92,0,0,0,197,461.23Z"/><polygon class="b" points="198.22 476.82 197.61 476.82 197.61 471.17 196.31 471.17 196.31 476.82 195.7 476.82 195.7 470.56 198.22 470.56 198.22 476.82"/><polygon class="b" points="199.9 471.33 196.96 465.78 194.02 471.33 193.48 471.04 196.96 464.48 200.44 471.04 199.9 471.33"/><circle class="a" cx="261.76" cy="512.72" r="12.71"/><path class="b" d="M261.76,507.77a1.58,1.58,0,1,1,1.47-1.58A1.53,1.53,0,0,1,261.76,507.77Zm0-2.54a1,1,0,1,0,.86,1A.91.91,0,0,0,261.76,505.23Z"/><polygon class="b" points="263.02 520.81 262.41 520.81 262.41 515.16 261.11 515.16 261.11 520.81 260.5 520.81 260.5 514.56 263.02 514.56 263.02 520.81"/><polygon class="b" points="264.7 515.32 261.76 509.77 258.82 515.32 258.28 515.04 261.76 508.48 265.24 515.04 264.7 515.32"/></svg>